<svg xmlns="http://www.w3.org/2000/svg" viewBox="0 0 260 298">
  <g fill="none" fill-rule="evenodd" transform="translate(-340 -56)">
    <g stroke="#9B9B9B" stroke-width=".4" transform="translate(429 124)" stroke-linecap="round" stroke-linejoin="round">
      <path d="M87.949 114.507L52.583 148.388M52.583 148.306L87.949 114.425M52.583 148.388C52.34 149.7 51.326 150.924 49.711 151.857M49.71 151.774C51.325 150.841 52.339 149.618 52.582 148.305M49.71 151.856L43.299 155.558M43.299 155.477L49.71 151.774M43.299 155.558L3.821 132.765M3.777 132.658L43.299 155.477M1.025 125.839C1.019 125.841 1.013 125.843 1.007 125.845M43.811 112.331L1.025 125.839M48.083 112.188C46.693 111.864 45.125 111.917 43.81 112.332M58.902 110.917C56.064 112.556 51.804 113.056 48.083 112.188M63.317 108.368L58.902 110.917M77.459 108.368C73.554 106.113 67.222 106.113 63.317 108.368M87.949 114.425L77.459 108.368M32.374 166.783C44.713 173.907 57.053 181.032 69.392 188.156M69.462 188.115C57.099 180.977 44.736 173.84 32.373 166.702M69.462 188.197C69.079 188.418 68.696 188.638 68.314 188.859M68.314 188.778C68.696 188.556 69.079 188.336 69.462 188.115M68.314 188.859C65.369 187.159 62.424 185.459 59.48 183.758M59.48 183.678C62.425 185.378 65.37 187.078 68.314 188.779M59.48 183.759C56.666 185.708 53.853 187.657 51.039 189.608M51.039 189.525C53.852 187.576 56.666 185.627 59.48 183.677M51.039 189.607C50.571 189.336 50.103 189.066 49.635 188.796M49.635 188.715C50.103 188.986 50.571 189.255 51.039 189.526M49.7 188.752C52.492 186.817 55.284 184.883 58.076 182.948M58.076 182.867C55.262 184.816 52.449 186.765 49.635 188.715M58.012 182.911C49.083 177.757 40.155 172.601 31.225 167.446M31.225 167.364C40.175 172.532 49.126 177.699 58.076 182.867M31.225 167.446C27.633 169.52 24.04 171.594 20.448 173.669M20.421 173.603C24.023 171.524 27.624 169.445 31.225 167.365M18.829 169.686C26.603 165.198 34.377 160.709 42.151 156.221M42.151 156.139C34.368 160.633 26.585 165.126 18.802 169.619M42.08 156.18C29.561 148.952 17.043 141.725 4.525 134.497M.368 124.271C5.411 122.679 10.455 121.086 15.498 119.495M15.498 119.413C10.445 121.009 5.392 122.604.339 124.199M4.481 134.391C17.038 141.64 29.594 148.89 42.15 156.139"/>
      <path d="M15.407 119.442C14.099 118.687 12.791 117.931 11.483 117.176 10.507 116.613 10.019 115.932 10.019 115.135M10.019 115.095C10.038 114.314 10.526 113.647 11.483 113.094 13.737 111.793 15.991 110.491 18.245 109.191"/>
      <path d="M18.244 109.108C15.99 110.41 13.736 111.711 11.482 113.012 9.125 114.372 9.125 115.734 11.482 117.094 12.821 117.867 14.159 118.64 15.498 119.412M18.244 109.19C18.966 109.607 19.687 110.023 20.409 110.44M20.48 110.399C19.735 109.968 18.989 109.539 18.244 109.108"/>
      <path d="M20.48 110.481C18.608 111.561 16.737 112.641 14.866 113.721 13.909 114.274 13.421 114.941 13.402 115.722M13.402 115.764C13.402 116.561 13.89 117.242 14.866 117.805 15.572 118.212 16.277 118.619 16.982 119.027"/>
      <path d="M16.982 118.944C16.277 118.537 15.571 118.13 14.866 117.722 12.509 116.362 12.509 115 14.866 113.64 16.737 112.559 18.608 111.479 20.48 110.399M16.982 119.026C26.317 116.079 35.652 113.131 44.987 110.184 46.43 109.729 47.904 109.693 49.408 110.078 51.91 110.717 54.129 110.477 56.064 109.36 57.536 108.51 59.007 107.661 60.479 106.811 67.084 102.998 73.69 102.998 80.296 106.811 82.818 108.268 85.341 109.724 87.863 111.18"/>
      <path d="M87.863 111.1C85.342 109.643 82.819 108.187 80.296 106.731 73.691 102.917 67.085 102.917 60.479 106.731 59.007 107.581 57.536 108.43 56.064 109.28 54.129 110.397 51.911 110.635 49.408 109.997 47.904 109.612 46.43 109.648 44.987 110.104 35.652 113.051 26.317 115.998 16.982 118.945M87.861 111.098C87.773 107.68 87.685 104.262 87.596 100.843M87.597 100.762C87.686 104.207 87.775 107.654 87.864 111.1M87.597 100.843C87.593 100.668 87.561 100.495 87.502 100.323 82.23 84.993 76.957 69.663 71.685 54.333 71.619 54.141 71.586 53.955 71.586 53.773M71.586 53.732C71.588 53.663 71.595 53.595 71.607 53.528 73.024 45.485 74.44 37.442 75.857 29.399"/>
      <path d="M75.857 29.318C74.44 37.361 73.024 45.404 71.607 53.447 71.563 53.701 71.588 53.969 71.685 54.251 76.957 69.582 82.23 84.912 87.502 100.242 87.561 100.413 87.593 100.587 87.597 100.762M75.842 29.402C55.799 32.587 35.757 35.771 15.714 38.956M15.714 38.875C35.762 35.689 55.809 32.504 75.857 29.318M15.714 38.956C12.239 38.17 8.764 37.383 5.289 36.597M5.289 36.516C8.764 37.302 12.239 38.088 15.714 38.875M5.504 36.564C29.172 32.941 52.84 29.318 76.509 25.695M76.509 25.613C52.769 29.247 29.029 32.881 5.289 36.515M76.509 25.695C77.977 17.361 79.445 9.027 80.913.692M80.914.61C79.446 8.944 77.978 17.278 76.51 25.613M80.914.692C82.913.62 84.912.547 86.911.475M86.925.393C84.921.465 82.917.538 80.914.61"/>
      <path d="M86.925.475C83.801 18.327 80.678 36.179 77.554 54.03 77.542 54.096 77.536 54.164 77.534 54.233M77.533 54.273C77.533 54.454 77.566 54.641 77.632 54.833"/>
      <path d="M77.632 54.75C77.535 54.469 77.509 54.202 77.554 53.948 80.678 36.096 83.801 18.244 86.925.393M77.632 54.833C101.155 51.321 124.678 47.809 148.201 44.296M148.204 44.214C124.68 47.726 101.156 51.238 77.632 54.751M148.204 44.295C148.168 45.606 148.132 46.916 148.096 48.227M148.096 48.145C148.132 46.834 148.168 45.524 148.204 44.214M148.096 48.227C128.083 51.215 108.071 54.203 88.058 57.191 83.097 57.932 80.598 59.781 80.562 62.739M80.562 62.781C80.562 63.159 80.625 63.534 80.753 63.906 85.047 76.391 89.34 88.875 93.634 101.36"/>
      <path d="M93.634 101.277C89.34 88.793 85.047 76.308 80.753 63.823 79.526 60.257 81.961 58.019 88.058 57.109 108.071 54.121 128.083 51.133 148.096 48.145M93.634 101.359C93.748 105.768 93.862 110.177 93.976 114.587M93.978 114.585C93.864 110.149 93.749 105.713 93.634 101.277M93.978 114.666C89.082 119.52 84.185 124.372 79.288 129.225 78.848 129.662 78.621 130.132 78.609 130.637M78.608 130.678C78.608 131.106 78.765 131.514 79.08 131.902 79.821 132.816 81.053 133.356 82.775 133.524 95.739 134.79 108.703 136.054 121.667 137.319 123.363 137.485 124.82 137.216 126.036 136.514 139.372 128.814 152.708 121.115 166.044 113.415"/>
      <path d="M166.044 113.333C152.708 121.033 139.372 128.732 126.036 136.432 124.82 137.134 123.363 137.403 121.667 137.238 108.703 135.972 95.739 134.708 82.775 133.443 81.052 133.275 79.82 132.734 79.08 131.821 78.339 130.907 78.409 130.014 79.288 129.143 84.185 124.29 89.081 119.438 93.978 114.585M166.044 113.415C166.893 113.905 167.741 114.394 168.591 114.885M168.661 114.844C167.789 114.341 166.917 113.837 166.044 113.333"/>
      <path d="M168.661,114.926 C154.799,122.929 140.937,130.932 127.075,138.936 C125.858,139.638 124.402,139.907 122.706,139.741 C107.448,138.253 92.189,136.763 76.931,135.275 C74.657,135.052 72.939,135.517 71.778,136.668 C67.3,141.106 62.823,145.542 58.346,149.98"/>
      <path d="M58.345 149.896C62.822 145.459 67.3 141.022 71.777 136.585 72.938 135.434 74.656 134.97 76.93 135.191 92.189 136.68 107.448 138.169 122.705 139.658 124.401 139.823 125.857 139.554 127.074 138.852 140.936 130.849 154.798 122.846 168.66 114.842M58.345 149.979C58.095 151.331 57.137 152.487 55.473 153.448M55.473 153.365C57.137 152.404 58.095 151.248 58.345 149.896M55.473 153.447C47.797 157.879 40.12 162.31 32.444 166.742M32.374 166.702C40.074 162.256 47.773 157.81 55.474 153.365M1.025 125.921L43.811 112.413M43.811 112.413C45.126 111.997 46.694 111.945 48.084 112.269M48.083 112.27C51.804 113.138 56.063 112.638 58.902 110.999M58.902 110.999L63.317 108.45M63.317 108.45C67.222 106.195 73.554 106.195 77.459 108.45M77.459 108.45L87.949 114.507M69.392 188.156C69.415 188.17 69.439 188.183 69.463 188.197M49.635 188.797C49.656 188.781 49.678 188.767 49.699 188.752M58.076 182.948C58.055 182.936 58.033 182.924 58.012 182.911M42.151 156.221C42.128 156.207 42.104 156.194 42.08 156.18M15.498 119.495C15.468 119.477 15.437 119.46 15.407 119.442M10.018 115.136L10.018 115.095M20.409 110.44C20.432 110.454 20.456 110.467 20.48 110.481M13.402 115.723L13.402 115.764M87.863 111.181C87.863 111.154 87.862 111.126 87.861 111.098M71.585 53.773L71.585 53.732M5.289 36.597C5.361 36.586 5.433 36.575 5.504 36.564M77.534 54.232C77.534 54.245 77.533 54.259 77.533 54.273M80.562 62.74L80.562 62.781M93.976 114.587C93.977 114.613 93.977 114.64 93.978 114.666M78.608 130.637L78.608 130.678M168.591 114.885C168.614 114.899 168.638 114.912 168.661 114.926M32.444 166.742C32.42 166.756 32.397 166.769 32.373 166.783"/>
    </g>
    <g fill-rule="nonzero" stroke="#D9766C" stroke-width=".4" transform="translate(471.118 276.462)" stroke-linecap="round" stroke-linejoin="round">
      <path fill="#D9766C" d="M31.486053 22.5450551L32.8465223 21.7474287M27.082387 19.9584205L31.486053 22.5450551M31.486053 20.9481877L31.486053 22.5450551M32.9973328 21.833004L26.6093184 18.0822224M18.3353793 13.2238058L14.6143291 11.0392137M14.6143291 11.0392137L32.9973328.242194246M32.9973328.242194246L51.3819239 11.0392137M51.3819239 11.0392137L32.9973328 21.833004M32.9973328 7.29811995L32.9973328.242194246M32.9973328 7.29811995L14.6143291 11.0392137M32.9973328 7.29811995L51.3819239 11.0392137M32.8465223 21.7474287L23.4819853 27.2452381M25.0377144.3536036L28.9254498 2.6350734M1.36046927 14.2555533L25.0377144.3536036M23.4819853 27.2452381L1.36046927 14.2555533M23.4819853 30.4373582L47.1592305 16.5337939M1.36046927 17.4476735L23.4819853 30.4373582M47.1592305 13.5192828L47.1592305 16.5337939M1.36046927 14.2555533L1.36046927 17.4476735M23.4819853 27.2452381L23.4819853 30.4373582"/>
      <path d="M27.1268364 20.1376443C27.2935217 20.7996419 25.9457523 21.7215946 24.1185643 22.19791 22.2913762 22.6742253 20.6737354 22.5208356 20.5070502 21.858838M19.1830929 13.6000142C20.443551 13.8276768 22.5469603 13.3755809 23.8804424 12.5941008 25.2139246 11.8110061 25.2742488 10.9907749 24.0137907 10.7631123 22.7533326 10.5354497 20.6499232 10.9875456 19.3164411 11.7706404 17.982959 12.5537351 17.9242223 13.3723517 19.1830929 13.6000142"/>
      <path fill="#D9766C" d="M20.5070502 21.858838L18.2893424 13.0429675M27.1268364 20.1376443L24.9091287 11.3217737M32.9973328 7.29811995L32.9973328 21.833004"/>
    </g>
    <g stroke="#4DA6B2" stroke-width=".33" transform="translate(503.043 283.92)" stroke-linecap="round" stroke-linejoin="round">
      <path d="M11.7916986 11.0520231L11.7916986 19.2788773M11.7916986 19.2788773L13.4422095 20.2450709M13.4422095 12.0182167L13.4422095 20.2450709M11.7916986 11.0520231L13.4422095 12.0182167M13.4001881 10.1118789L11.7916986 11.0520231M15.050699 11.0780725L13.4422095 12.0182167M13.4001881 10.1118789L15.050699 11.0780725M15.050699 19.293086L15.050699 11.0780725M15.0740443 20.2805927L15.050699 19.293086M15.1510837 21.0739134L15.0740443 20.2805927M15.2818172 21.6635757L15.1510837 21.0739134M15.3518531 21.8411848L15.2818172 21.6635757M15.6810215 22.3408584L15.3518531 21.8411848M16.1829449 22.5871431L15.6810215 22.3408584M15.6319964 22.2650785L16.1829449 22.5871431M16.360369 22.6108243L16.1829449 22.5871431M15.5456189 22.1348318L16.360369 22.6108243M15.2934899 21.5996364L15.2678101 21.5996364M16.9440009 22.56583L16.360369 22.6108243M15.2934899 21.5996364L16.9440009 22.56583M15.9775065 21.3509836L15.2934899 21.5996364M17.6280174 22.3171772L16.9440009 22.56583M15.9775065 21.3509836L17.6280174 22.3171772M16.4560846 21.0975946L15.9775065 21.3509836M18.1065956 22.0637882L17.6280174 22.3171772M16.4560846 21.0975946L18.1065956 22.0637882M17.2778383 20.5647673L16.4560846 21.0975946M18.9283493 21.5309609L18.1065956 22.0637882M17.2778383 20.5647673L18.9283493 21.5309609M17.9688584 19.9774731L17.2778383 20.5647673M19.6193694 20.9436667L18.9283493 21.5309609M17.9688584 19.9774731L19.6193694 20.9436667M18.5314796 19.3593934L17.9688584 19.9774731M20.1819905 20.325587L19.6193694 20.9436667M18.5314796 19.3593934L20.1819905 20.325587M18.9843779 18.6868469L18.5314796 19.3593934M20.6348889 19.6530405L20.1819905 20.325587M18.9843779 18.6868469L20.6348889 19.6530405M19.2621867 18.0403497L18.9843779 18.6868469M20.9126977 19.0065433L20.6348889 19.6530405M19.2621867 18.0403497L20.9126977 19.0065433M19.4863013 17.2872871L19.2621867 18.0403497M21.1368123 18.2534807L20.9126977 19.0065433M19.4863013 17.2872871L21.1368123 18.2534807M19.631042 16.427659L19.4863013 17.2872871M21.281553 17.3938526L21.1368123 18.2534807M19.631042 16.427659L21.281553 17.3938526M19.715085 15.4401523L19.631042 16.427659M21.3679305 16.4063459L21.281553 17.3938526M19.715085 15.4401523L21.3679305 16.4063459M19.7384303 14.616046L19.715085 15.4401523M21.3912758 15.5822396L21.3679305 16.4063459M19.7384303 14.616046L21.3912758 15.5822396M19.7384303 6.39629622L19.7384303 14.616046M21.3912758 7.3624898L21.3912758 15.5822396M19.7384303 6.39629622L21.3912758 7.3624898M21.3399162 5.46088822L19.7384303 6.39629622M22.9904272 6.4270818L21.3912758 7.3624898M21.3399162 5.46088822L22.9904272 6.4270818M22.9904272 14.653936L22.9904272 6.4270818M22.9670819 15.6248658L22.9904272 14.653936M22.9063842 16.524752L22.9670819 15.6248658M22.7896578 17.3488583L22.9063842 16.524752M22.6285754 18.1090253L22.7896578 17.3488583M22.5842194 18.3008431L22.6285754 18.1090253M22.2830653 19.1699437L22.5842194 18.3008431M21.8675194 20.0343081L22.2830653 19.1699437M21.3445853 20.8702549L21.8675194 20.0343081M21.0901218 21.2183688L21.3445853 20.8702549M20.5508459 21.8672341L21.0901218 21.2183688M19.9368652 22.4616326L20.5508459 21.8672341M19.2505141 23.015773L19.9368652 22.4616326M18.4987962 23.5320235L19.2505141 23.015773M18.2513363 23.6835833L18.4987962 23.5320235M17.466935 24.0980046L18.2513363 23.6835833M16.7595732 24.3963879L17.466935 24.0980046M16.1199126 24.5716289L16.7595732 24.3963879M15.5502879 24.6332L16.1199126 24.5716289M15.4592413 24.6237276L15.5502879 24.6332M14.882613 24.5124258L15.4592413 24.6237276M14.4063694 24.2306194L14.882613 24.5124258M12.7558585 23.2644258L14.4063694 24.2306194M12.3846686 22.8263233L12.7558585 23.2644258M14.0351795 23.7925169L14.4063694 24.2306194M12.3846686 22.8263233L14.0351795 23.7925169M12.2632731 22.5610937L12.3846686 22.8263233M13.9137841 23.5320235L14.0351795 23.7925169M12.2632731 22.5610937L13.9137841 23.5320235M12.0788455 22.040107L12.2632731 22.5610937M13.7293564 23.0086687L13.9137841 23.5320235M12.0788455 22.040107L13.7293564 23.0086687M11.9387738 21.4007142L12.0788455 22.040107M13.5892848 22.3669077L13.7293564 23.0086687M11.9387738 21.4007142L13.5892848 22.3669077M11.8453927 20.6358109L11.9387738 21.4007142M13.4959037 21.6020045L13.5892848 22.3669077M11.8453927 20.6358109L13.4959037 21.6020045M11.8010367 19.7430291L11.8453927 20.6358109M13.4515477 20.7092227L13.4959037 21.6020045M11.8010367 19.7430291L13.4515477 20.7092227M11.7916986 19.2788773L11.8010367 19.7430291M13.4422095 20.2450709L13.4515477 20.7092227M5.19899282 21.6801525L3.71189878 22.5492531M6.85183832 22.6463461L3.71189878 24.4863765M5.19899282 21.6801525L6.85183832 22.6463461M6.03942273 21.1354846L5.19899282 21.6801525M7.6899337 22.1016781L6.85183832 22.6463461M6.03942273 21.1354846L7.6899337 22.1016781M6.71643572 20.5671354L6.03942273 21.1354846M8.36694669 21.5356971L7.6899337 22.1016781M6.71643572 20.5671354L8.36694669 21.5356971M7.23936989 19.9632644L6.71643572 20.5671354M8.88988085 20.929458L8.36694669 21.5356971M7.23936989 19.9632644L8.88988085 20.929458M7.41445945 19.7051392L7.23936989 19.9632644M9.06497042 20.6713327L8.88988085 20.929458M7.41445945 19.7051392L9.06497042 20.6713327M7.80666008 18.8928735L7.41445945 19.7051392M9.45717105 19.8590671L9.06497042 20.6713327M7.80666008 18.8928735L9.45717105 19.8590671M8.02377114 18.0356135L7.80666008 18.8928735M9.67428211 19.0018071L9.45717105 19.8590671M8.02377114 18.0356135L9.67428211 19.0018071M8.07046169 17.4151657L8.02377114 18.0356135M9.72097266 18.3813592L9.67428211 19.0018071M8.07046169 17.4151657L9.72097266 18.3813592M8.01443303 16.9557501L8.07046169 17.4151657M9.62759156 17.6069835L9.72097266 18.3813592M8.31091803 16.8326078L9.62759156 17.6069835M9.33577561 17.0646837L9.62759156 17.6069835M8.85019389 16.7994541L9.33577561 17.0646837M8.32025614 16.8302396L8.85019389 16.7994541M7.79732197 17.0457387L8.32025614 16.8302396M6.98957544 17.4838412L7.79732197 17.0457387M3.71189878 19.4020196L6.98957544 17.4838412M3.71189878 24.4863765L3.71189878 19.4020196M.459901924 17.6898677L.459901924 31.9246462M.459901924 31.9246462L2.11041289 32.8932079M2.11041289 18.6560613L2.11041289 32.8932079M.459901924 17.6898677L2.11041289 18.6560613M5.03791042 15.0067861L.459901924 17.6898677M6.68842139 15.9729796L2.11041289 18.6560613M5.03791042 15.0067861L6.68842139 15.9729796M5.86199864 14.5544749L5.03791042 15.0067861M7.51250961 15.5206684L6.68842139 15.9729796M5.86199864 14.5544749L7.51250961 15.5206684M6.53200804 14.2158335L5.86199864 14.5544749M8.18251901 15.1820271L7.51250961 15.5206684M6.53200804 14.2158335L8.18251901 15.1820271M6.8845217 14.0690099L6.53200804 14.2158335M8.53503267 15.0375716L8.18251901 15.1820271M6.8845217 14.0690099L8.53503267 15.0375716M7.59188354 13.855879L6.8845217 14.0690099M9.24239451 14.8220726L8.53503267 15.0375716M7.59188354 13.855879L9.24239451 14.8220726M8.1988607 13.8227253L7.59188354 13.855879M9.8517062 14.7889189L9.24239451 14.8220726M8.1988607 13.8227253L9.8517062 14.7889189M8.38328838 13.8511428L8.1988607 13.8227253M10.0361339 14.8173363L9.8517062 14.7889189M8.38328838 13.8511428L10.0361339 14.8173363M8.87587369 14.0737462L8.38328838 13.8511428M10.5263847 15.0423079L10.0361339 14.8173363M8.87587369 14.0737462L10.5263847 15.0423079M10.9279234 15.4827785L10.5263847 15.0423079M11.0119664 15.6248658L10.9279234 15.4827785M11.2430846 16.2287368L11.0119664 15.6248658M11.3574765 16.9604863L11.2430846 16.2287368M11.3738182 17.3488583L11.3574765 16.9604863M11.320124 18.2084864L11.3738182 17.3488583M11.152038 19.0752188L11.320124 18.2084864M10.8742293 19.9395832L11.152038 19.0752188M10.4890322 20.8039475L10.8742293 19.9395832M10.3886475 20.9981335L10.4890322 20.8039475M9.98944332 21.6375263L10.3886475 20.9981335M9.48985443 22.2532379L9.98944332 21.6375263M8.89688444 22.8523727L9.48985443 22.2532379M8.19652618 23.4349306L8.89688444 22.8523727M7.39811776 23.9938072L8.19652618 23.4349306M6.82615851 24.3442892L7.39811776 23.9938072M3.71189878 26.1701109L6.82615851 24.3442892M3.71189878 31.9554318L3.71189878 26.1701109M2.11041289 32.8932079L3.71189878 31.9554318M28.1870855 7.43590157L27.2065839 8.00898698M29.8375964 8.40209515L27.2065839 9.94137414M28.1870855 7.43590157L29.8375964 8.40209515M29.0251808 6.90781047L28.1870855 7.43590157M30.6756918 7.87400405L29.8375964 8.40209515M29.0251808 6.90781047L30.6756918 7.87400405M29.6158163 6.46260363L29.0251808 6.90781047M31.2663273 7.42879721L30.6756918 7.87400405M29.6158163 6.46260363L31.2663273 7.42879721M29.716201 6.37498313L29.6158163 6.46260363M31.366712 7.34354483L31.2663273 7.42879721M29.716201 6.37498313L31.366712 7.34354483M30.348858 5.63612922L29.716201 6.37498313M31.9993689 6.6023228L31.366712 7.34354483M30.348858 5.63612922L31.9993689 6.6023228M30.6406739 5.12224685L30.348858 5.63612922M32.2911849 6.08844043L31.9993689 6.6023228M30.6406739 5.12224685L32.2911849 6.08844043M30.902141 4.27682746L30.6406739 5.12224685M32.552652 5.24302104L32.2911849 6.08844043M30.902141 4.27682746L32.552652 5.24302104M30.9488315 3.69900581L30.902141 4.27682746M32.5993425 4.66756751L32.552652 5.24302104M30.9488315 3.69900581L32.5993425 4.66756751M30.9254863 3.53323731L30.9488315 3.69900581M32.4919542 3.92634548L32.5993425 4.66756751M31.4741002 3.32957886L32.4919542 3.92634548M32.3075266 3.58533598L32.4919542 3.92634548M31.835952 3.30826576L32.3075266 3.58533598M31.4834383 3.32721073L31.835952 3.30826576M30.9745113 3.50718797L31.4834383 3.32721073M30.2531423 3.86951056L30.9745113 3.50718797M29.6368271 4.21999255L30.2531423 3.86951056M27.2065839 5.64323358L29.6368271 4.21999255M27.2065839 9.94137414L27.2065839 5.64323358M28.5792861 13.7729948L27.2065839 14.575788M30.2297971 14.7415565L27.2065839 16.5105432M28.5792861 13.7729948L30.2297971 14.7415565M29.380029 13.2756892L28.5792861 13.7729948M31.03054 14.2442509L30.2297971 14.7415565M29.380029 13.2756892L31.03054 14.2442509M29.671845 13.0720308L29.380029 13.2756892M31.3223559 14.0382244L31.03054 14.2442509M29.671845 13.0720308L31.3223559 14.0382244M30.3651997 12.4207974L29.671845 13.0720308M32.0157106 13.3869909L31.3223559 14.0382244M30.3651997 12.4207974L32.0157106 13.3869909M30.6009869 12.1366228L30.3651997 12.4207974M32.2514979 13.1028164L32.0157106 13.3869909M30.6009869 12.1366228L32.2514979 13.1028164M31.0772305 11.3077803L30.6009869 12.1366228M32.730076 12.276342L32.2514979 13.1028164M31.0772305 11.3077803L32.730076 12.276342M31.2173022 10.9762432L31.0772305 11.3077803M32.8678132 11.9424368L32.730076 12.276342M31.2173022 10.9762432L32.8678132 11.9424368M31.4250752 10.114247L31.2173022 10.9762432M33.0755861 11.0828087L32.8678132 11.9424368M31.4250752 10.114247L33.0755861 11.0828087M31.455424 9.64535895L31.4250752 10.114247M33.105935 10.6115525L33.0755861 11.0828087M31.455424 9.64535895L33.105935 10.6115525M31.4040644 9.29250884L31.455424 9.64535895M32.9985467 9.86559425L33.105935 10.6115525M31.7985996 9.16226216L32.9985467 9.86559425M32.7604249 9.42749177L32.9985467 9.86559425M32.2841813 9.15752591L32.7604249 9.42749177M31.7985996 9.16226216L32.2841813 9.15752591M31.2383129 9.34697564L31.7985996 9.16226216M30.521613 9.6950895L31.2383129 9.34697564M30.012686 9.97215972L30.521613 9.6950895M27.2065839 11.6180042L30.012686 9.97215972M27.2065839 16.5105432L27.2065839 11.6180042M25.600429 19.13679L30.2297971 16.4252909M23.9475835 18.1705964L25.600429 19.13679M23.9475835 3.93344984L23.9475835 18.1705964M25.600429 4.89964342L25.600429 19.13679M23.9475835 3.93344984L25.600429 4.89964342M28.5092503 1.26220877L23.9475835 3.93344984M30.1620958 2.22840235L25.600429 4.89964342M28.5092503 1.26220877L30.1620958 2.22840235M29.3006551.840683139L28.5092503 1.26220877M30.9511661 1.80924484L30.1620958 2.22840235M29.3006551.840683139L30.9511661 1.80924484M29.9940098.554140436L29.3006551.840683139M31.6445207 1.52270214L30.9511661 1.80924484M29.9940098.554140436L31.6445207 1.52270214M30.5846452.40494878L29.9940098.554140436M32.2374907 1.37114236L31.6445207 1.52270214M30.5846452.40494878L32.2374907 1.37114236M30.7410586.388371929L30.5846452.40494878M32.3915696 1.35456551L32.2374907 1.37114236M30.7410586.388371929L32.3915696 1.35456551M31.3386976.442838724L30.7410586.388371929M32.9915431 1.4090323L32.3915696 1.35456551M31.3386976.442838724L32.9915431 1.4090323M31.8242794.708068334L31.3386976.442838724M33.4771249 1.67426191L32.9915431 1.4090323M31.8242794.708068334L33.4771249 1.67426191M33.7059086 1.90870594L33.4771249 1.67426191M34.0140662 2.47705511L33.7059086 1.90870594M34.168145 3.15196974L34.0140662 2.47705511M34.1821522 3.51192421L34.168145 3.15196974M34.0981092 4.35497547L34.1821522 3.51192421M33.8459802 5.25249353L34.0981092 4.35497547M33.7619372 5.4798332L33.8459802 5.25249353M33.3533949 6.31578009L33.7619372 5.4798332M32.8047809 7.13041389L33.3533949 6.31578009M32.4849507 7.52825831L32.8047809 7.13041389M33.1619636 7.44774218L32.4849507 7.52825831M32.7464177 7.20382566L33.1619636 7.44774218M33.7222502 7.54009892L33.1619636 7.44774218M32.8678132 7.04042528L33.7222502 7.54009892M34.1821522 7.82900974L33.7222502 7.54009892M34.5229932 8.30737029L34.1821522 7.82900974M34.7144244 8.93965874L34.5229932 8.30737029M34.7681186 9.63825458L34.7144244 8.93965874M34.7074209 10.4955146L34.7681186 9.63825458M34.5136551 11.3740877L34.7074209 10.4955146M34.4156049 11.7032565L34.5136551 11.3740877M34.0304079 12.6505052L34.4156049 11.7032565M33.575175 13.465139L34.0304079 12.6505052M33.5214809 13.5503913L33.575175 13.465139M32.9611943 14.265564L33.5214809 13.5503913M32.2841813 14.9499512L32.9611943 14.265564M32.1908002 15.0328354L32.2841813 14.9499512M31.583823 15.5254047L32.1908002 15.0328354M30.8904683 16.0108696L31.583823 15.5254047M30.2297971 16.4252909L30.8904683 16.0108696"/>
    </g>
    <g fill-rule="nonzero" stroke="#D9766C" stroke-width=".4" transform="translate(451.404 205.846)" stroke-linecap="round" stroke-linejoin="round">
      <path fill="#D9766C" d="M19.116378 13.1508616L19.6479482 15.2609169M23.6587456 10.7542747L23.5053186 10.150067M23.5053186 10.150067L23.1457727 10.1812117M19.5332654 10.4864301L17.4674257 10.6623978M13.8564682 10.9676161L11.3628929 11.1794003M7.75038561 11.4861759L.0480427822 12.1386579M20.2492578 27.2594236L26.22516 26.7517645M.0480427822 12.1386579L1.22896536 16.8228251M1.22896536 16.8228251L19.6479482 15.2609169"/>
      <path d="M11.4000873 12.5622262L11.4000873 12.5964854C11.3830398 13.186678 10.5461656 13.6569634 9.52951832 13.64762 8.51287105 13.6382766 7.70234282 13.1524188 7.71939026 12.5622262M17.5061699 12.0436665L17.5061699 12.0779257C17.4906723 12.6665611 16.6522482 13.1368465 15.635601 13.127503 14.6189537 13.1181596 13.8084255 12.6323019 13.8254729 12.0421093"/>
      <path fill="#D9766C" d="M19.6479482 15.2609169L19.6479482 24.8706229M1.22896536 26.432531L1.22896536 16.8228251M19.6479482 24.8706229L1.22896536 26.432531M.0480427822 21.7483639L.0480427822 12.1386579M1.22896536 26.432531L.0480427822 21.7483639M19.6479482 24.8706229L20.2492578 27.2594236M19.116378 11.1389121L19.116378 13.1508616M19.116378 11.1389121L25.0922802 10.6328103M25.0922802 10.6328103L26.22516 15.1301091M20.2492578 15.6377682L19.116378 11.1389121M26.22516 15.1301091L20.2492578 15.6377682M20.2492578 15.6377682L20.2492578 27.2594236M10.656199 2.76565189C11.262158 2.41371645 11.262158 1.84532516 10.656199 1.49494697 10.0502401 1.14456877 9.07078723 1.14301153 8.46482827 1.49494697 7.85886931 1.8468824 7.85886931 2.41527369 8.46482827 2.76565189 9.07078723 3.11603008 10.0502401 3.11758732 10.656199 2.76565189M22.4390788 1.76746334C23.0450378 1.41552791 23.0450378.847136614 22.4390788.496758419 21.8346696.144822987 20.853667.144822987 20.247708.496758419 19.6417491.84869385 19.6417491 1.41708514 20.247708 1.76746334 20.853667 2.11784153 21.8346696 2.11784153 22.4390788 1.76746334M16.7622817 2.24864939C17.3666909 1.89671396 17.3666909 1.32832267 16.7622817.977944473 16.1563227.626009042 15.1753201.626009042 14.5693611.977944473 13.9649519 1.3298799 13.9649519 1.8982712 14.5693611 2.24864939 15.1753201 2.59902759 16.1578725 2.59902759 16.7622817 2.24864939M11.1102808 2.1162843L11.4000873 12.5622262M8.01074649 2.1162843L7.71939026 12.5622262M22.8931606 1.11653851L23.1628201 10.7963201M19.7936263 1.11653851L19.5162179 11.1046529M17.2163635 1.59772457L17.5061699 12.0436665M14.1168291 1.59772457L13.8270227 12.0436665M26.22516 15.1301091L26.22516 26.7517645"/>
    </g>
    <g stroke="#4DA6B2" stroke-width=".33" transform="translate(421.958 205.846)" stroke-linecap="round" stroke-linejoin="round">
      <path d="M33.0487849 4.35052926L32.7517461 4.50041326M19.9790817 7.77255629L25.2925692 7.29954573M32.7517461 4.50041326L33.0192655 5.61189076M33.3163042 5.46200675L33.0192655 5.61189076M33.0487849 4.35052926L33.3163042 5.46200675M33.2960096 4.16366088L33.0487849 4.35052926M33.561684 5.27513838L33.3163042 5.46200675M33.2960096 4.16366088L33.561684 5.27513838M33.4934204 3.9378616L33.2960096 4.16366088M33.7590948 5.05128565L33.561684 5.27513838M33.4934204 3.9378616L33.7590948 5.05128565M33.4989553 3.92812888L33.4934204 3.9378616M33.7646297 5.03960637L33.7590948 5.05128565M33.4989553 3.92812888L33.7646297 5.03960637M33.6483972 3.66923832L33.4989553 3.92812888M33.9140715 4.78071582L33.7646297 5.03960637M33.6483972 3.66923832L33.9140715 4.78071582M33.703746 3.48820959L33.6483972 3.66923832M33.9989397 4.51014599L33.9140715 4.78071582M33.7683196 3.55244559L33.9989397 4.51014599M34.0229242 4.27266743L33.9989397 4.51014599M33.893777 3.73347432L34.0229242 4.27266743M33.9915599 3.99236488L34.0229242 4.27266743M33.9011568 3.7451536L33.9915599 3.99236488M33.751715 3.52908704L33.9011568 3.7451536M33.5395445 3.34416522L33.751715 3.52908704M33.3218391 3.22737249L33.5395445 3.34416522M33.0690794 3.14561757L33.3218391 3.22737249M32.7794206 3.09306084L33.0690794 3.14561757M32.4454826 3.07554193L32.7794206 3.09306084M32.0709556 3.08722121L32.4454826 3.07554193M28.9252972 3.36752376L32.0709556 3.08722121M28.9252972 6.1355115L28.9252972 3.36752376M31.38832 4.78071582L28.9252972 4.99872892M31.6558394 5.89219331L28.9252972 6.1355115M31.38832 4.78071582L31.6558394 5.89219331M31.7739169 4.73594527L31.38832 4.78071582M32.0414362 5.84742277L31.6558394 5.89219331M31.7739169 4.73594527L32.0414362 5.84742277M32.1170796 4.681442L31.7739169 4.73594527M32.3845989 5.79291949L32.0414362 5.84742277M32.1170796 4.681442L32.3845989 5.79291949M32.4178082 4.61136636L32.1170796 4.681442M32.6834826 5.72284385L32.3845989 5.79291949M32.4178082 4.61136636L32.6834826 5.72284385M32.6797927 4.5276649L32.4178082 4.61136636M32.947312 5.63914239L32.6834826 5.72284385M32.6797927 4.5276649L32.947312 5.63914239M32.7517461 4.50041326L32.6797927 4.5276649M33.0192655 5.61189076L32.947312 5.63914239M35.8512805 9.05727634L34.1797459 6.92775553M34.1797459 6.92775553L34.4472652 8.03923303M36.1187998 10.1707004L34.4472652 8.03923303M35.8512805 9.05727634L36.1187998 10.1707004M34.5192187 10.3127982L36.1187998 10.1707004M33.2498856 8.68548615L34.5192187 10.3127982M33.0340252 8.41686286L33.2498856 8.68548615M32.8329244 8.17354467L33.0340252 8.41686286M32.6502733 7.96137121L32.8329244 8.17354467M32.4842268 7.77255629L32.6502733 7.96137121M32.3310951 7.61293956L32.4842268 7.77255629M32.0875602 7.38324719L32.3310951 7.61293956M31.8643199 7.21000464L32.0875602 7.38324719M31.6890487 7.11073081L31.8643199 7.21000464M31.3975448 7.00172426L31.6890487 7.11073081M31.106041 6.93943481L31.3975448 7.00172426M30.8551263 6.93359517L31.106041 6.93943481M30.4879791 6.95500717L30.8551263 6.93359517M28.9252972 7.0932119L30.4879791 6.95500717M28.9252972 10.8111139L28.9252972 7.0932119M27.6522742 10.9240135L28.9252972 10.8111139M27.3865998 9.81253601L27.6522742 10.9240135M27.3865998 1.44239024L27.3865998 9.81253601M27.6522742 2.55386773L27.6522742 10.9240135M27.3865998 1.44239024L27.6522742 2.55386773M31.6466146 1.06281386L27.3865998 1.44239024M31.9141339 2.17429135L27.6522742 2.55386773M31.6466146 1.06281386L31.9141339 2.17429135M32.0451261 1.03361568L31.6466146 1.06281386M32.3126455 2.14703972L31.9141339 2.17429135M32.0451261 1.03361568L32.3126455 2.14703972M32.4122733 1.01804331L32.0451261 1.03361568M32.6779477 2.12952081L32.3126455 2.14703972M32.4122733 1.01804331L32.6779477 2.12952081M32.7480562 1.01609677L32.4122733 1.01804331M33.0137306 2.12952081L32.6779477 2.12952081M32.7480562 1.01609677L33.0137306 2.12952081M33.0487849 1.03166913L32.7480562 1.01609677M33.3163042 2.14314663L33.0137306 2.12952081M33.0487849 1.03166913L33.3163042 2.14314663M33.3218391 1.06086731L33.0487849 1.03166913M33.5875134 2.17234481L33.3163042 2.14314663M33.3218391 1.06086731L33.5875134 2.17234481M33.559839 1.10174477L33.3218391 1.06086731M33.8255134 2.21322227L33.5875134 2.17234481M33.559839 1.10174477L33.8255134 2.21322227M33.5985832 1.11342404L33.559839 1.10174477M33.8642576 2.22490154L33.8255134 2.21322227M33.5985832 1.11342404L33.8642576 2.22490154M33.8808622 1.20296514L33.5985832 1.11342404M34.1483816 2.31444263L33.8642576 2.22490154M33.8808622 1.20296514L34.1483816 2.31444263M34.1354668 1.33338369L33.8808622 1.20296514M34.4029862 2.44486118L34.1483816 2.31444263M34.1354668 1.33338369L34.4029862 2.44486118M34.3660869 1.49689351L34.1354668 1.33338369M34.6317613 2.60837101L34.4029862 2.44486118M34.3660869 1.49689351L34.6317613 2.60837101M34.5690326 1.69544115L34.3660869 1.49689351M34.834707 2.80691865L34.6317613 2.60837101M34.5690326 1.69544115L34.834707 2.80691865M34.6649706 1.81612698L34.5690326 1.69544115M34.9324899 2.92760447L34.834707 2.80691865M34.6649706 1.81612698L34.9324899 2.92760447M34.8162574 2.0477659L34.6649706 1.81612698M35.0819318 3.15924339L34.9324899 2.92760447M34.8162574 2.0477659L35.0819318 3.15924339M34.9324899 2.29108409L34.8162574 2.0477659M35.1981643 3.40256158L35.0819318 3.15924339M34.9324899 2.29108409L35.1981643 3.40256158M35.0099783 2.54997464L34.9324899 2.29108409M35.2756527 3.66145214L35.1981643 3.40256158M35.0099783 2.54997464L35.2756527 3.66145214M35.3236217 3.93202197L35.2756527 3.66145214M35.3310015 4.1558747L35.3236217 3.93202197M35.3143969 4.44396344L35.3310015 4.1558747M35.259048 4.72231945L35.3143969 4.44396344M35.1686449 4.98704964L35.259048 4.72231945M35.0413426 5.24010056L35.1686449 4.98704964M34.8771411 5.48147221L35.0413426 5.24010056M34.6631257 5.72284385L34.8771411 5.48147221M34.4730947 5.89413986L34.6631257 5.72284385M34.2461645 6.05764968L34.4730947 5.89413986M33.9915599 6.20753369L34.2461645 6.05764968M33.7129708 6.34184533L33.9915599 6.20753369M33.4011724 6.46058461L33.7129708 6.34184533M33.0635445 6.56764461L33.4011724 6.46058461M32.6982423 6.65913225L33.0635445 6.56764461M32.6262888 6.67275807L32.6982423 6.65913225M32.9528469 6.79344389L32.6262888 6.67275807M32.9085678 6.60657552L32.9528469 6.79344389M33.2185213 6.91607626L32.9528469 6.79344389M33.1299631 6.54623261L33.2185213 6.91607626M33.3937925 7.02118972L33.2185213 6.91607626M33.2701802 6.50340861L33.3937925 7.02118972M33.607808 7.182753L33.3937925 7.02118972M33.4306918 6.44890533L33.607808 7.182753M33.8144436 7.36183519L33.607808 7.182753M33.5819786 6.39245551L33.8144436 7.36183519M33.7535599 6.44501224L33.6631568 6.36131079M34.0192343 7.55648974L33.8144436 7.36183519M33.7535599 6.44501224L34.0192343 7.55648974M33.9528157 6.65913225L33.7535599 6.44501224M34.220335 7.77060975L34.0192343 7.55648974M33.9528157 6.65913225L34.220335 7.77060975M34.1465366 6.88882462L33.9528157 6.65913225M34.4140559 8.00030212L34.220335 7.77060975M34.1465366 6.88882462L34.4140559 8.00030212M34.1797459 6.92775553L34.1465366 6.88882462M34.4472652 8.03923303L34.4140559 8.00030212M18.4422293 2.23658081L18.4422293 10.6067266M18.4422293 10.6067266L18.7097486 11.7201506M18.7097486 3.35000485L18.7097486 11.7201506M18.4422293 2.23658081L18.7097486 3.35000485M25.3866622 1.61952588L18.4422293 2.23658081M25.6541815 2.73100338L18.7097486 3.35000485M25.3866622 1.61952588L25.6541815 2.73100338M25.6541815 3.72179505L25.6541815 2.73100338M19.9790817 4.22595034L25.6541815 3.72179505M19.9790817 6.7895508L19.9790817 4.22595034M25.0268948 5.2031162L19.9790817 5.65276821M25.2925692 6.31654024L19.9790817 6.7895508M25.0268948 5.2031162L25.2925692 6.31654024M25.2925692 7.29954573L25.2925692 6.31654024M19.9790817 10.6203524L19.9790817 7.77255629M25.6117474 8.98136107L19.9790817 9.48356981M25.8774218 10.0947851L19.9790817 10.6203524M25.6117474 8.98136107L25.8774218 10.0947851M25.8774218 11.0816837L25.8774218 10.0947851M18.7097486 11.7201506L25.8774218 11.0816837M9.75799827 12.5162877L16.9275164 11.8778208M9.4923239 11.4048102L9.75799827 12.5162877M9.4923239 3.03466448L9.4923239 11.4048102M9.75799827 4.14614197L9.75799827 12.5162877M9.4923239 3.03466448L9.75799827 4.14614197M16.4367568 2.415663L9.4923239 3.03466448M16.7024312 3.5271405L9.75799827 4.14614197M16.4367568 2.415663L16.7024312 3.5271405M16.7024312 4.51793217L16.7024312 3.5271405M11.0291763 5.02403401L16.7024312 4.51793217M11.0291763 7.58568792L11.0291763 5.02403401M16.0751444 6.00119986L11.0291763 6.45085188M16.3426638 7.11267736L11.0291763 7.58568792M16.0751444 6.00119986L16.3426638 7.11267736M16.3426638 8.09568285L16.3426638 7.11267736M11.0291763 8.56869341L16.3426638 8.09568285M11.0291763 11.4164895L11.0291763 8.56869341M16.6599971 9.77944473L11.0291763 10.2797069M16.9275164 10.8909222L11.0291763 11.4164895M16.6599971 9.77944473L16.9275164 10.8909222M16.9275164 11.8778208L16.9275164 10.8909222M3.81168925 7.05817408L1.99809267 7.21973736M4.07736362 8.17159813L1.99809267 8.35651995M3.81168925 7.05817408L4.07736362 8.17159813M4.22127057 7.01535008L3.81168925 7.05817408M4.4887899 8.12682758L4.07736362 8.17159813M4.22127057 7.01535008L4.4887899 8.12682758M4.56812322 6.96279335L4.22127057 7.01535008M4.83564256 8.07427085L4.4887899 8.12682758M4.56812322 6.96279335L4.83564256 8.07427085M4.84486736 6.90439699L4.56812322 6.96279335M5.11238669 8.01587448L4.83564256 8.07427085M4.84486736 6.90439699L5.11238669 8.01587448M5.02382857 6.8537868L4.84486736 6.90439699M5.28950294 7.9652643L5.11238669 8.01587448M5.02382857 6.8537868L5.28950294 7.9652643M5.33562696 6.71558207L5.02382857 6.8537868M5.6031463 7.82705957L5.28950294 7.9652643M5.33562696 6.71558207L5.6031463 7.82705957M5.59207653 6.54039297L5.33562696 6.71558207M5.8577509 7.65381702L5.6031463 7.82705957M5.59207653 6.54039297L5.8577509 7.65381702M5.75812301 6.37104351L5.59207653 6.54039297M6.02379738 7.48446756L5.8577509 7.65381702M5.75812301 6.37104351L6.02379738 7.48446756M5.89834004 6.13161841L5.75812301 6.37104351M6.16585938 7.24504246L6.02379738 7.48446756M5.89834004 6.13161841L6.16585938 7.24504246M5.95553383 5.93891041L5.89834004 6.13161841M6.24703766 6.97252608L6.16585938 7.24504246M6.01088266 5.99146714L6.24703766 6.97252608M6.26548726 6.73115444L6.24703766 6.97252608M6.12896016 6.16276314L6.26548726 6.73115444M6.23412293 6.44695879L6.26548726 6.73115444M6.14925473 6.19390787L6.23412293 6.44695879M6.03486715 6.01482568L6.14925473 6.19390787M5.83561137 5.82406422L6.03486715 6.01482568M5.58100677 5.69364567L5.83561137 5.82406422M5.38175099 5.63914239L5.58100677 5.69364567M5.1640456 5.61578385L5.38175099 5.63914239M4.89283634 5.60605112L5.1640456 5.61578385M4.5644333 5.60994421L4.89283634 5.60605112M4.17330159 5.63330276L4.5644333 5.60994421M1.99809267 5.82795731L4.17330159 5.63330276M1.99809267 8.35651995L1.99809267 5.82795731M4.1253326 10.8948153L1.99809267 11.0836302M4.39100698 12.0062928L1.99809267 12.2204128M4.1253326 10.8948153L4.39100698 12.0062928M4.53306897 10.8539379L4.1253326 10.8948153M4.79874334 11.9654154L4.39100698 12.0062928M4.53306897 10.8539379L4.79874334 11.9654154M4.83748752 10.8111139L4.53306897 10.8539379M5.10500685 11.9225914L4.79874334 11.9654154M4.83748752 10.8111139L5.10500685 11.9225914M4.99061927 10.7780226L4.83748752 10.8111139M5.25629364 11.8895001L5.10500685 11.9225914M4.99061927 10.7780226L5.25629364 11.8895001M5.3245572 10.6768022L4.99061927 10.7780226M5.59207653 11.7902263L5.25629364 11.8895001M5.3245572 10.6768022L5.59207653 11.7902263M5.61052614 10.5502768L5.3245572 10.6768022M5.87804547 11.6617543L5.59207653 11.7902263M5.61052614 10.5502768L5.87804547 11.6617543M5.72491372 10.4840942L5.61052614 10.5502768M5.99058809 11.5975183L5.87804547 11.6617543M5.72491372 10.4840942L5.99058809 11.5975183M5.95922375 10.2952793L5.72491372 10.4840942M6.22674309 11.4067568L5.99058809 11.5975183M5.95922375 10.2952793L6.22674309 11.4067568M6.15663457 10.0558542L5.95922375 10.2952793M6.42230894 11.1673317L6.22674309 11.4067568M6.15663457 10.0558542L6.42230894 11.1673317M6.21013844 9.97409929L6.15663457 10.0558542M6.47581281 11.0855768L6.42230894 11.1673317M6.21013844 9.97409929L6.47581281 11.0855768M6.32637097 9.71715528L6.21013844 9.97409929M6.59204535 10.8286328L6.47581281 11.0855768M6.32637097 9.71715528L6.59204535 10.8286328M6.36327019 9.54975236L6.32637097 9.71715528M6.65292906 10.5502768L6.59204535 10.8286328M6.43337871 9.63345382L6.65292906 10.5502768M6.66399882 10.3673015L6.65292906 10.5502768M6.52378179 9.77749819L6.66399882 10.3673015M6.63632441 10.0811593L6.66399882 10.3673015M6.55330117 9.82616183L6.63632441 10.0811593M6.40570429 9.58868327L6.55330117 9.82616183M6.18615395 9.38818908L6.40570429 9.58868327M5.93523926 9.2480378L6.18615395 9.38818908M5.63635559 9.15849671L5.93523926 9.2480378M5.38728587 9.12345889L5.63635559 9.15849671M5.10131693 9.10788653L5.38728587 9.12345889M4.767379 9.11177962L5.10131693 9.10788653M4.39654186 9.12929853L4.767379 9.11177962M1.99809267 9.34341854L4.39654186 9.12929853M1.99809267 12.2204128L1.99809267 9.34341854M.730604522 13.320211L4.39100698 12.9951379M.463085189 12.2087336L.730604522 13.320211M.463085189 3.83858778L.463085189 12.2087336M.730604522 4.95006528L.730604522 13.320211M.463085189 3.83858778L.730604522 4.95006528M4.06629385 3.51740777L.463085189 3.83858778M4.33381319 4.62888527L.730604522 4.95006528M4.06629385 3.51740777L4.33381319 4.62888527M4.44451084 3.49404922L4.06629385 3.51740777M4.71018521 4.60552672L4.33381319 4.62888527M4.44451084 3.49404922L4.71018521 4.60552672M4.79320845 3.48820959L4.44451084 3.49404922M5.05888283 4.59968708L4.71018521 4.60552672M4.79320845 3.48820959L5.05888283 4.59968708M5.11423165 3.49599577L4.79320845 3.48820959M5.38175099 4.60941981L5.05888283 4.59968708M5.11423165 3.49599577L5.38175099 4.60941981M5.41127036 3.5271405L5.11423165 3.49599577M5.67878969 4.63861799L5.38175099 4.60941981M5.41127036 3.5271405L5.67878969 4.63861799M5.67694473 3.57191104L5.41127036 3.5271405M5.94446407 4.68338854L5.67878969 4.63861799M5.67694473 3.57191104L5.94446407 4.68338854M5.83561137 3.61084195L5.67694473 3.57191104M6.1031307 4.72231945L5.94446407 4.68338854M5.83561137 3.61084195L6.1031307 4.72231945M6.11973535 3.71790196L5.83561137 3.61084195M6.38725468 4.82937946L6.1031307 4.72231945M6.11973535 3.71790196L6.38725468 4.82937946M6.37802988 3.8522136L6.11973535 3.71790196M6.64554921 4.9636911L6.38725468 4.82937946M6.37802988 3.8522136L6.64554921 4.9636911M6.60680503 4.01961652L6.37802988 3.8522136M6.87247941 5.13304056L6.64554921 4.9636911M6.60680503 4.01961652L6.87247941 5.13304056M6.80421585 4.21621761L6.60680503 4.01961652M7.07173518 5.32769511L6.87247941 5.13304056M6.80421585 4.21621761L7.07173518 5.32769511M6.87801429 4.30186562L6.80421585 4.21621761M7.14553362 5.41528966L7.07173518 5.32769511M6.87801429 4.30186562L7.14553362 5.41528966M7.032991 4.54129072L6.87801429 4.30186562M7.30051034 5.65471476L7.14553362 5.41528966M7.032991 4.54129072L7.30051034 5.65471476M7.14737858 4.79044854L7.032991 4.54129072M7.41305295 5.90192604L7.30051034 5.65471476M7.14737858 4.79044854L7.41305295 5.90192604M7.21933206 5.0493391L7.14737858 4.79044854M7.48500643 6.16276314L7.41305295 5.90192604M7.21933206 5.0493391L7.48500643 6.16276314M7.51637076 6.42943988L7.48500643 6.16276314M7.51821573 6.48783625L7.51637076 6.42943988M7.49423123 6.76424571L7.51821573 6.48783625M7.42596768 7.03870863L7.49423123 6.76424571M7.31342506 7.30538537L7.42596768 7.03870863M7.1842778 7.52729156L7.31342506 7.30538537M7.00900651 7.75503738L7.1842778 7.52729156M6.79499105 7.96721085L7.00900651 7.75503738M6.5422314 8.1618654L6.79499105 7.96721085M6.25810742 8.33900104L6.5422314 8.1618654M6.17508418 8.38377159L6.25810742 8.33900104M6.49795234 8.45384723L6.17508418 8.38377159M6.79314609 8.55117451L6.49795234 8.45384723M7.05513054 8.67186033L6.79314609 8.55117451M7.28944057 8.81979779L7.05513054 8.67186033M7.49054131 8.99693343L7.28944057 8.81979779M7.51821573 9.02418507L7.49054131 8.99693343M7.81709939 9.46410436L7.68795213 9.23635853M7.91303736 9.71520873L7.81709939 9.46410436M7.96654123 9.98383201L7.91303736 9.71520873M7.98130091 10.2485622L7.96654123 9.98383201M7.96469627 10.5366509L7.98130091 10.2485622M7.91488232 10.815007L7.96469627 10.5366509M7.83001412 11.0855768L7.91488232 10.815007M7.70640174 11.350307L7.83001412 11.0855768M7.70086686 11.3639328L7.70640174 11.350307M7.53297541 11.6422888L7.70086686 11.3639328M7.34109948 11.8875535L7.53297541 11.6422888M7.13077393 12.0958339L7.34109948 11.8875535M6.99240186 12.2106801L7.13077393 12.0958339M6.7451771 12.3722434L6.99240186 12.2106801M6.46474304 12.5182343L6.7451771 12.3722434M6.15109969 12.6447598L6.46474304 12.5182343M5.94446407 12.7128888L6.15109969 12.6447598M5.67325481 12.7907507L5.94446407 12.7128888M5.3762161 12.8588798L5.67325481 12.7907507M5.05334794 12.913383L5.3762161 12.8588798M4.71018521 12.9620467L5.05334794 12.913383M4.39100698 12.9951379L4.71018521 12.9620467"/>
    </g>
    <g fill="#D9766C" fill-rule="nonzero" stroke="#D9766C" stroke-width=".4" transform="translate(483.361 85.374)" stroke-linecap="round" stroke-linejoin="round">
      <path d="M28.7800339 36.2879338L38.1582209 22.8216065M38.1582209 22.8216065L38.1582209 13.5880503M28.7800339 27.0543776L38.1582209 13.5880503M28.7800339 36.2879338L28.7800339 27.0543776M20.9088753 34.4432513L28.7800339 36.2879338M20.9088753 25.2096951L28.7800339 27.0543776M20.9088753 34.4432513L20.9088753 25.2096951M23.2134029 21.9028879L20.9088753 25.2096951M9.8534884 28.004976L20.9088753 30.5959362M9.8534884 28.004976L9.8534884 18.7714198M14.6283888 11.9187068L9.8534884 18.7714198M.130631797 17.7541636L9.8534884 20.033571M.130631797 8.52060741L14.6283888 11.9187068M.130631797 17.7541636L.130631797 8.52060741M5.57468159.704254286L.130631797 8.52060741M59.5248545 13.3504007L5.57468159.704254286M59.5248545 22.5839569L59.5248545 13.3504007M56.3838901 27.0935028L59.5248545 22.5839569M56.3838901 17.8599467L59.5248545 13.3504007M56.3838901 27.0935028L56.3838901 17.8599467M38.1582209 22.8216065L56.3838901 27.0935028M38.1582209 13.5880503L56.3838901 17.8599467M9.8534884 18.7714198L23.2134029 21.9028879"/>
    </g>
    <g stroke="#4DA6B2" transform="translate(481.92 57.841)">
      <path stroke-width=".33" d="M34.8575696.202871605L39.4556334 13.826622M34.8575696.202871605L31.7323518 4.70108837M36.3285836 18.3229945L31.7323518 4.70108837M39.4556334 13.826622L36.3285836 18.3229945M39.4556334 13.826622L54.3306444 17.3197022M51.2035946 21.8160747L36.3285836 18.3229945M54.3306444 17.3197022L51.2035946 21.8160747M40.5401169 26.1815028L41.9268636 25.6134623M44.8597322 24.4128312L51.2035946 21.8160747M43.5810675 26.0505584L44.0463695 27.4319296M44.8230942 29.7354444L45.3928145 31.4229673M45.8068234 32.6475741L46.8931389 35.8676998M43.767921 40.3640722L41.0750311 32.3856853M46.8931389 35.8676998L43.767921 40.3640722M31.7323518 29.7852402L43.767921 40.3640722M19.6986144 34.7113316L31.7323518 29.7852402M23.7489407 24.6120143L23.1187678 26.1796585M22.398832 27.9723058L19.6986144 34.7113316M12.259277 12.6702539L18.6196266 18.2602887M21.4975382 20.7906509L23.6078846 22.6441597M15.3863268 8.17388139L12.259277 12.6702539M15.3863268 8.17388139L29.0522852 11.3829413M27.134288 16.1633341L12.259277 12.6702539M23.1645653 26.0653127L20.1236148 25.4419436M20.1236148 25.4419436L19.436653 26.4304816M24.9213554 27.5536525L19.436653 26.4304816M25.5332093 26.6739275L24.9213554 27.5536525M24.9579933 28.4960834L24.9213554 27.5536525M25.5698472 27.6182026L24.9579933 28.4960834M18.2935488 27.1313107L24.9579933 28.4960834M17.9912856 19.1363252L18.2935488 27.1313107M18.6068033 18.249223L17.9912856 19.1363252M24.4487257 20.4586792L17.9912856 19.1363252M25.0587477 19.5807985L24.4487257 20.4586792M24.4835318 21.40111L24.4487257 20.4586792M25.0935538 20.5232293L24.4835318 21.40111M19.2058339 20.322202L24.4835318 21.40111M19.9862224 21.7791889L19.9367612 20.4715892M19.2992607 22.7658827L19.2058339 20.322202M19.9862224 21.7791889L19.2992607 22.7658827M23.4228629 22.4818624L19.9862224 21.7791889M24.2398894 23.7783964L19.2992607 22.7658827M24.8517433 22.8986713L24.2398894 23.7783964M24.2765273 24.7208272L24.2398894 23.7783964M24.8883812 23.8411022L24.2765273 24.7208272M19.3358987 23.7083135L24.2765273 24.7208272M20.1236148 25.4419436L20.0631621 23.8577007M19.436653 26.4304816L19.3358987 23.7083135M13.2063683 20.7556095L10.6673578 20.335112M10.6673578 20.335112L9.98222795 21.3218057M12.5194066 21.7441475L9.98222795 21.3218057M13.2063683 20.7556095L12.5194066 21.7441475M13.8200541 20.8312253L13.2063683 20.7556095M13.1349242 21.817919L12.5194066 21.7441475M13.8200541 20.8312253L13.1349242 21.817919M14.3091708 20.8275367L13.624041 21.8160747M14.4575545 20.8127824L13.7705928 21.8013204M14.5949469 20.7611423L14.4575545 20.8127824M14.2175759 21.6279574L13.7705928 21.8013204M14.5143434 21.2000827L14.2175759 21.6279574M14.4227485 21.4324629L14.2175759 21.6279574M14.5857874 21.015654L14.4227485 21.4324629M13.6587886 20.746388L13.6551833 21.015654M14.4648821 20.2594962L14.5949469 20.746388M14.1497957 19.8187115L14.4648821 20.2594962M14.0618646 19.73203L14.1497957 19.8187115M13.658847 19.4572312L14.0618646 19.73203M13.138588 19.2469825L13.658847 19.4572312M12.5743635 19.1197266L13.138588 19.2469825M9.75324071 18.6494334L12.5743635 19.1197266M10.6673578 20.335112L10.5354611 18.7803778M9.98222795 21.3218057L9.75324071 18.6494334M11.0538882 24.8407059L10.84322 22.3748937M10.3669265 25.8273996L10.0609996 22.2457936M11.0538882 24.8407059L10.3669265 25.8273996M9.18901616 25.6319051L10.3669265 25.8273996M8.50022254 17.5649924L9.18901616 25.6319051M9.18718426 16.5782987L8.50022254 17.5649924M13.1349242 17.234865L9.18718426 16.5782987M12.4479625 18.2215587L8.50022254 17.5649924M13.1349242 17.234865L12.4479625 18.2215587M13.7907437 17.3621208L13.1349242 17.234865M13.103782 18.3488145L12.4479625 18.2215587M13.7907437 17.3621208L13.103782 18.3488145M14.3494726 17.5096638L13.7907437 17.3621208M13.6643427 18.4963575L13.103782 18.3488145M14.3494726 17.5096638L13.6643427 18.4963575M14.8111108 17.6756497L14.3494726 17.5096638M14.1241491 18.6641877L13.6643427 18.4963575M14.8111108 17.6756497L14.1241491 18.6641877M14.9668222 17.7475769L14.8111108 17.6756497M14.2798604 18.7342706L14.1241491 18.6641877M14.9668222 17.7475769L14.2798604 18.7342706M15.4467794 18.0574171L14.9668222 17.7475769M14.7598177 19.0441108L14.2798604 18.7342706M15.4467794 18.0574171L14.7598177 19.0441108M15.8516288 18.4557832L15.4467794 18.0574171M15.1646671 19.4424769L14.7598177 19.0441108M15.8516288 18.4557832L15.1646671 19.4424769M16.0256591 18.6807862L15.8516288 18.4557832M15.3405293 19.6693242L15.1646671 19.4424769M16.0256591 18.6807862L15.3405293 19.6693242M16.2894524 19.1584567L16.0256591 18.6807862M15.6024907 20.1451504L15.3405293 19.6693242M16.2894524 19.1584567L15.6024907 20.1451504M16.4488276 19.6453485L16.2894524 19.1584567M15.7636977 20.6320422L15.6024907 20.1451504M16.4488276 19.6453485L15.7636977 20.6320422M16.4964569 19.9607216L16.4488276 19.6453485M15.8094952 20.9492596L15.7636977 20.6320422M16.4964569 19.9607216L15.8094952 20.9492596M16.4872974 20.4494578L15.8021676 21.4361515M16.3572327 20.8644224L16.4872974 20.4494578M15.670271 21.8529604L15.8021676 21.4361515M16.3572327 20.8644224L15.670271 21.8529604M15.4193009 22.1978422L15.670271 21.8529604M15.3222103 22.2937451L15.4193009 22.1978422M14.9924687 22.5095267L15.3222103 22.2937451M14.5711322 22.646004L14.9924687 22.5095267M14.0563689 22.723464L14.5711322 22.646004M14.0233947 23.0720344L13.4903124 22.7253083M14.2908518 22.6884226L14.0233947 23.0720344M14.2358949 23.2472416L14.0233947 23.0720344M14.6810461 22.6109625L14.2358949 23.2472416M15.3038914 22.6496926L15.0987188 22.4394438M14.6169297 23.6363863L14.2358949 23.2472416M15.3038914 22.6496926L14.6169297 23.6363863M15.6830942 23.0904772L15.3038914 22.6496926M14.9961325 24.0771709L14.6169297 23.6363863M15.6830942 23.0904772L14.9961325 24.0771709M15.9908531 23.4943761L15.6830942 23.0904772M15.3038914 24.4810699L14.9961325 24.0771709M15.9908531 23.4943761L15.3038914 24.4810699M17.7274923 25.9509669L15.9908531 23.4943761M17.0423625 26.9376606L15.3038914 24.4810699M17.7274923 25.9509669L17.0423625 26.9376606M15.562189 26.6923704L17.0423625 26.9376606M14.234063 24.8148859L15.562189 26.6923704M13.8457006 24.2726654L14.234063 24.8148859M13.5049676 23.8281922L13.8457006 24.2726654M13.2888037 23.5626148L13.5049676 23.8281922M12.8583077 23.0978544L13.2888037 23.5626148M12.6513032 22.9226471L12.8583077 23.0978544M12.1365399 22.6404711L12.6513032 22.9226471M11.5851386 22.498461L12.0907424 22.6220282M10.0609996 22.2457936L11.5851386 22.498461M5.04892689 19.3244425L4.36196517 20.3111362M4.80162067 20.287885L4.36196517 20.2871605M5.48675049 19.3262868L4.80162067 20.3129805M5.59849626 19.2894011L5.48675049 19.3262868M5.29073741 20.1543718L4.80162067 20.3129805M5.54720312 19.7855143L5.29073741 20.1543718M5.46476771 20.0049845L5.29073741 20.1543718M5.61315144 19.6047742L5.46476771 20.0049845M4.49569372 19.3281311L4.49785692 19.6047742M5.46659961 18.8301735L5.60765575 19.3281311M5.32187968 18.583039L5.46659961 18.8301735M4.91153454 18.2031158L5.32187968 18.583039M4.66789212 18.0777043L4.91153454 18.2031158M4.25754699 17.9486042L4.66789212 18.0777043M3.67500346 17.8250369L4.25754699 17.9486042M1.52618721 17.5096638L3.67500346 17.8250369M2.47877412 18.9703394L2.33222229 17.6276982M1.79364431 19.9570331L1.52618721 17.5096638M2.47877412 18.9703394L1.79364431 19.9570331M4.40226693 19.250671L2.47877412 18.9703394M3.71713711 20.239209L1.79364431 19.9570331M4.40226693 19.250671L3.71713711 20.239209M5.04892689 19.3244425L4.40226693 19.250671M4.36196517 20.3111362L3.71713711 20.239209M5.71573773 23.1070758L5.02877601 24.0937695M5.2156296 23.9779088L5.02877601 23.9757351M5.90259131 23.1107644L5.2156296 24.0993024M6.37338907 23.0462143L5.90259131 23.1107644M5.72672911 24.0273752L5.2156296 24.0993024M6.37522097 23.0923215L5.72672911 24.0273752M5.86961715 23.9757351L5.72672911 24.0273752M6.34591061 23.2896603L5.86961715 23.9757351M6.20485447 23.699092L5.86961715 23.9757351M6.267139 23.5884348L6.20485447 23.699092M6.37888477 23.1605601L6.267139 23.5884348M6.32759163 22.9337128L6.33263909 23.1605601M6.22683724 22.4357552L6.36606148 22.9337128M6.03082417 22.1074721L6.22683724 22.4357552M5.61681524 21.7275489L6.03082417 22.1074721M5.27608223 21.535743L5.61681524 21.7275489M4.82543534 21.3863557L5.27608223 21.535743M4.24105991 21.2554113L4.82543534 21.3863557M1.89806249 20.9123739L4.24105991 21.2554113M2.88911926 22.7087097L2.70409757 21.0304083M2.20398944 23.6972478L1.89806249 20.9123739M2.88911926 22.7087097L2.20398944 23.6972478M5.10205193 23.0333043L2.88911926 22.7087097M4.41509021 24.019998L2.20398944 23.6972478M5.10205193 23.0333043L4.41509021 24.019998M5.71573773 23.1070758L5.10205193 23.0333043M5.02877601 24.0937695L4.41509021 24.019998M4.93351732 25.0251346L5.4739272 25.0601761M4.51950839 24.9753389L4.93351732 25.0251346M1.13232916 24.4792256L4.51950839 24.9753389M.247522474 16.3828042L1.13232916 24.4792256M.932652291 15.3961105L.247522474 16.3828042M4.27037028 15.8848467L.932652291 15.3961105M3.58340856 16.8715404L.247522474 16.3828042M4.27037028 15.8848467L3.58340856 16.8715404M4.88771987 15.9973482L4.27037028 15.8848467M4.20259005 16.9840419L3.58340856 16.8715404M4.88771987 15.9973482L4.20259005 16.9840419M5.42446596 16.1485798L4.88771987 15.9973482M4.73750424 17.1371178L4.20259005 16.9840419M5.42446596 16.1485798L4.73750424 17.1371178M5.89159992 16.3403856L5.42446596 16.1485798M5.20463821 17.3289236L4.73750424 17.1371178M5.89159992 16.3403856L5.20463821 17.3289236M5.93006978 16.3643614L5.89159992 16.3403856M5.24310807 17.3510551L5.20463821 17.3289236M5.93006978 16.3643614L5.24310807 17.3510551M6.42285032 16.6834231L5.93006978 16.3643614M5.7358886 17.6719611L5.24310807 17.3510551M6.42285032 16.6834231L5.7358886 17.6719611M6.82953165 17.074412L6.42285032 16.6834231M6.14256994 18.06295L5.7358886 17.6719611M6.82953165 17.074412L6.14256994 18.06295M6.97974728 17.260685L6.82953165 17.074412M6.29278557 18.2473787L6.14256994 18.06295M6.97974728 17.260685L6.29278557 18.2473787M7.26185956 17.7457326L6.97974728 17.260685M6.57672974 18.7342706L6.29278557 18.2473787M7.26185956 17.7457326L6.57672974 18.7342706M7.42123468 18.2307801L7.26185956 17.7457326M6.73427296 19.2174739L6.57672974 18.7342706M7.42123468 18.2307801L6.73427296 19.2174739M7.44321745 18.3857003L7.42123468 18.2307801M6.75625574 19.372394L6.73427296 19.2174739M7.44321745 18.3857003L6.75625574 19.372394M7.42673037 18.8504607L6.74160055 19.8371544M7.26918715 19.2728025L7.42673037 18.8504607M6.58222544 20.2594962L6.74160055 19.8371544M7.26918715 19.2728025L6.58222544 20.2594962M6.54925127 20.3056034L6.58222544 20.2594962M6.26897089 20.6191322L6.54925127 20.3056034M5.86778525 20.8459796L6.26897089 20.6191322M5.70108254 20.906841L5.86778525 20.8459796M6.93028604 20.1894133L6.70679449 20.078756M6.24332432 21.176107L5.70108254 20.906841M6.93028604 20.1894133L6.24332432 21.176107M7.39192431 20.5176964L6.93028604 20.1894133M6.7049626 21.5043901L6.24332432 21.176107M7.39192431 20.5176964L6.7049626 21.5043901M7.71250644 20.8386024L7.39192431 20.5176964M7.02554473 21.8252961L6.7049626 21.5043901M7.71250644 20.8386024L7.02554473 21.8252961M8.0147696 21.2886085L7.71250644 20.8386024M7.32780788 22.2753022L7.02554473 21.8252961M8.0147696 21.2886085L7.32780788 22.2753022M8.20895078 21.7681232L8.0147696 21.2886085M7.52198906 22.7548169L7.32780788 22.2753022M8.20895078 21.7681232L7.52198906 22.7548169M8.2730672 22.125915L8.20895078 21.7681232M7.58793739 23.1126087L7.52198906 22.7548169M8.2730672 22.125915L7.58793739 23.1126087M8.16093167 22.6164954L8.15948953 22.125915M6.32831269 23.6031891L6.32759163 23.1126087M8.276731 22.6164954L7.58976928 23.6031891M8.17048092 23.0499029L8.276731 22.6164954M7.48351921 24.0365966L7.58976928 23.6031891M8.17048092 23.0499029L7.48351921 24.0365966M8.13017917 23.1458058L8.17048092 23.0499029M7.44504935 24.1324996L7.48351921 24.0365966M8.13017917 23.1458058L7.44504935 24.1324996M7.87737726 23.5367948L8.13017917 23.1458058M7.19224744 24.5234885L7.44504935 24.1324996M7.87737726 23.5367948L7.19224744 24.5234885M6.86800151 24.7909101L7.19224744 24.5234885M6.45216068 24.9605846L6.86800151 24.7909101M5.94289307 25.0491104L6.45216068 24.9605846M5.4739272 23.9800824L5.94289307 23.9757351M29.3508845 26.5761803L28.7390306 27.4559053M28.8416169 27.9501743L28.7390306 27.4559053M29.019311 27.6919741L28.8416169 27.9501743M28.8837506 28.1622673L28.8416169 27.9501743M29.0742679 27.5001682L28.8837506 28.1622673M29.2061646 27.0446292L29.0742679 27.5001682M29.2831043 26.8048719L29.2061646 27.0446292M28.3103665 25.8200225L28.3103665 25.8265433M30.9886012 21.8363618L29.2831043 26.7882733M31.5986232 20.9566368L30.9886012 21.8363618M32.4156497 22.1701779L30.9886012 21.8363618M33.0256717 21.2922971L32.4156497 22.1701779M33.6924826 26.478433L32.4156497 22.1701779M34.3025046 25.6005523L33.6924826 26.478433M33.8481939 27.0151206L33.6924826 26.478433M34.4600478 26.1353956L33.8481939 27.0151206M33.98925 27.5352097L33.8481939 27.0151206M34.599272 26.6554846L33.98925 27.5352097M34.1083234 28.0387001L33.98925 27.5352097M34.7183454 27.158975L34.1083234 28.0387001M34.2219011 28.5366577L34.1083234 28.0387001M34.833755 27.6569326L34.2219011 28.5366577M34.3153278 29.0106395L34.2219011 28.5366577M34.6157591 28.5790763L34.3153278 29.0106395M34.38494 29.4532685L34.3153278 29.0106395M34.4856943 29.045681L34.38494 29.4532685M34.6084315 28.615962L34.4856943 29.045681M34.7403282 28.1530459L34.6084315 28.615962M34.8355868 27.8339842L34.7403282 28.1530459M36.2351568 23.0683458L34.8355868 27.8339842M36.8470108 22.1886207L36.2351568 23.0683458M37.4240586 23.3468332L36.2351568 23.0683458M38.0359125 22.4689524L37.4240586 23.3468332M34.9729792 30.7000067L37.4240586 23.3468332M35.5848331 29.8202816L34.9729792 30.7000067M33.8372025 30.432585L34.9729792 30.7000067M31.9466839 23.9480708L33.8372025 30.432585M31.7579984 23.287816L31.9466839 23.9480708M31.6700673 22.954L31.7579984 23.287816M31.530843 23.4298261L31.6700673 22.954M31.7231923 23.1550273L31.530843 23.4298261M31.4044421 23.820815L31.530843 23.4298261M31.7634941 23.3044146L31.4044421 23.820815M29.5102596 29.4163827L31.4044421 23.820815M30.1202816 28.538502L29.5102596 29.4163827M28.3030389 29.1342068L29.5102596 29.4163827M25.9288992 20.6467965L28.3030389 29.1342068M26.5407531 19.7689158L25.9288992 20.6467965M27.1416156 20.9326611L25.9288992 20.6467965M27.7534695 20.052936L27.1416156 20.9326611M28.5045477 26.4489244L27.1416156 20.9326611M29.1164016 25.5691994L28.5045477 26.4489244M28.6272848 26.9524149L28.5045477 26.4489244M29.2373068 26.0745341L28.6272848 26.9524149M28.7390306 27.4559053L28.6272848 26.9524149M40.4631772 30.1209005L40.5199661 28.603052M39.7762155 31.1075942L39.8769699 28.4333776M40.4631772 30.1209005L39.7762155 31.1075942M45.9478796 31.5705103L40.4631772 30.1209005M45.2609178 32.557204L39.7762155 31.1075942M45.9478796 31.5705103L45.2609178 32.557204M45.9112416 32.4963425L45.9478796 31.5705103M45.2242799 33.4830363L45.2609178 32.557204M45.9112416 32.4963425L45.2242799 33.4830363M38.5616672 31.7217419L45.2242799 33.4830363M38.8584347 23.8669222L38.5616672 31.7217419M39.4702886 22.9890414L38.8584347 23.8669222M46.0010046 24.5880385L45.0502496 24.3353712M45.3140429 25.5747322L38.8584347 23.8669222M46.0010046 24.5880385L45.3140429 25.5747322M45.9661985 25.5138708L46.0010046 24.5880385M45.2810687 26.5005645L45.3140429 25.5747322M45.9661985 25.5138708L45.2810687 26.5005645M40.0033708 25.1062833L45.2810687 26.5005645M39.9117759 27.5075454L40.0033708 25.1062833M40.5987377 26.5208516L39.9117759 27.5075454M45.5393663 27.8266071L40.5987377 26.5208516M44.8542365 28.8151451L39.9117759 27.5075454M45.5393663 27.8266071L44.8542365 28.8151451M45.5063922 28.7524393L45.5393663 27.8266071M44.8194304 29.739133L44.8542365 28.8151451M45.5063922 28.7524393L44.8194304 29.739133M39.8769699 28.4333776L44.8194304 29.739133M51.6322588 29.6948701L49.1005758 28.949778M49.1005758 28.949778L48.415446 29.9364717M50.9471289 30.6815638L48.415446 29.9364717M51.6322588 29.6948701L50.9471289 30.6815638M52.2587678 29.8497902L51.6322588 29.6948701M51.5718061 30.8383282L50.9471289 30.6815638M52.2587678 29.8497902L51.5718061 30.8383282M52.7570441 29.912496L52.2587678 29.8497902M52.0719143 30.8991897L51.5718061 30.8383282M52.7570441 29.912496L52.0719143 30.8991897M52.9109235 29.9180289L52.2257937 30.9065669M53.2278418 29.8534788L52.9109235 29.9180289M52.7149104 30.8032868L52.2257937 30.9065669M53.2388332 30.0489733L52.7149104 30.8032868M52.9530571 30.6428338L52.7149104 30.8032868M53.1948677 30.272132L52.9530571 30.6428338M53.2461608 30.0157761L53.1948677 30.272132M53.1875401 29.5344171L53.2461608 30.0157761M52.938402 29.0733453L53.1875401 29.5344171M52.8614623 28.9774423L52.938402 29.0733453M52.4932508 28.6620692L52.8614623 28.9774423M51.9931426 28.390959L52.4932508 28.6620692M51.4344138 28.1936202L51.9931426 28.390959M48.6114591 27.3618467L51.4344138 28.1936202M49.1005758 28.949778L49.2086578 27.5388982M48.415446 29.9364717L48.6114591 27.3618467M47.4994971 26.1612156L46.9004665 33.9293538M48.1864588 25.1726776L47.4994971 26.1612156M52.1360307 26.3345786L48.1864588 25.1726776M51.4509009 27.3212723L47.4994971 26.1612156M52.1360307 26.3345786L51.4509009 27.3212723M52.7900182 26.5448274L52.1360307 26.3345786M52.1030565 27.5315211L51.4509009 27.3212723M52.7900182 26.5448274L52.1030565 27.5315211M53.3414195 26.7624533L52.7900182 26.5448274M52.6544578 27.749147L52.1030565 27.5315211M53.3414195 26.7624533L52.6544578 27.749147M53.7865707 26.9837678L53.3414195 26.7624533M53.1014409 27.9704615L52.6544578 27.749147M53.7865707 26.9837678L53.1014409 27.9704615M53.9349544 27.0722935L53.7865707 26.9837678M53.2479927 28.0589873L53.1014409 27.9704615M53.9349544 27.0722935L53.2479927 28.0589873M54.3764418 27.4319296L53.9349544 27.0722935M53.691312 28.4204676L53.2479927 28.0589873M54.3764418 27.4319296L53.691312 28.4204676M54.73183 27.8671814L54.3764418 27.4319296M54.0448683 28.8557194L53.691312 28.4204676M54.73183 27.8671814L54.0448683 28.8557194M54.8673905 28.1032502L54.73183 27.8671814M54.1822606 29.0899439L54.0448683 28.8557194M54.8673905 28.1032502L54.1822606 29.0899439M55.0634035 28.5919863L54.8673905 28.1032502M54.3764418 29.5805243L54.1822606 29.0899439M55.0634035 28.5919863L54.3764418 29.5805243M55.1531665 29.0807224L55.0634035 28.5919863M54.4662048 30.0674161L54.3764418 29.5805243M55.1531665 29.0807224L54.4662048 30.0674161M55.1476708 29.3868741L54.462541 30.3754121M55.0560759 29.847946L55.1476708 29.3868741M54.3709461 30.8346397L54.462541 30.3754121M55.0560759 29.847946L54.3709461 30.8346397M54.8527353 30.2260249L55.0560759 29.847946M54.1657736 31.2127186L54.3709461 30.8346397M54.8527353 30.2260249L54.1657736 31.2127186M53.8598466 31.5096488L54.1657736 31.2127186M53.744437 31.5889532L53.8598466 31.5096488M53.3652342 31.7457176L53.744437 31.5889532M52.9164192 31.8213334L53.3652342 31.7457176M51.7861382 31.7475619L52.3741774 31.825022M52.2770868 32.1514608L51.7861382 31.7475619M52.5042422 31.8231777L52.2770868 32.1514608M52.4694361 32.3469553L52.2770868 32.1514608M52.8339838 31.8213334L52.4694361 32.3469553M53.4898032 31.7826034L53.4366782 31.716209M52.8028415 32.7711414L52.4694361 32.3469553M53.4898032 31.7826034L52.8028415 32.7711414M53.8085535 32.2528966L53.4898032 31.7826034M53.1215918 33.2395903L52.8028415 32.7711414M53.8085535 32.2528966L53.1215918 33.2395903M54.0595235 32.6807713L53.8085535 32.2528966M53.3725618 33.667465L53.1215918 33.2395903M54.0595235 32.6807713L53.3725618 33.667465M55.4444383 35.2553964L54.0595235 32.6807713M54.7593085 36.2420901L53.3725618 33.667465M55.4444383 35.2553964L54.7593085 36.2420901M53.2718074 35.804994L54.7593085 36.2420901M52.2184661 33.8389837L53.2718074 35.804994M51.9015477 33.2690989L52.2184661 33.8389837M51.628595 32.80065L51.9015477 33.2690989M51.4509009 32.518474L51.628595 32.80065M51.0826894 32.0168278L51.4509009 32.518474M50.892172 31.8213334L51.0826894 32.0168278M50.4140466 31.4838288L50.892172 31.8213334M50.3645854 31.4598531L50.4140466 31.4838288M49.8644773 31.2717358L50.3645854 31.4598531M48.3458339 30.8254182L49.8644773 31.2717358M48.7671704 33.2893861L48.9430326 31.0006255M48.0802087 34.2760798L48.3458339 30.8254182M48.7671704 33.2893861L48.0802087 34.2760798M46.9004665 33.9293538L48.0802087 34.2760798M58.4945483 34.0344782L58.0585566 37.2693581M55.6660979 28.4813291L58.4945483 34.0344782M56.3530597 27.4927911L55.6660979 28.4813291M57.78194 27.9759943L56.3530597 27.4927911M57.0968102 28.9645323L55.6660979 28.4813291M57.78194 27.9759943L57.0968102 28.9645323M59.2236437 30.8678368L57.78194 27.9759943M58.536682 31.8563748L57.0968102 28.9645323M59.2236437 30.8678368L58.536682 31.8563748M59.4581266 31.3657944L59.2236437 30.8678368M58.7729968 32.3524881L58.536682 31.8563748M59.4581266 31.3657944L58.7729968 32.3524881M59.6871139 31.8582191L59.4581266 31.3657944M59.0001521 32.8467571L58.7729968 32.3524881M59.6871139 31.8582191L59.0001521 32.8467571M59.9032778 32.3487996L59.6871139 31.8582191M59.2163161 33.3373376L59.0001521 32.8467571M59.9032778 32.3487996L59.2163161 33.3373376M59.952739 32.4631454L59.9032778 32.3487996M59.2657773 33.4498391L59.2163161 33.3373376M59.952739 32.4631454L59.2657773 33.4498391M60.2476746 32.1772808L59.952739 32.4631454M59.5625448 33.1639746L59.2657773 33.4498391M60.2476746 32.1772808L59.5625448 33.1639746M60.58108 31.8858834L60.2476746 32.1772808M59.8959502 32.8725772L59.5625448 33.1639746M60.58108 31.8858834L59.8959502 32.8725772M60.9456277 31.568666L60.58108 31.8858834M60.258666 32.5553597L59.8959502 32.8725772M60.9456277 31.568666L60.258666 32.5553597M61.0995071 31.4395659L60.9456277 31.568666M60.4143773 32.4281039L60.258666 32.5553597M61.0995071 31.4395659L60.4143773 32.4281039M63.1219224 29.777863L61.0995071 31.4395659M62.4349607 30.7645568L60.4143773 32.4281039M63.1219224 29.777863L62.4349607 30.7645568M64.4885183 30.2389349L63.1219224 29.777863M63.8033884 31.2256286L62.4349607 30.7645568M64.4885183 30.2389349L63.8033884 31.2256286M59.6724587 34.4309999L63.8033884 31.2256286M59.9252606 36.6791862L60.2916402 33.9514852M59.2382989 37.6658799L59.6724587 34.4309999" stroke-linecap="round" stroke-linejoin="round"/>
      <path stroke-width=".3" d="M5.91349862,25.0589084 L5.54415466,25.0433648"/>
      <path stroke-width=".33" d="M59.9252606 36.6791862L59.2382989 37.6658799M58.0585566 37.2693581L59.2382989 37.6658799M31.7323518 4.70108837L27.134288 16.1633341" stroke-linecap="round" stroke-linejoin="round"/>
    </g>
    <g stroke="#F8F8F8" stroke-width=".5" transform="translate(343 201.295)" stroke-linecap="round" stroke-linejoin="round">
      <path d="M80.6224115 89.7112728L80.7233608 89.6156333M80.7233608 89.6156333L79.6186874 86.8609268M79.6186874 86.8609268L61.8256579 90.55319M61.5776111 90.7908396L61.8256579 90.55319M62.9288892 93.3078966L80.7233608 89.6156333M61.8256579 90.55319L62.9288892 93.3078966M62.6894952 93.5383007L61.5776111 90.7908396M62.6894952 93.5383007L62.9288892 93.3078966M80.6224115 89.7112728L62.6894952 93.5383007M60.5782134 91.5762425C59.7273553 90.3865454 58.2174426 89.9199408 57.2050657 90.535801 56.1926888 91.1502121 56.0614547 92.6152349 56.9123128 93.804932 57.7617288 94.994629 59.2716414 95.4612337 60.2840184 94.8453735 61.2963953 94.2295133 61.4276293 92.7673886 60.5782134 91.5762425"/>
      <path d="M60.3272823 94.8642116C59.47354 95.6858416 57.9535324 95.4989099 56.9296184 94.4439775 55.9057044 93.3875961 55.7672597 91.8675082 56.6195599 91.04298M57.4300383 83.717866C56.5806224 82.5281689 55.0707098 82.0615642 54.0583328 82.6774245 53.0459559 83.2932847 52.9147218 84.7568584 53.7641378 85.9465555 54.6149959 87.1362525 56.1249085 87.6028572 57.1358433 86.986997 58.1496624 86.3725858 58.2808965 84.9090121 57.4300383 83.717866"/>
      <path d="M57.1560332 87.0275713C56.3037329 87.8506504 54.7822833 87.6622696 53.7598114 86.6087863 52.7358974 85.5524049 52.5974527 84.0308679 53.4497529 83.2077888M77.5751858 81.7572568L76.4719545 79.0039993M77.4526045 81.8760816L77.5751858 81.7572568M58.4078041 82.9556484L58.6774829 82.6948134M76.4719545 79.0039993L58.6774829 82.6948134M58.6774829 82.6948134L59.7807142 85.44952M59.7807142 85.44952L77.5751858 81.7572568M59.5182461 85.7031095L58.4078041 82.9556484M59.5182461 85.7031095L59.7807142 85.44952M77.4526045 81.8760816L59.5182461 85.7031095M74.5149808 74.1176918L73.4117495 71.3644343M74.3707676 74.2582528L74.5149808 74.1176918M55.3259672 75.3378196L55.6187201 75.0552484M54.0756384 79.4097425C53.2233382 80.2313725 51.7018885 80.0444408 50.6779745 78.9895085 49.6555026 77.9345761 49.5156158 76.4130391 50.367916 75.5885109M51.1351304 68.002562C50.2857145 66.8128649 48.7758018 66.3462602 47.7634249 66.9621205 46.751048 67.5765316 46.6198139 69.0415544 47.470672 70.2312515 48.320088 71.4209485 49.8300006 71.8875532 50.8423776 71.271693 51.8547545 70.6558328 51.9859886 69.1937081 51.1351304 68.002562"/>
      <path d="M50.8164192 71.3557398C49.9641189 72.1788189 48.4426693 71.9904381 47.4201974 70.9355058 46.3977255 69.8805734 46.2578387 68.3575873 47.1101389 67.5345082M71.28172 66.0419528L70.1770466 63.2872463M71.1129905 66.2042501L71.28172 66.0419528M52.0681901 67.2838169L52.3840171 66.9795095M70.1770466 63.2872463L52.3840171 66.9795095M52.3840171 66.9795095L53.4872484 69.732767M53.4872484 69.732767L71.28172 66.0419528M53.178632 70.029829L52.0681901 67.2838169M53.178632 70.029829L53.4872484 69.732767M71.1129905 66.2042501L53.178632 70.029829M73.4117495 71.3644343L55.6187201 75.0552484M55.6187201 75.0552484L56.7219513 77.8085059M56.7219513 77.8085059L74.5149808 74.1176918M56.4378513 78.0838317L55.3259672 75.3378196M56.4378513 78.0838317L56.7219513 77.8085059M74.3707676 74.2582528L56.4378513 78.0838317M54.3712755 76.078301C53.5204174 74.8886039 52.0105048 74.4219992 50.99957 75.0378594 49.9871931 75.6537197 49.855959 77.1172934 50.705375 78.3069904 51.554791 79.4966875 53.0647036 79.9647413 54.0770805 79.348881 55.0894575 78.7330208 55.2206915 77.267998 54.3712755 76.078301M65.5016534 40.5815664L70.3573131 52.7045939M70.3573131 52.7045939L69.8626617 53.1827913M33.985292 47.1198284L33.2079826 47.8704534M33.985292 47.1198284L65.5016534 40.5815664M38.8409518 59.2428559L33.985292 47.1198284M70.3573131 52.7045939L38.8409518 59.2428559M38.0996957 59.9587029L33.2079826 47.8704534M38.8409518 59.2428559L38.0996957 59.9587029M69.8626617 53.1827913L38.0996957 59.9587029M41.6358044 11.5086163C41.631478 11.3347264 41.4858226 11.1680819 41.3113246 11.136202 41.294019 11.1333039 41.2767134 11.1318548 41.2594078 11.1304057M39.6961363 11.923054C39.6918099 11.7506132 39.5461545 11.5839686 39.3702144 11.5506397 39.3529088 11.5477416 39.3356032 11.5462925 39.3182976 11.5448434M37.7564682 12.3360427C37.7521418 12.1636018 37.6064865 11.9969573 37.4319884 11.9636284 37.4146828 11.9607302 37.3973773 11.9592811 37.3800717 11.957832M35.8168002 12.7504804C35.8124738 12.5780395 35.6668184 12.411395 35.4908782 12.3780661 35.4735726 12.3751679 35.4562671 12.3737188 35.4389615 12.3722697M33.8771321 13.163469C33.8728057 12.9910281 33.7271503 12.8243836 33.5526523 12.7910547 33.5353467 12.7881565 33.5180411 12.7867074 33.5007355 12.7852584M31.937464 13.5779067C31.9331376 13.4054658 31.7874822 13.2388213 31.6115421 13.2054924 31.5942365 13.2025942 31.5769309 13.2011452 31.5596253 13.2011452M29.9977959 13.9923444C29.9934695 13.8184545 29.8478142 13.6518099 29.6733162 13.6199301 29.6560106 13.6170319 29.638705 13.6141338 29.6213994 13.6141338M28.05957 14.4067821C28.0552436 14.2328922 27.9095882 14.0662476 27.7336481 14.0343678 27.7163425 14.0314697 27.6990369 14.0285715 27.6817313 14.0285715M29.028683 14.1995633C29.0243566 14.0271224 28.8787012 13.8604779 28.7042032 13.827149 28.6868976 13.8242508 28.669592 13.8228017 28.6522864 13.8213526M30.968351 13.7851256C30.9640246 13.6126847 30.8183693 13.4460402 30.6424291 13.4127113 30.6251235 13.4098131 30.6078179 13.408364 30.5905124 13.4069149M32.9080191 13.3721369C32.9036927 13.1996961 32.7580373 13.0330515 32.5835393 12.9997226 32.5662337 12.9968245 32.5489281 12.9953754 32.5316226 12.9939263M34.8476872 12.9576992C34.8433608 12.7838093 34.6977054 12.6171647 34.5217653 12.5852849 34.5044597 12.5823868 34.4871541 12.5794886 34.4698485 12.5794886M36.7873553 12.5432615C36.7830289 12.3693716 36.6373735 12.202727 36.4614333 12.1708472 36.4441277 12.1679491 36.4268222 12.1650509 36.4095166 12.1650509M38.7270233 12.1288238C38.7226969 11.9563829 38.5770416 11.7897384 38.4011014 11.7564095 38.3837958 11.7535113 38.3664902 11.7506132 38.3491846 11.7506132M40.6666914 11.7143861C40.662365 11.5419452 40.5167096 11.3753007 40.3407695 11.3419718 40.3234639 11.3390736 40.3061583 11.3376246 40.2888527 11.3361755"/>
      <path d="M27.7523958 14.2314431C27.6413516 14.0749421 27.6629836 13.8822141 27.798544 13.8039636 27.9355466 13.7242641 28.1345609 13.7880237 28.2456051 13.9445247 28.3566493 14.1024747 28.3350173 14.2937537 28.1994568 14.3720041 28.0624543 14.4517037 27.86344 14.387944 27.7523958 14.2314431M29.6920639 13.8170054C29.5824618 13.6605044 29.6026517 13.4677764 29.7396542 13.3895259 29.8752147 13.3098264 30.0756711 13.373586 30.1852732 13.530087 30.2963173 13.6865879 30.2746854 13.8793159 30.1391249 13.9575664 30.0035645 14.0358169 29.8031081 13.9749554 29.6920639 13.8170054M31.6317319 13.4040168C31.5206877 13.2475158 31.5423197 13.0547878 31.6778802 12.9765373 31.8134406 12.8982868 32.013897 12.9605974 32.1249412 13.1170983 32.2359854 13.2735993 32.2143534 13.4663273 32.0773509 13.5445778 31.9417904 13.6228283 31.7427761 13.5605177 31.6317319 13.4040168M33.5714 12.9895791C33.461798 12.8330781 33.4819878 12.6403501 33.6189904 12.5620996 33.7545508 12.4824 33.9550072 12.5461597 34.0646093 12.7026606 34.1756535 12.8591616 34.1540215 13.0518896 34.0184611 13.1301401 33.8829006 13.2083906 33.6810021 13.14608 33.5714 12.9895791M35.5110681 12.5751413C35.4000239 12.4186404 35.4216559 12.2259124 35.5572163 12.1476619 35.6927768 12.0694114 35.8932332 12.131722 36.0042774 12.2882229 36.1138794 12.4447239 36.0936896 12.6374519 35.956687 12.7157024 35.8211265 12.7954019 35.6206701 12.7330914 35.5110681 12.5751413M37.4507362 12.1621527C37.3411341 12.0056518 37.3613239 11.8129237 37.4983265 11.7346733 37.633887 11.6549737 37.8343434 11.7187334 37.9439454 11.8752343 38.0549896 12.0317353 38.0333576 12.2244633 37.8977972 12.3027138 37.7622368 12.3809642 37.5603382 12.3186537 37.4507362 12.1621527M39.3904042 11.7462659C39.27936 11.589765 39.300992 11.398486 39.4365525 11.3187865 39.5721129 11.2390869 39.7725693 11.3028466 39.8836135 11.4593475 39.9932156 11.6158485 39.9730257 11.8085765 39.8360231 11.886827 39.7004627 11.9679756 39.5000063 11.904216 39.3904042 11.7462659M41.3300723 11.3332773C41.2190281 11.1767764 41.2406601 10.9840483 41.3776627 10.9057979 41.5132231 10.8260983 41.7122374 10.8898579 41.8232816 11.047808 41.9343258 11.205758 41.9126938 11.397037 41.7771333 11.4752874 41.6415729 11.5535379 41.4396744 11.4897783 41.3300723 11.3332773M40.3595172 11.5404962C40.248473 11.3839952 40.270105 11.1912672 40.4056654 11.1130167 40.542668 11.0333171 40.7416823 11.0970768 40.8527265 11.2535777 40.9637707 11.4100787 40.9421387 11.6028067 40.8065782 11.6810572 40.6695757 11.7607568 40.4705614 11.6969971 40.3595172 11.5404962M38.4212913 11.9549339C38.3102471 11.7984329 38.331879 11.6057049 38.4674395 11.5274544 38.6029999 11.4477549 38.8034563 11.5115145 38.9130584 11.6680155 39.0241026 11.8245164 39.0024706 12.0172444 38.8669102 12.0954949 38.7313497 12.1737454 38.5308933 12.1114348 38.4212913 11.9549339M36.4801811 12.3679225C36.3691369 12.2114215 36.3907688 12.0186935 36.5263293 11.940443 36.6633319 11.8607435 36.8623461 11.9245031 36.9733903 12.0810041 37.0844345 12.237505 37.0628025 12.4302331 36.9272421 12.5084835 36.7902395 12.5881831 36.5912252 12.5258725 36.4801811 12.3679225M34.5419551 12.7823602C34.4309109 12.6258592 34.4525429 12.4331312 34.5881034 12.3548807 34.7236638 12.2766303 34.9241202 12.3389408 35.0337223 12.4968909 35.1447665 12.6533918 35.1231345 12.8446708 34.987574 12.9243703 34.8520136 13.0026208 34.6515572 12.9388612 34.5419551 12.7823602M32.6008449 13.1953488C32.4898007 13.0388479 32.5114327 12.8475689 32.6469931 12.7678694 32.7839957 12.6881698 32.98301 12.7519295 33.0940542 12.9098795 33.2050984 13.0678295 33.1834664 13.2591085 33.047906 13.3373589 32.9109034 13.4170585 32.7118891 13.3532989 32.6008449 13.1953488M30.662619 13.6112356C30.5515748 13.4532856 30.5732068 13.2620066 30.7087672 13.1837562 30.8443277 13.1040566 31.0447841 13.1678162 31.1558283 13.3243172 31.2654303 13.4808182 31.2452405 13.6735462 31.1082379 13.7517967 30.9726774 13.8300471 30.772221 13.7677366 30.662619 13.6112356M28.7229509 14.0242242C28.6119067 13.8677233 28.6335387 13.6749953 28.7705413 13.5967448 28.9061017 13.5170452 29.105116 13.5808049 29.2161602 13.7373058 29.3272044 13.8938068 29.3055724 14.0865348 29.1700119 14.1647853 29.0344515 14.2430358 28.832553 14.1821743 28.7229509 14.0242242M67.8206023 18.5149321L14.1920249 29.962687M68.7954838 17.5368012L67.8206023 18.5149321M13.9050405 29.2526364L68.7954838 17.5368012M54.9841818 130.800018L13.9050405 29.2526364M109.874625 119.084183L54.9841818 130.800018M108.612759 119.352263L67.8206023 18.5149321M68.7954838 17.5368012L109.874625 119.084183M84.4628101 142.862184L84.37484 142.950578M84.2666801 142.372394L84.4628101 142.862184M84.1513095 142.397029L84.37484 142.950578M84.37484 142.950578L87.021153 142.386885M89.265111 141.52613L88.6522047 142.144888M88.3882945 141.492801L88.6522047 142.144888M88.6522047 142.144888L82.4784359 143.462105M82.4784359 143.462105L83.0927843 142.843346M83.0927843 142.843346L84.0344968 142.421663M84.0344968 142.421663L88.8829459 141.387018M88.6031722 141.66814L89.265111 141.52613M88.6031722 141.66814L88.5224128 141.463819M87.021153 142.386885L87.109123 142.297042M86.9115509 141.807252L87.109123 142.297042M87.109123 142.297042L84.4628101 142.862184M88.6046143 141L88.6031722 141.0005M88.5238549 141.463819L88.6046143 141.666691M88.8829459 141.0005L88.884388 141M88.884388 141.385569L89.2665531 141.524681M89.2665531 141.524681L88.6046143 141.666691M107.658068 138.869961L61.4968517 148.723725M111.310989 135.196536L107.658068 138.869961M65.1483309 145.050299L111.310989 135.196536M61.4968517 148.723725L65.1483309 145.050299M97.8717571 139.703184C97.9294424 139.61334 98.1486465 139.493067 98.3591978 139.433654 98.5697492 139.372793 98.6923304 139.397427 98.6346451 139.485821 98.5755177 139.574215 98.3577557 139.695938 98.1457622 139.755351 97.9337688 139.814763 97.8126297 139.793027 97.8717571 139.703184M47.4749984 140.607411C47.4519243 140.549448 47.4894198 140.468299 47.5846005 140.374109M47.5846005 140.374109L1.51423901 26.4950316M1.51423901 26.4950316C1.42050041 26.589222 1.38300497 26.6703706 1.40607908 26.728334M61.3180273 148.82516C61.3829232 148.81067 61.4434928 148.777341 61.4968517 148.723725M61.4968517 148.723725C56.140772 149.865602 49.9122022 146.128417 47.5846005 140.374109M1.51423901 26.4950316C-.0519167662 22.620184.510514868 18.6395533 2.97656126 16.1587233M107.479243 138.971397C107.544139 138.956906 107.604709 138.923577 107.658068 138.869961M111.680175 136.716624C110.607228 137.79619 109.227108 138.535223 107.658068 138.869961M1.51423901 26.4950316L5.16571824 22.8216065M6.62804049 12.4852982C4.16199409 14.9661281 3.59956246 18.9467588 5.16571824 22.8216065M51.2346376 136.700684L47.5846005 140.374109M5.16571824 22.8216065L51.2346376 136.700684M5.8939951 22.4738266C5.62575847 22.5303408 5.29983655 22.6868418 5.16571824 22.8216065M51.2346376 136.700684C51.3687559 136.565919 51.6946778 136.409418 51.9629144 136.352904M51.9629144 136.352904L5.8939951 22.4738266M11.1029773 10.6087359C11.0135651 10.3855771 10.8664676 10.2537105 10.7381178 10.2812431M5.8939951 22.4738266C3.681764 17.0078859 6.01369209 11.695548 11.1029773 10.6087359M65.1483309 145.050299C65.2824492 144.914086 65.2968706 144.572102 65.1800578 144.285184M65.1800578 144.283735C60.0922147 145.369098 54.1737034 141.818845 51.9629144 136.351455M51.2346376 136.700684C53.5622393 142.456441 59.7922512 146.193626 65.1483309 145.050299M57.2656353.754972187C57.176223.531813422 57.0291255.399946878 56.9022179.427479453M11.1029773 10.6087359L57.2656353.754972187M111.310989 135.196536C111.445107 135.061771 111.460971 134.718338 111.342716 134.43142M111.342716 134.43142L65.1800578 144.283735M70.4827787 8.68725194C70.6471817 8.65247395 70.7582259 8.66116845 70.7784158 8.71188635M57.2656353.754972187C62.3534783-.331839982 68.2719897 3.21986219 70.4827787 8.68725194M116.847335 122.590964C116.825703 122.541695 116.714659 122.531551 116.551698 122.566329M116.551698 122.566329C118.762487 128.03227 116.430559 133.344608 111.342716 134.43142M111.310989 135.196536C112.880029 134.861798 114.26015 134.122765 115.331654 133.044648M70.4827787 8.68725194L116.551698 122.566329M56.6195599 91.04298L56.9051022 90.7676542M60.3272823 94.8642116L60.5839819 94.6149693M53.4497529 83.2077888L53.7569271 82.9092777M57.1560332 87.0275713L57.437249 86.7565928M50.367916 75.5885109L50.6981643 75.2697127M54.0756384 79.4097425L54.3770441 79.1170278M47.1101389 67.5345082L47.4634614 67.1939737M50.8164192 71.3557398L51.1423411 71.0398397M47.4749984 140.607411L1.40607908 26.728334"/>
      <path d="M47.4749984 140.607411C47.9119645 141.688427 48.5061231 142.72742 49.2257472 143.680916 49.9468134 144.632964 50.7933451 145.499515 51.729289 146.241446 52.6652329 146.983376 53.690589 147.599236 54.7620934 148.060045 55.8321557 148.520853 56.946924 148.826609 58.0559238 148.959925 59.1663658 149.091792 60.2710392 149.049768 61.3180273 148.82516M2.97656126 16.1572743C2.46893066 16.6673514 2.03196454 17.2455355 1.67431571 17.8773356 1.31666688 18.5091358 1.04121959 19.1902048.850858113 19.9060517.660496637 20.6218986.555220972 21.3681763.535031118 22.1303939.514841265 22.8926115.581179355 23.6678709.728276859 24.438783.875374364 25.2111442 1.10323128 25.9791581 1.40607908 26.728334M107.479243 138.971397L61.3180273 148.82516M107.479243 138.971397C107.800839 138.901841 108.116666 138.817794 108.425282 138.71346 108.73534 138.612024 109.036746 138.493199 109.329499 138.356986 109.62081 138.220772 109.90491 138.070067 110.178915 137.903423 110.451478 137.735329 110.715388 137.552745 110.966319 137.35422 111.21725 137.155696 111.455202 136.942681 111.680175 136.716624M6.62804049 12.4852982L2.97656126 16.1572743M6.62804049 12.4852982C6.84724461 12.2650376 7.07942792 12.0578188 7.3231483 11.8636416 7.56831081 11.6709136 7.82501037 11.4912273 8.09036273 11.327481 8.35715723 11.1637346 8.63548878 11.0159282 8.92103099 10.8826125 9.20801534 10.750746 9.50365248 10.6333703 9.80650028 10.5333835 10.1093481 10.4319477 10.4208487 10.3479009 10.7381178 10.2812431M56.9022179.427479453L10.7381178 10.2812431M56.9022179.427479453C57.9333426.207218854 59.027921.163746367 60.1340366.29561291 61.2415943.427479453 62.3578047.733235944 63.4321934 1.19694247 64.5080241 1.660649 65.5420331 2.28085647 66.4866298 3.03003233 67.4326686 3.77920818 68.2878531 4.65445425 69.01613 5.61519621 69.7429647 6.57738725 70.3400075 7.62507418 70.7798579 8.71188635M116.847335 122.590964C117.151625 123.344487 117.379482 124.11395 117.526579 124.884862 117.675119 125.655774 117.738573 126.426686 117.719825 127.183107 117.699635 127.93808 117.595802 128.675663 117.408325 129.379917 117.220847 130.084171 116.951169 130.750749 116.60073 131.36661 116.251734 131.983919 115.824863 132.547612 115.330212 133.044648M116.847335 122.590964L70.7784158 8.71188635M115.331654 133.043199L111.680175 136.716624"/>
    </g>
    <path fill="#FFBAB3" d="M6.5621984,22.3989792 L3.98576441,16.7409007 L0.321502727,16.7409007 L6.07983271,29.515444 L7.04027004,29.515444 C9.26459139,21.6683479 13.0347731,14.2699859 18.1146422,7.8827143 L17.622257,0.71878726 C12.5209177,7.11900315 8.77506893,14.471341 6.5621984,22.3989792 Z" transform="translate(474 184)"/>
  </g>
</svg>
