<svg class="svg-map" xmlns="http://www.w3.org/2000/svg" viewBox="0 0 329 254">
  <g fill="none" fill-rule="evenodd" transform="translate(-340 -99)">
    <g stroke="#9B9B9B" stroke-width=".2" transform="translate(412 149)" stroke-linecap="round" stroke-linejoin="round">
      <path d="M1.45740828 60.8654019L62.4546509 41.5559439M62.4546509 41.6731963L1.50018935 60.969785M62.4546509 41.5559439C64.0760533 40.9711121 66.8197456 40.8781682 68.5466746 41.3500374M68.5466746 41.4672897C66.8197456 40.9939907 64.0746272 41.0869346 62.4546509 41.6731963M68.5466746 41.3514673C73.4579408 42.6398131 80.3228757 41.830486 83.9749527 39.5340561M83.9749527 39.6513084C80.3228757 41.9477383 73.4579408 42.7556355 68.5466746 41.4687196M83.9749527 39.5340561L90.2708994 35.8906542M90.2708994 36.0064766L83.9749527 39.6513084M90.2708994 35.8906542C95.839568 32.666215 104.869225 32.666215 110.437893 35.8906542M110.437893 36.0064766C104.869225 32.7834673 95.839568 32.7834673 90.2708994 36.0064766M110.437893 35.8906542L125.398432 44.5501682M125.322852 44.6245234L110.437893 36.0064766M125.398432 44.5501682L74.9638343 92.9968318M74.9638343 92.9968318C74.831213 94.6140561 72.9574024 96.8833178 70.8668343 97.9571776M70.8668343 97.9571776L61.7245207 103.249262M61.7245207 103.249262L5.42749112 70.6588318M83.1820769 95.2718131L102.336586 76.2368972M102.336586 76.3541495L83.1820769 95.3890654M102.336586 76.2368972C103.659947 74.7984112 106.92842 73.9132991 109.684947 74.2450374M109.684947 74.3622897C106.926994 74.0291215 103.659947 74.9156636 102.336586 76.3541495M109.684947 74.2450374L174.961722 80.6324299M174.961722 80.7496822L109.684947 74.3622897M174.961722 80.6324299C177.002379 80.8998224 179.797408 80.3821963 181.192071 79.4813551M181.193497 79.5971776C179.797408 80.4994486 177.003805 81.0156449 174.963148 80.7496822M181.193497 79.4813551L240.495183 45.1492991M240.495183 45.2665514L181.193497 79.5971776M240.495183 45.1492991L236.763249 42.9887103M236.763249 42.9887103L179.71042 76.0181215M179.71042 76.0181215C178.314331 76.9189626 175.520728 77.4351589 173.480071 77.1691963M173.480071 77.1691963L118.018698 71.7427009M118.018698 71.7427009C117.335627 71.6940841 116.197651 71.4552897 115.617254 71.2393738 112.214734 70.0911589 111.063923 67.564514 113.046112 65.5955327M113.046112 65.712785C112.487107 66.2046729 112.036479 67.1441215 112.077834 67.7318131M113.046112 65.5955327L133.994574 44.7789533M133.994574 44.8947757L113.046112 65.712785M133.994574 44.7789533L133.504018 25.7511869M133.504018 25.7511869C133.254462 23.7936449 135.145385 21.0939813 137.67945 19.7913364M137.67945 19.9071589C135.226669 21.1683364 133.332893 23.790785 133.502592 25.6868411M137.67945 19.7899065L199.247107 4.10097196M199.247107 4.2182243L137.67945 19.9071589M199.247107 4.10097196L193.172195.584831776M193.172195.584831776L129.037675 17.7608692M129.037675 17.7608692C126.503609 19.0649439 124.61126 21.7646075 124.860817 23.7207196M124.862243 23.8394019C124.862243 23.8079439 124.860817 23.7478879 124.860817 23.7164299M124.862243 23.7221495L125.275793 39.795729M125.272941 39.7928692L124.862243 23.8394019M125.275793 39.795729L114.484982 33.5470374M114.484982 33.5470374C106.681716 29.0285327 94.028503 29.0285327 86.2252367 33.5470374M86.2252367 33.5470374L79.9292899 37.1918692M79.9292899 37.1918692C77.6604675 38.6117664 73.4394024 39.0679065 70.4375976 38.2171121M70.4375976 38.2171121C68.6607574 37.6909065 65.8272249 37.760972 64.1330947 38.3701121M64.1330947 38.3701121L24.1969704 51.0133458M24.1969704 51.0133458L21.1794793 49.266M21.1794793 49.266C18.394432 47.6544953 18.394432 45.0406262 21.1794793 43.4276916M21.1794793 43.5449439C19.9659231 44.1683832 19.0190355 45.4667383 19.0917633 46.404757M21.1794793 43.4291215L29.1838166 38.7933645M29.1838166 38.9106168L21.1794793 43.5449439M29.1838166 38.7933645L25.9952012 36.948785M25.9952012 36.948785L16.3537751 42.5311402M16.3537751 42.5311402C13.5687278 44.1426449 13.5687278 46.756514 16.3537751 48.3694486M16.3537751 48.485271C15.1145503 47.8489626 14.1676627 46.5248692 14.2660592 45.5668318M16.3537751 48.3680187L22.0793077 51.683972M21.9495385 51.7240093L16.3537751 48.485271M22.0793077 51.683972L.504816568 58.5132056M6.43142012 73.1354299L60.087432 104.19729M59.9861834 104.255916L6.49416568 73.287M60.087432 104.19729L26.829432 123.450981M29.1381834 129.146299L44.506568 120.249421M44.506568 120.366673L29.1766864 129.242103M44.506568 120.249421L97.3967988 150.868009M97.3967988 150.985262L44.506568 120.366673M97.3967988 150.868009L99.0353136 149.921411M99.0353136 150.037234L97.3967988 150.985262M99.0353136 149.921411L46.1450828 119.301393M46.1450828 119.301393L79.0850769 100.232159M79.0850769 100.347981L46.2449053 119.360019M79.0850769 100.232159C81.1742189 99.1582991 83.0494556 96.8876075 83.1820769 95.2718131M83.1820769 95.3890654C83.0494556 97.0048598 81.175645 99.2741215 79.0850769 100.347981M14.260355 45.4495794L14.260355 45.5668318M1.44172189 60.0580748L1.45740828 60.0560748M1.50018935 60.969785L1.44172189 60.9883738M125.398432 44.6674206L125.322852 44.6245234M74.9638343 93.1140841L125.398432 44.6674206M70.8668343 98.0744299C72.9559763 96.9991402 74.831213 94.7298785 74.9638343 93.1140841M61.7245207 103.366514L70.8668343 98.0744299M5.49023669 70.8104019L61.7245207 103.366514M236.763249 43.1059626L240.495183 45.2665514M236.721893 42.9887103L236.721893 43.1059626M179.71042 76.1353738L236.763249 43.1059626M173.480071 77.2864486C175.520728 77.5538411 178.315757 77.036215 179.71042 76.1353738M118.018698 71.8599533L173.480071 77.2864486M112.077834 67.7318131C111.966604 69.7265327 114.611899 71.5639626 118.018698 71.8599533M133.504018 25.8670093L133.994574 44.8947757M133.502592 25.6868411C133.502592 25.7325981 133.502592 25.8226822 133.504018 25.8670093M193.172195.702084112L199.247107 4.2182243M129.037675 17.8781215L193.172195.702084112M124.860817 23.715C124.66545 21.8003551 126.559225 19.1521682 129.039101 17.8766916M114.484982 33.6642897L125.275793 39.9115514M86.2252367 33.6642897C94.028503 29.147215 106.681716 29.147215 114.484982 33.6642897M79.9292899 37.3091215L86.2252367 33.6642897M70.4375976 38.3343645C73.4379763 39.1851589 77.6590414 38.7290187 79.9292899 37.3091215M64.1330947 38.4873645C65.8272249 37.8767944 68.6607574 37.8081589 70.4375976 38.3343645M24.1969704 51.1305981L64.1330947 38.4873645M21.1794793 49.3832523L24.1969704 51.1305981M19.0917633 46.4061869C18.9676982 47.384243 19.9131598 48.7326449 21.1794793 49.3832523M25.9952012 37.0646075L29.1838166 38.9106168M16.3537751 42.6469626L25.9952012 37.0646075M14.2646331 45.5668318C14.1662367 44.6087944 15.1131243 43.2847009 16.3523491 42.6469626M22.0793077 51.7997944L21.9495385 51.7240093M.546171598 58.6175888L22.0793077 51.7997944M60.087432 104.314542L59.9861834 104.255916M59.8934911 104.19729L59.8934911 104.314542M26.8679349 123.545355L60.087432 104.314542M46.1450828 119.418645L99.0353136 150.037234M46.2449053 119.360019L46.1450828 119.418645"/>
    </g>
    <g fill-rule="nonzero" stroke="#D9766C" stroke-width=".4" transform="translate(470.118 254.462)" stroke-linecap="round" stroke-linejoin="round">
      <path fill="#D9766C" d="M31.486053 22.5450551L32.8465223 21.7474287M27.082387 19.9584205L31.486053 22.5450551M31.486053 20.9481877L31.486053 22.5450551M32.9973328 21.833004L26.6093184 18.0822224M18.3353793 13.2238058L14.6143291 11.0392137M14.6143291 11.0392137L32.9973328.242194246M32.9973328.242194246L51.3819239 11.0392137M51.3819239 11.0392137L32.9973328 21.833004M32.9973328 7.29811995L32.9973328.242194246M32.9973328 7.29811995L14.6143291 11.0392137M32.9973328 7.29811995L51.3819239 11.0392137M32.8465223 21.7474287L23.4819853 27.2452381M25.0377144.3536036L28.9254498 2.6350734M1.36046927 14.2555533L25.0377144.3536036M23.4819853 27.2452381L1.36046927 14.2555533M23.4819853 30.4373582L47.1592305 16.5337939M1.36046927 17.4476735L23.4819853 30.4373582M47.1592305 13.5192828L47.1592305 16.5337939M1.36046927 14.2555533L1.36046927 17.4476735M23.4819853 27.2452381L23.4819853 30.4373582"/>
      <path d="M27.1268364 20.1376443C27.2935217 20.7996419 25.9457523 21.7215946 24.1185643 22.19791 22.2913762 22.6742253 20.6737354 22.5208356 20.5070502 21.858838M19.1830929 13.6000142C20.443551 13.8276768 22.5469603 13.3755809 23.8804424 12.5941008 25.2139246 11.8110061 25.2742488 10.9907749 24.0137907 10.7631123 22.7533326 10.5354497 20.6499232 10.9875456 19.3164411 11.7706404 17.982959 12.5537351 17.9242223 13.3723517 19.1830929 13.6000142"/>
      <path fill="#D9766C" d="M20.5070502 21.858838L18.2893424 13.0429675M27.1268364 20.1376443L24.9091287 11.3217737M32.9973328 7.29811995L32.9973328 21.833004"/>
    </g>
    <g stroke="#4DA6B2" stroke-width=".33" transform="translate(505.043 260.92)" stroke-linecap="round" stroke-linejoin="round">
      <path d="M11.7916986 11.0520231L11.7916986 19.2788773M11.7916986 19.2788773L13.4422095 20.2450709M13.4422095 12.0182167L13.4422095 20.2450709M11.7916986 11.0520231L13.4422095 12.0182167M13.4001881 10.1118789L11.7916986 11.0520231M15.050699 11.0780725L13.4422095 12.0182167M13.4001881 10.1118789L15.050699 11.0780725M15.050699 19.293086L15.050699 11.0780725M15.0740443 20.2805927L15.050699 19.293086M15.1510837 21.0739134L15.0740443 20.2805927M15.2818172 21.6635757L15.1510837 21.0739134M15.3518531 21.8411848L15.2818172 21.6635757M15.6810215 22.3408584L15.3518531 21.8411848M16.1829449 22.5871431L15.6810215 22.3408584M15.6319964 22.2650785L16.1829449 22.5871431M16.360369 22.6108243L16.1829449 22.5871431M15.5456189 22.1348318L16.360369 22.6108243M15.2934899 21.5996364L15.2678101 21.5996364M16.9440009 22.56583L16.360369 22.6108243M15.2934899 21.5996364L16.9440009 22.56583M15.9775065 21.3509836L15.2934899 21.5996364M17.6280174 22.3171772L16.9440009 22.56583M15.9775065 21.3509836L17.6280174 22.3171772M16.4560846 21.0975946L15.9775065 21.3509836M18.1065956 22.0637882L17.6280174 22.3171772M16.4560846 21.0975946L18.1065956 22.0637882M17.2778383 20.5647673L16.4560846 21.0975946M18.9283493 21.5309609L18.1065956 22.0637882M17.2778383 20.5647673L18.9283493 21.5309609M17.9688584 19.9774731L17.2778383 20.5647673M19.6193694 20.9436667L18.9283493 21.5309609M17.9688584 19.9774731L19.6193694 20.9436667M18.5314796 19.3593934L17.9688584 19.9774731M20.1819905 20.325587L19.6193694 20.9436667M18.5314796 19.3593934L20.1819905 20.325587M18.9843779 18.6868469L18.5314796 19.3593934M20.6348889 19.6530405L20.1819905 20.325587M18.9843779 18.6868469L20.6348889 19.6530405M19.2621867 18.0403497L18.9843779 18.6868469M20.9126977 19.0065433L20.6348889 19.6530405M19.2621867 18.0403497L20.9126977 19.0065433M19.4863013 17.2872871L19.2621867 18.0403497M21.1368123 18.2534807L20.9126977 19.0065433M19.4863013 17.2872871L21.1368123 18.2534807M19.631042 16.427659L19.4863013 17.2872871M21.281553 17.3938526L21.1368123 18.2534807M19.631042 16.427659L21.281553 17.3938526M19.715085 15.4401523L19.631042 16.427659M21.3679305 16.4063459L21.281553 17.3938526M19.715085 15.4401523L21.3679305 16.4063459M19.7384303 14.616046L19.715085 15.4401523M21.3912758 15.5822396L21.3679305 16.4063459M19.7384303 14.616046L21.3912758 15.5822396M19.7384303 6.39629622L19.7384303 14.616046M21.3912758 7.3624898L21.3912758 15.5822396M19.7384303 6.39629622L21.3912758 7.3624898M21.3399162 5.46088822L19.7384303 6.39629622M22.9904272 6.4270818L21.3912758 7.3624898M21.3399162 5.46088822L22.9904272 6.4270818M22.9904272 14.653936L22.9904272 6.4270818M22.9670819 15.6248658L22.9904272 14.653936M22.9063842 16.524752L22.9670819 15.6248658M22.7896578 17.3488583L22.9063842 16.524752M22.6285754 18.1090253L22.7896578 17.3488583M22.5842194 18.3008431L22.6285754 18.1090253M22.2830653 19.1699437L22.5842194 18.3008431M21.8675194 20.0343081L22.2830653 19.1699437M21.3445853 20.8702549L21.8675194 20.0343081M21.0901218 21.2183688L21.3445853 20.8702549M20.5508459 21.8672341L21.0901218 21.2183688M19.9368652 22.4616326L20.5508459 21.8672341M19.2505141 23.015773L19.9368652 22.4616326M18.4987962 23.5320235L19.2505141 23.015773M18.2513363 23.6835833L18.4987962 23.5320235M17.466935 24.0980046L18.2513363 23.6835833M16.7595732 24.3963879L17.466935 24.0980046M16.1199126 24.5716289L16.7595732 24.3963879M15.5502879 24.6332L16.1199126 24.5716289M15.4592413 24.6237276L15.5502879 24.6332M14.882613 24.5124258L15.4592413 24.6237276M14.4063694 24.2306194L14.882613 24.5124258M12.7558585 23.2644258L14.4063694 24.2306194M12.3846686 22.8263233L12.7558585 23.2644258M14.0351795 23.7925169L14.4063694 24.2306194M12.3846686 22.8263233L14.0351795 23.7925169M12.2632731 22.5610937L12.3846686 22.8263233M13.9137841 23.5320235L14.0351795 23.7925169M12.2632731 22.5610937L13.9137841 23.5320235M12.0788455 22.040107L12.2632731 22.5610937M13.7293564 23.0086687L13.9137841 23.5320235M12.0788455 22.040107L13.7293564 23.0086687M11.9387738 21.4007142L12.0788455 22.040107M13.5892848 22.3669077L13.7293564 23.0086687M11.9387738 21.4007142L13.5892848 22.3669077M11.8453927 20.6358109L11.9387738 21.4007142M13.4959037 21.6020045L13.5892848 22.3669077M11.8453927 20.6358109L13.4959037 21.6020045M11.8010367 19.7430291L11.8453927 20.6358109M13.4515477 20.7092227L13.4959037 21.6020045M11.8010367 19.7430291L13.4515477 20.7092227M11.7916986 19.2788773L11.8010367 19.7430291M13.4422095 20.2450709L13.4515477 20.7092227M5.19899282 21.6801525L3.71189878 22.5492531M6.85183832 22.6463461L3.71189878 24.4863765M5.19899282 21.6801525L6.85183832 22.6463461M6.03942273 21.1354846L5.19899282 21.6801525M7.6899337 22.1016781L6.85183832 22.6463461M6.03942273 21.1354846L7.6899337 22.1016781M6.71643572 20.5671354L6.03942273 21.1354846M8.36694669 21.5356971L7.6899337 22.1016781M6.71643572 20.5671354L8.36694669 21.5356971M7.23936989 19.9632644L6.71643572 20.5671354M8.88988085 20.929458L8.36694669 21.5356971M7.23936989 19.9632644L8.88988085 20.929458M7.41445945 19.7051392L7.23936989 19.9632644M9.06497042 20.6713327L8.88988085 20.929458M7.41445945 19.7051392L9.06497042 20.6713327M7.80666008 18.8928735L7.41445945 19.7051392M9.45717105 19.8590671L9.06497042 20.6713327M7.80666008 18.8928735L9.45717105 19.8590671M8.02377114 18.0356135L7.80666008 18.8928735M9.67428211 19.0018071L9.45717105 19.8590671M8.02377114 18.0356135L9.67428211 19.0018071M8.07046169 17.4151657L8.02377114 18.0356135M9.72097266 18.3813592L9.67428211 19.0018071M8.07046169 17.4151657L9.72097266 18.3813592M8.01443303 16.9557501L8.07046169 17.4151657M9.62759156 17.6069835L9.72097266 18.3813592M8.31091803 16.8326078L9.62759156 17.6069835M9.33577561 17.0646837L9.62759156 17.6069835M8.85019389 16.7994541L9.33577561 17.0646837M8.32025614 16.8302396L8.85019389 16.7994541M7.79732197 17.0457387L8.32025614 16.8302396M6.98957544 17.4838412L7.79732197 17.0457387M3.71189878 19.4020196L6.98957544 17.4838412M3.71189878 24.4863765L3.71189878 19.4020196M.459901924 17.6898677L.459901924 31.9246462M.459901924 31.9246462L2.11041289 32.8932079M2.11041289 18.6560613L2.11041289 32.8932079M.459901924 17.6898677L2.11041289 18.6560613M5.03791042 15.0067861L.459901924 17.6898677M6.68842139 15.9729796L2.11041289 18.6560613M5.03791042 15.0067861L6.68842139 15.9729796M5.86199864 14.5544749L5.03791042 15.0067861M7.51250961 15.5206684L6.68842139 15.9729796M5.86199864 14.5544749L7.51250961 15.5206684M6.53200804 14.2158335L5.86199864 14.5544749M8.18251901 15.1820271L7.51250961 15.5206684M6.53200804 14.2158335L8.18251901 15.1820271M6.8845217 14.0690099L6.53200804 14.2158335M8.53503267 15.0375716L8.18251901 15.1820271M6.8845217 14.0690099L8.53503267 15.0375716M7.59188354 13.855879L6.8845217 14.0690099M9.24239451 14.8220726L8.53503267 15.0375716M7.59188354 13.855879L9.24239451 14.8220726M8.1988607 13.8227253L7.59188354 13.855879M9.8517062 14.7889189L9.24239451 14.8220726M8.1988607 13.8227253L9.8517062 14.7889189M8.38328838 13.8511428L8.1988607 13.8227253M10.0361339 14.8173363L9.8517062 14.7889189M8.38328838 13.8511428L10.0361339 14.8173363M8.87587369 14.0737462L8.38328838 13.8511428M10.5263847 15.0423079L10.0361339 14.8173363M8.87587369 14.0737462L10.5263847 15.0423079M10.9279234 15.4827785L10.5263847 15.0423079M11.0119664 15.6248658L10.9279234 15.4827785M11.2430846 16.2287368L11.0119664 15.6248658M11.3574765 16.9604863L11.2430846 16.2287368M11.3738182 17.3488583L11.3574765 16.9604863M11.320124 18.2084864L11.3738182 17.3488583M11.152038 19.0752188L11.320124 18.2084864M10.8742293 19.9395832L11.152038 19.0752188M10.4890322 20.8039475L10.8742293 19.9395832M10.3886475 20.9981335L10.4890322 20.8039475M9.98944332 21.6375263L10.3886475 20.9981335M9.48985443 22.2532379L9.98944332 21.6375263M8.89688444 22.8523727L9.48985443 22.2532379M8.19652618 23.4349306L8.89688444 22.8523727M7.39811776 23.9938072L8.19652618 23.4349306M6.82615851 24.3442892L7.39811776 23.9938072M3.71189878 26.1701109L6.82615851 24.3442892M3.71189878 31.9554318L3.71189878 26.1701109M2.11041289 32.8932079L3.71189878 31.9554318M28.1870855 7.43590157L27.2065839 8.00898698M29.8375964 8.40209515L27.2065839 9.94137414M28.1870855 7.43590157L29.8375964 8.40209515M29.0251808 6.90781047L28.1870855 7.43590157M30.6756918 7.87400405L29.8375964 8.40209515M29.0251808 6.90781047L30.6756918 7.87400405M29.6158163 6.46260363L29.0251808 6.90781047M31.2663273 7.42879721L30.6756918 7.87400405M29.6158163 6.46260363L31.2663273 7.42879721M29.716201 6.37498313L29.6158163 6.46260363M31.366712 7.34354483L31.2663273 7.42879721M29.716201 6.37498313L31.366712 7.34354483M30.348858 5.63612922L29.716201 6.37498313M31.9993689 6.6023228L31.366712 7.34354483M30.348858 5.63612922L31.9993689 6.6023228M30.6406739 5.12224685L30.348858 5.63612922M32.2911849 6.08844043L31.9993689 6.6023228M30.6406739 5.12224685L32.2911849 6.08844043M30.902141 4.27682746L30.6406739 5.12224685M32.552652 5.24302104L32.2911849 6.08844043M30.902141 4.27682746L32.552652 5.24302104M30.9488315 3.69900581L30.902141 4.27682746M32.5993425 4.66756751L32.552652 5.24302104M30.9488315 3.69900581L32.5993425 4.66756751M30.9254863 3.53323731L30.9488315 3.69900581M32.4919542 3.92634548L32.5993425 4.66756751M31.4741002 3.32957886L32.4919542 3.92634548M32.3075266 3.58533598L32.4919542 3.92634548M31.835952 3.30826576L32.3075266 3.58533598M31.4834383 3.32721073L31.835952 3.30826576M30.9745113 3.50718797L31.4834383 3.32721073M30.2531423 3.86951056L30.9745113 3.50718797M29.6368271 4.21999255L30.2531423 3.86951056M27.2065839 5.64323358L29.6368271 4.21999255M27.2065839 9.94137414L27.2065839 5.64323358M28.5792861 13.7729948L27.2065839 14.575788M30.2297971 14.7415565L27.2065839 16.5105432M28.5792861 13.7729948L30.2297971 14.7415565M29.380029 13.2756892L28.5792861 13.7729948M31.03054 14.2442509L30.2297971 14.7415565M29.380029 13.2756892L31.03054 14.2442509M29.671845 13.0720308L29.380029 13.2756892M31.3223559 14.0382244L31.03054 14.2442509M29.671845 13.0720308L31.3223559 14.0382244M30.3651997 12.4207974L29.671845 13.0720308M32.0157106 13.3869909L31.3223559 14.0382244M30.3651997 12.4207974L32.0157106 13.3869909M30.6009869 12.1366228L30.3651997 12.4207974M32.2514979 13.1028164L32.0157106 13.3869909M30.6009869 12.1366228L32.2514979 13.1028164M31.0772305 11.3077803L30.6009869 12.1366228M32.730076 12.276342L32.2514979 13.1028164M31.0772305 11.3077803L32.730076 12.276342M31.2173022 10.9762432L31.0772305 11.3077803M32.8678132 11.9424368L32.730076 12.276342M31.2173022 10.9762432L32.8678132 11.9424368M31.4250752 10.114247L31.2173022 10.9762432M33.0755861 11.0828087L32.8678132 11.9424368M31.4250752 10.114247L33.0755861 11.0828087M31.455424 9.64535895L31.4250752 10.114247M33.105935 10.6115525L33.0755861 11.0828087M31.455424 9.64535895L33.105935 10.6115525M31.4040644 9.29250884L31.455424 9.64535895M32.9985467 9.86559425L33.105935 10.6115525M31.7985996 9.16226216L32.9985467 9.86559425M32.7604249 9.42749177L32.9985467 9.86559425M32.2841813 9.15752591L32.7604249 9.42749177M31.7985996 9.16226216L32.2841813 9.15752591M31.2383129 9.34697564L31.7985996 9.16226216M30.521613 9.6950895L31.2383129 9.34697564M30.012686 9.97215972L30.521613 9.6950895M27.2065839 11.6180042L30.012686 9.97215972M27.2065839 16.5105432L27.2065839 11.6180042M25.600429 19.13679L30.2297971 16.4252909M23.9475835 18.1705964L25.600429 19.13679M23.9475835 3.93344984L23.9475835 18.1705964M25.600429 4.89964342L25.600429 19.13679M23.9475835 3.93344984L25.600429 4.89964342M28.5092503 1.26220877L23.9475835 3.93344984M30.1620958 2.22840235L25.600429 4.89964342M28.5092503 1.26220877L30.1620958 2.22840235M29.3006551.840683139L28.5092503 1.26220877M30.9511661 1.80924484L30.1620958 2.22840235M29.3006551.840683139L30.9511661 1.80924484M29.9940098.554140436L29.3006551.840683139M31.6445207 1.52270214L30.9511661 1.80924484M29.9940098.554140436L31.6445207 1.52270214M30.5846452.40494878L29.9940098.554140436M32.2374907 1.37114236L31.6445207 1.52270214M30.5846452.40494878L32.2374907 1.37114236M30.7410586.388371929L30.5846452.40494878M32.3915696 1.35456551L32.2374907 1.37114236M30.7410586.388371929L32.3915696 1.35456551M31.3386976.442838724L30.7410586.388371929M32.9915431 1.4090323L32.3915696 1.35456551M31.3386976.442838724L32.9915431 1.4090323M31.8242794.708068334L31.3386976.442838724M33.4771249 1.67426191L32.9915431 1.4090323M31.8242794.708068334L33.4771249 1.67426191M33.7059086 1.90870594L33.4771249 1.67426191M34.0140662 2.47705511L33.7059086 1.90870594M34.168145 3.15196974L34.0140662 2.47705511M34.1821522 3.51192421L34.168145 3.15196974M34.0981092 4.35497547L34.1821522 3.51192421M33.8459802 5.25249353L34.0981092 4.35497547M33.7619372 5.4798332L33.8459802 5.25249353M33.3533949 6.31578009L33.7619372 5.4798332M32.8047809 7.13041389L33.3533949 6.31578009M32.4849507 7.52825831L32.8047809 7.13041389M33.1619636 7.44774218L32.4849507 7.52825831M32.7464177 7.20382566L33.1619636 7.44774218M33.7222502 7.54009892L33.1619636 7.44774218M32.8678132 7.04042528L33.7222502 7.54009892M34.1821522 7.82900974L33.7222502 7.54009892M34.5229932 8.30737029L34.1821522 7.82900974M34.7144244 8.93965874L34.5229932 8.30737029M34.7681186 9.63825458L34.7144244 8.93965874M34.7074209 10.4955146L34.7681186 9.63825458M34.5136551 11.3740877L34.7074209 10.4955146M34.4156049 11.7032565L34.5136551 11.3740877M34.0304079 12.6505052L34.4156049 11.7032565M33.575175 13.465139L34.0304079 12.6505052M33.5214809 13.5503913L33.575175 13.465139M32.9611943 14.265564L33.5214809 13.5503913M32.2841813 14.9499512L32.9611943 14.265564M32.1908002 15.0328354L32.2841813 14.9499512M31.583823 15.5254047L32.1908002 15.0328354M30.8904683 16.0108696L31.583823 15.5254047M30.2297971 16.4252909L30.8904683 16.0108696"/>
    </g>
    <g fill-rule="nonzero" stroke="#D9766C" stroke-width=".4" transform="translate(428.869 157.893)" stroke-linecap="round" stroke-linejoin="round">
      <path fill="#D9766C" d="M19.7323144 13.574587L20.2810119 15.752629M24.4210387 11.1007812L24.2626682 10.4771057M24.2626682 10.4771057L23.8915376 10.5092539M20.162634 10.8243065L18.0302323 11.005944M14.3029285 11.3209966L11.7290093 11.5396045M8.00010575 11.8562645L.0495907375 12.5297697M20.901696 28.1377318L27.0701439 27.6137157M.0495907375 12.5297697L1.26856306 17.3648624M1.26856306 17.3648624L20.2810119 15.752629"/>
      <path d="M11.7674021 12.9669855L11.7674021 13.0023486C11.7498054 13.6115574 10.8859667 14.0969956 9.83656273 14.0873511 8.78715874 14.0777066 7.95051501 13.5761944 7.96811172 12.9669855M18.0702249 12.4317176L18.0702249 12.4670807C18.0542278 13.0746821 17.1887895 13.5601203 16.1393855 13.5504758 15.0899815 13.5408313 14.2533378 13.0393191 14.2709345 12.4301102"/>
      <path fill="#D9766C" d="M20.2810119 15.752629L20.2810119 25.6719631M1.26856306 27.2841964L1.26856306 17.3648624M20.2810119 25.6719631L1.26856306 27.2841964M.0495907375 22.4491038L.0495907375 12.5297697M1.26856306 27.2841964L.0495907375 22.4491038M20.2810119 25.6719631L20.901696 28.1377318M19.7323144 11.4978118L19.7323144 13.574587M19.7323144 11.4978118L25.9007623 10.9754032M25.9007623 10.9754032L27.0701439 15.6176065M20.901696 16.1416225L19.7323144 11.4978118M27.0701439 15.6176065L20.901696 16.1416225M20.901696 16.1416225L20.901696 28.1377318M10.9995455 2.85476216C11.6250287 2.49148724 11.6250287 1.90478218 10.9995455 1.54311468 10.3740623 1.18144718 9.36305118 1.17983977 8.737568 1.54311468 8.11208483 1.90638959 8.11208483 2.49309466 8.737568 2.85476216 9.36305118 3.21642966 10.3740623 3.21803707 10.9995455 2.85476216M23.1620738 1.82441163C23.787557 1.46113671 23.787557.874431652 23.1620738.512764149 22.5381903.149489235 21.5255795.149489235 20.9000963.512764149 20.2746131.876039063 20.2746131 1.46274412 20.9000963 1.82441163 21.5255795 2.18607913 22.5381903 2.18607913 23.1620738 1.82441163M17.3023683 2.32110167C17.9262517 1.95782675 17.9262517 1.37112169 17.3023683 1.00945419 16.6768851.646179272 15.6642742.646179272 15.0387911 1.00945419 14.4149076 1.3727291 14.4149076 1.95943416 15.0387911 2.32110167 15.6642742 2.68276917 16.6784848 2.68276917 17.3023683 2.32110167M11.468258 2.18447172L11.7674021 12.9669855M8.26885555 2.18447172L7.96811172 12.9669855M23.6307863 1.15251378L23.9091343 11.1441813M20.4313838 1.15251378L20.1450373 11.4624487M17.7710807 1.64920381L18.0702249 12.4317176M14.5716783 1.64920381L14.2725342 12.4317176M27.0701439 15.6176065L27.0701439 27.6137157"/>
    </g>
    <g stroke="#4DA6B2" stroke-width=".33" transform="translate(398.475 157.893)" stroke-linecap="round" stroke-linejoin="round">
      <path d="M34.1136283 4.49070483L33.8070189 4.64541815M20.6228148 8.02299078L26.1075046 7.53473965M33.8070189 4.64541815L34.0831578 5.79270784M34.3897672 5.63799452L34.0831578 5.79270784M34.1136283 4.49070483L34.3897672 5.63799452M34.3688187 4.2978155L34.1136283 4.49070483M34.6430532 5.44510519L34.3897672 5.63799452M34.3688187 4.2978155L34.6430532 5.44510519M34.5725902 4.06474088L34.3688187 4.2978155M34.8468247 5.21403984L34.6430532 5.44510519M34.5725902 4.06474088L34.8468247 5.21403984M34.5783034 4.05469456L34.5725902 4.06474088M34.8525379 5.20198426L34.8468247 5.21403984M34.5783034 4.05469456L34.8525379 5.20198426M34.7325603 3.78746246L34.5783034 4.05469456M35.0067948 4.93475216L34.8525379 5.20198426M34.7325603 3.78746246L35.0067948 4.93475216M34.7896925 3.60060092L34.7325603 3.78746246M35.0943975 4.65546447L35.0067948 4.93475216M34.8563467 3.66690663L35.0943975 4.65546447M35.1191548 4.41033428L35.0943975 4.65546447M34.9858463 3.85376817L35.1191548 4.41033428M35.0867798 4.12100027L35.1191548 4.41033428M34.9934639 3.86582376L35.0867798 4.12100027M34.839207 3.64279546L34.9934639 3.86582376M34.6202003 3.45191539L34.839207 3.64279546M34.3954804 3.33135956L34.6202003 3.45191539M34.1345767 3.24697047L34.3954804 3.33135956M33.835585 3.19272035L34.1345767 3.24697047M33.4908875 3.17463697L33.835585 3.19272035M33.104293 3.18669256L33.4908875 3.17463697M29.8572804 3.47602656L33.104293 3.18669256M29.8572804 6.33319983L29.8572804 3.47602656M32.3996627 4.93475216L29.8572804 5.15978971M32.6758016 6.08204185L29.8572804 6.33319983M32.3996627 4.93475216L32.6758016 6.08204185M32.7976836 4.88853909L32.3996627 4.93475216M33.0738225 6.03582878L32.6758016 6.08204185M32.7976836 4.88853909L33.0738225 6.03582878M33.1519031 4.8322797L32.7976836 4.88853909M33.428042 5.97956939L33.0738225 6.03582878M33.1519031 4.8322797L33.428042 5.97956939M33.4623214 4.7599462L33.1519031 4.8322797M33.7365559 5.90723589L33.428042 5.97956939M33.4623214 4.7599462L33.7365559 5.90723589M33.732747 4.67354785L33.4623214 4.7599462M34.0088859 5.82083754L33.7365559 5.90723589M33.732747 4.67354785L34.0088859 5.82083754M33.8070189 4.64541815L33.732747 4.67354785M34.0831578 5.79270784L34.0088859 5.82083754M37.0064213 9.34910496L35.2810293 7.15097024M35.2810293 7.15097024L35.5571682 8.29825994M37.2825602 10.4984039L35.5571682 8.29825994M37.0064213 9.34910496L37.2825602 10.4984039M35.63144 10.6450802L37.2825602 10.4984039M34.3212086 8.96533555L35.63144 10.6450802M34.098393 8.68805713L34.3212086 8.96533555M33.8908128 8.43689915L34.098393 8.68805713M33.7022765 8.21788938L33.8908128 8.43689915M33.53088 8.02299078L33.7022765 8.21788938M33.3728143 7.85823114L33.53088 8.02299078M33.1214326 7.621138L33.3728143 7.85823114M32.8909995 7.44231351L33.1214326 7.621138M32.7100809 7.33984105L32.8909995 7.44231351M32.4091847 7.22732227L32.7100809 7.33984105M32.1082886 7.16302583L32.4091847 7.22732227M31.8492893 7.15699804L32.1082886 7.16302583M31.4703125 7.17909994L31.8492893 7.15699804M29.8572804 7.32175768L31.4703125 7.17909994M29.8572804 11.1594517L29.8572804 7.32175768M28.5432401 11.275989L29.8572804 11.1594517M28.2690056 10.1286994L28.5432401 11.275989M28.2690056 1.48886456L28.2690056 10.1286994M28.5432401 2.63615425L28.5432401 11.275989M28.2690056 1.48886456L28.5432401 2.63615425M32.6662796 1.09705809L28.2690056 1.48886456M32.9424185 2.24434778L28.5432401 2.63615425M32.6662796 1.09705809L32.9424185 2.24434778M33.0776313 1.06691913L32.6662796 1.09705809M33.3537702 2.21621809L32.9424185 2.24434778M33.0776313 1.06691913L33.3537702 2.21621809M33.4566081 1.05084502L33.0776313 1.06691913M33.7308426 2.19813471L33.3537702 2.21621809M33.4566081 1.05084502L33.7308426 2.19813471M33.8032101 1.04883576L33.4566081 1.05084502M34.0774446 2.19813471L33.7308426 2.19813471M33.8032101 1.04883576L34.0774446 2.19813471M34.1136283 1.06490987L33.8032101 1.04883576M34.3897672 2.21219956L34.0774446 2.19813471M34.1136283 1.06490987L34.3897672 2.21219956M34.3954804 1.09504883L34.1136283 1.06490987M34.6697149 2.24233852L34.3897672 2.21219956M34.3954804 1.09504883L34.6697149 2.24233852M34.6411488 1.13724337L34.3954804 1.09504883M34.9153833 2.28453306L34.6697149 2.24233852M34.6411488 1.13724337L34.9153833 2.28453306M34.6811413 1.14929895L34.6411488 1.13724337M34.9553758 2.29658865L34.9153833 2.28453306M34.6811413 1.14929895L34.9553758 2.29658865M34.9725155 1.24172509L34.6811413 1.14929895M35.2486544 2.38901479L34.9553758 2.29658865M34.9725155 1.24172509L35.2486544 2.38901479M35.2353235 1.37634578L34.9725155 1.24172509M35.5114624 2.52363547L35.2486544 2.38901479M35.2353235 1.37634578L35.5114624 2.52363547M35.4733743 1.54512394L35.2353235 1.37634578M35.7476088 2.69241364L35.5114624 2.52363547M35.4733743 1.54512394L35.7476088 2.69241364M35.682859 1.75006886L35.4733743 1.54512394M35.9570935 2.89735855L35.7476088 2.69241364M35.682859 1.75006886L35.9570935 2.89735855M35.7818881 1.87464323L35.682859 1.75006886M36.058027 3.02193292L35.9570935 2.89735855M35.7818881 1.87464323L36.058027 3.02193292M35.9380494 2.11374563L35.7818881 1.87464323M36.2122839 3.26103532L36.058027 3.02193292M35.9380494 2.11374563L36.2122839 3.26103532M36.058027 2.36490362L35.9380494 2.11374563M36.3322615 3.51219331L36.2122839 3.26103532M36.058027 2.36490362L36.3322615 3.51219331M36.1380121 2.63213572L36.058027 2.36490362M36.4122466 3.77942541L36.3322615 3.51219331M36.1380121 2.63213572L36.4122466 3.77942541M36.4617611 4.05871309L36.4122466 3.77942541M36.4693788 4.28977844L36.4617611 4.05871309M36.4522391 4.5871495L36.4693788 4.28977844M36.3951069 4.87447424L36.4522391 4.5871495M36.301791 5.14773413L36.3951069 4.87447424M36.170387 5.40893844L36.301791 5.14773413M36.0008948 5.65808716L36.170387 5.40893844M35.7799837 5.90723589L36.0008948 5.65808716M35.5838299 6.08405111L35.7799837 5.90723589M35.3495879 6.25282928L35.5838299 6.08405111M35.0867798 6.4075426L35.3495879 6.25282928M34.7992145 6.54618181L35.0867798 6.4075426M34.4773699 6.66874691L34.7992145 6.54618181M34.1288635 6.77925642L34.4773699 6.66874691M33.7517911 6.87369183L34.1288635 6.77925642M33.6775193 6.88775667L33.7517911 6.87369183M34.0145992 7.01233104L33.6775193 6.88775667M33.9688934 6.8194417L34.0145992 7.01233104M34.2888337 7.13891466L34.0145992 7.01233104M34.1974222 6.75715452L34.2888337 7.13891466M34.4697522 7.24741491L34.2888337 7.13891466M34.342157 6.71295071L34.4697522 7.24741491M34.6906634 7.41418382L34.4697522 7.24741491M34.5078404 6.65669132L34.6906634 7.41418382M34.9039569 7.5990361L34.6906634 7.41418382M34.6640017 6.59842267L34.9039569 7.5990361M34.8411114 6.6526728L34.7477955 6.56627445M35.1153459 7.79996249L34.9039569 7.5990361M34.8411114 6.6526728L35.1153459 7.79996249M35.0467873 6.87369183L34.8411114 6.6526728M35.3229262 8.02098152L35.1153459 7.79996249M35.0467873 6.87369183L35.3229262 8.02098152M35.24675 7.11078497L35.0467873 6.87369183M35.5228889 8.25807466L35.3229262 8.02098152M35.24675 7.11078497L35.5228889 8.25807466M35.2810293 7.15097024L35.24675 7.11078497M35.5571682 8.29825994L35.5228889 8.25807466M19.0364444 2.30864423L19.0364444 10.948479M19.0364444 10.948479L19.3125833 12.097778M19.3125833 3.45794318L19.3125833 12.097778M19.0364444 2.30864423L19.3125833 3.45794318M26.2046293 1.67170757L19.0364444 2.30864423M26.4807682 2.81899726L19.3125833 3.45794318M26.2046293 1.67170757L26.4807682 2.81899726M26.4807682 3.84171259L26.4807682 2.81899726M20.6228148 4.36211194L26.4807682 3.84171259M20.6228148 7.00831251L20.6228148 4.36211194M25.8332701 5.37076242L20.6228148 5.83490239M26.1075046 6.52006138L20.6228148 7.00831251M25.8332701 5.37076242L26.1075046 6.52006138M26.1075046 7.53473965L26.1075046 6.52006138M20.6228148 10.9625439L20.6228148 8.02299078M26.4369669 9.27074367L20.6228148 9.78913375M26.7112014 10.4200426L20.6228148 10.9625439M26.4369669 9.27074367L26.7112014 10.4200426M26.7112014 11.4387394L26.7112014 10.4200426M19.3125833 12.097778L26.7112014 11.4387394M10.0724044 12.9195669L17.4729269 12.2605284M9.7981699 11.7722772L10.0724044 12.9195669M9.7981699 3.13244243L9.7981699 11.7722772M10.0724044 4.27973212L10.0724044 12.9195669M9.7981699 3.13244243L10.0724044 4.27973212M16.9663548 2.49349651L9.7981699 3.13244243M17.2405893 3.6407862L10.0724044 4.27973212M16.9663548 2.49349651L17.2405893 3.6407862M17.2405893 4.66350153L17.2405893 3.6407862M11.3845403 5.18591014L17.2405893 4.66350153M11.3845403 7.83010145L11.3845403 5.18591014M16.5930912 6.19456063L11.3845403 6.65870059M16.8692301 7.34185032L11.3845403 7.83010145M16.5930912 6.19456063L16.8692301 7.34185032M16.8692301 8.35652859L16.8692301 7.34185032M11.3845403 8.84477972L16.8692301 8.35652859M11.3845403 11.7843328L11.3845403 8.84477972M17.196788 10.0945419L11.3845403 10.6109227M17.4729269 11.2418316L11.3845403 11.7843328M17.196788 10.0945419L17.4729269 11.2418316M17.4729269 12.2605284L17.4729269 11.2418316M3.93450321 7.28559093L2.06247192 7.45235983M4.2087377 8.43488988L2.06247192 8.62576995M3.93450321 7.28559093L4.2087377 8.43488988M4.35728139 7.24138712L3.93450321 7.28559093M4.63342029 8.38867681L4.2087377 8.43488988M4.35728139 7.24138712L4.63342029 8.38867681M4.71530975 7.187137L4.35728139 7.24138712M4.99144865 8.33442669L4.63342029 8.38867681M4.71530975 7.187137L4.99144865 8.33442669M5.00097068 7.12685908L4.71530975 7.187137M5.27710958 8.27414877L4.99144865 8.33442669M5.00097068 7.12685908L5.27710958 8.27414877M5.18569809 7.07461822L5.00097068 7.12685908M5.45993258 8.22190791L5.27710958 8.27414877M5.18569809 7.07461822L5.45993258 8.22190791M5.50754273 6.93196048L5.18569809 7.07461822M5.78368163 8.07925017L5.45993258 8.22190791M5.50754273 6.93196048L5.78368163 8.07925017M5.7722552 6.75112673L5.50754273 6.93196048M6.04648969 7.90042568L5.78368163 8.07925017M5.7722552 6.75112673L6.04648969 7.90042568M5.94365175 6.57632077L5.7722552 6.75112673M6.21788625 7.72561972L6.04648969 7.90042568M5.94365175 6.57632077L6.21788625 7.72561972M6.08838662 6.32918131L5.94365175 6.57632077M6.36452552 7.47848026L6.21788625 7.72561972M6.08838662 6.32918131L6.36452552 7.47848026M6.14742322 6.13026418L6.08838662 6.32918131M6.4483194 7.19718331L6.36452552 7.47848026M6.2045554 6.18451431L6.4483194 7.19718331M6.46736346 6.94803459L6.4483194 7.19718331M6.3264374 6.36132953L6.46736346 6.94803459M6.43498855 6.65468206L6.46736346 6.94803459M6.34738587 6.39347775L6.43498855 6.65468206M6.22931268 6.20862547L6.34738587 6.39347775M6.02363681 6.01171761L6.22931268 6.20862547M5.76082876 5.87709693L6.02363681 6.01171761M5.55515289 5.82083754L5.76082876 5.87709693M5.33043296 5.79672637L5.55515289 5.82083754M5.05048525 5.78668005L5.33043296 5.79672637M4.71150094 5.79069858L5.05048525 5.78668005M4.30776683 5.81480975L4.71150094 5.79069858M2.06247192 6.01573614L4.30776683 5.81480975M2.06247192 8.62576995L2.06247192 6.01573614M4.25825227 11.2458501L2.06247192 11.4407487M4.53248676 12.3931398L2.06247192 12.6141588M4.25825227 11.2458501L4.53248676 12.3931398M4.67912604 11.2036555L4.25825227 11.2458501M4.95336053 12.3509452L4.53248676 12.3931398M4.67912604 11.2036555L4.95336053 12.3509452M4.99335306 11.1594517L4.67912604 11.2036555M5.26949196 12.3067414L4.95336053 12.3509452M4.99335306 11.1594517L5.26949196 12.3067414M5.15141877 11.1252943L4.99335306 11.1594517M5.42565327 12.2725839L5.26949196 12.3067414M5.15141877 11.1252943L5.42565327 12.2725839M5.4961163 11.0208125L5.15141877 11.1252943M5.7722552 12.1701115L5.42565327 12.2725839M5.4961163 11.0208125L5.7722552 12.1701115M5.79129926 10.8902104L5.4961163 11.0208125M6.06743816 12.0375001L5.7722552 12.1701115M5.79129926 10.8902104L6.06743816 12.0375001M5.90937244 10.8218954L5.79129926 10.8902104M6.18360693 11.9711944L6.06743816 12.0375001M5.90937244 10.8218954L6.18360693 11.9711944M6.15123203 10.6269968L5.90937244 10.8218954M6.42737093 11.7742865L6.18360693 11.9711944M6.15123203 10.6269968L6.42737093 11.7742865M6.35500349 10.3798573L6.15123203 10.6269968M6.62923799 11.527147L6.42737093 11.7742865M6.35500349 10.3798573L6.62923799 11.527147M6.41023127 10.2954683L6.35500349 10.3798573M6.68446577 11.442758L6.62923799 11.527147M6.41023127 10.2954683L6.68446577 11.442758M6.53020886 10.0302454L6.41023127 10.2954683M6.80444336 11.1775351L6.68446577 11.442758M6.53020886 10.0302454L6.80444336 11.1775351M6.56829699 9.85744873L6.53020886 10.0302454M6.86728876 10.8902104L6.80444336 11.1775351M6.64066442 9.94384708L6.86728876 10.8902104M6.8787152 10.7013396L6.86728876 10.8902104M6.73398033 10.0925326L6.8787152 10.7013396M6.85014911 10.4059778L6.8787152 10.7013396M6.76445083 10.1427642L6.85014911 10.4059778M6.61209833 9.89763401L6.76445083 10.1427642M6.38547399 9.69067982L6.61209833 9.89763401M6.12647475 9.54601282L6.38547399 9.69067982M5.81796094 9.45358668L6.12647475 9.54601282M5.56086611 9.41741993L5.81796094 9.45358668M5.26568315 9.40134582L5.56086611 9.41741993M4.92098562 9.40536435L5.26568315 9.40134582M4.53819998 9.42344772L4.92098562 9.40536435M2.06247192 9.64446675L4.53819998 9.42344772M2.06247192 12.6141588L2.06247192 9.64446675M.754144856 13.7493929L4.53248676 13.4138458M.478005956 12.6021032L.754144856 13.7493929M.478005956 3.96226842L.478005956 12.6021032M.754144856 5.10955812L.754144856 13.7493929M.478005956 3.96226842L.754144856 5.10955812M4.19731127 3.63073988L.478005956 3.96226842M4.47345017 4.77802957L.754144856 5.10955812M4.19731127 3.63073988L4.47345017 4.77802957M4.58771454 3.60662871L4.19731127 3.63073988M4.86194903 4.7539184L4.47345017 4.77802957M4.58771454 3.60662871L4.86194903 4.7539184M4.94764731 3.60060092L4.58771454 3.60662871M5.2218818 4.74789061L4.86194903 4.7539184M4.94764731 3.60060092L5.2218818 4.74789061M5.27901399 3.60863798L4.94764731 3.60060092M5.55515289 4.75793693L5.2218818 4.74789061M5.27901399 3.60863798L5.55515289 4.75793693M5.58562339 3.6407862L5.27901399 3.60863798M5.86176229 4.78807589L5.55515289 4.75793693M5.58562339 3.6407862L5.86176229 4.78807589M5.85985788 3.68699927L5.58562339 3.6407862M6.13599678 4.83428896L5.86176229 4.78807589M5.85985788 3.68699927L6.13599678 4.83428896M6.02363681 3.72718455L5.85985788 3.68699927M6.29977571 4.87447424L6.13599678 4.83428896M6.02363681 3.72718455L6.29977571 4.87447424M6.31691537 3.83769406L6.02363681 3.72718455M6.59305427 4.98498375L6.29977571 4.87447424M6.31691537 3.83769406L6.59305427 4.98498375M6.58353224 3.97633327L6.31691537 3.83769406M6.85967114 5.12362296L6.59305427 4.98498375M6.58353224 3.97633327L6.85967114 5.12362296M6.81967861 4.14912997L6.58353224 3.97633327M7.0939131 5.29842892L6.85967114 5.12362296M6.81967861 4.14912997L7.0939131 5.29842892M7.02345007 4.35206562L6.81967861 4.14912997M7.29958897 5.49935531L7.0939131 5.29842892M7.02345007 4.35206562L7.29958897 5.49935531M7.09962632 4.44047323L7.02345007 4.35206562M7.37576522 5.58977219L7.29958897 5.49935531M7.09962632 4.44047323L7.37576522 5.58977219M7.25959644 4.68761269L7.09962632 4.44047323M7.53573534 5.83691165L7.37576522 5.58977219M7.25959644 4.68761269L7.53573534 5.83691165M7.37766962 4.94479847L7.25959644 4.68761269M7.65190412 6.09208817L7.53573534 5.83691165M7.37766962 4.94479847L7.65190412 6.09208817M7.45194146 5.21203057L7.37766962 4.94479847M7.72617596 6.36132953L7.65190412 6.09208817M7.45194146 5.21203057L7.72617596 6.36132953M7.75855086 6.63659868L7.72617596 6.36132953M7.76045527 6.6968766L7.75855086 6.63659868M7.73569799 6.98219208L7.76045527 6.6968766M7.66523496 7.26549829L7.73569799 6.98219208M7.54906618 7.54076744L7.66523496 7.26549829M7.41575775 7.76982353L7.54906618 7.54076744M7.23483916 8.00490741L7.41575775 7.76982353M7.01392804 8.22391717L7.23483916 8.00490741M6.75302439 8.42484356L7.01392804 8.22391717M6.45974583 8.60768658L6.75302439 8.42484356M6.37404756 8.65389965L6.45974583 8.60768658M6.70731864 8.72623315L6.37404756 8.65389965M7.01202363 8.82669634L6.70731864 8.72623315M7.28244931 8.95127071L7.01202363 8.82669634M7.5243089 9.10397476L7.28244931 8.95127071M7.73188918 9.28681778L7.5243089 9.10397476M7.76045527 9.31494747L7.73188918 9.28681778M8.06896907 9.76904112L7.93566064 9.53395724M8.1679982 10.0282362L8.06896907 9.76904112M8.22322598 10.3055146L8.1679982 10.0282362M8.23846123 10.5787745L8.22322598 10.3055146M8.22132157 10.8761455L8.23846123 10.5787745M8.1699026 11.1634703L8.22132157 10.8761455M8.08229992 11.442758L8.1699026 11.1634703M7.9547047 11.7160178L8.08229992 11.442758M7.94899148 11.7300827L7.9547047 11.7160178M7.77569052 12.0174074L7.94899148 11.7300827M7.57763227 12.2705747L7.77569052 12.0174074M7.36052997 12.4855659L7.57763227 12.2705747M7.2176995 12.6041125L7.36052997 12.4855659M6.96250907 12.7708814L7.2176995 12.6041125M6.67303933 12.9215762L6.96250907 12.7708814M6.34929027 13.0521783L6.67303933 12.9215762M6.13599678 13.1225026L6.34929027 13.0521783M5.85604907 13.2028731L6.13599678 13.1225026M5.54943967 13.2731974L5.85604907 13.2028731M5.21616858 13.3294568L5.54943967 13.2731974M4.86194903 13.3796884L5.21616858 13.3294568M4.53248676 13.4138458L4.86194903 13.3796884"/>
    </g>
    <g fill="#D9766C" fill-rule="nonzero" stroke="#D9766C" stroke-width=".4" transform="translate(603.361 128.374)" stroke-linecap="round" stroke-linejoin="round">
      <path d="M28.7800339 36.2879338L38.1582209 22.8216065M38.1582209 22.8216065L38.1582209 13.5880503M28.7800339 27.0543776L38.1582209 13.5880503M28.7800339 36.2879338L28.7800339 27.0543776M20.9088753 34.4432513L28.7800339 36.2879338M20.9088753 25.2096951L28.7800339 27.0543776M20.9088753 34.4432513L20.9088753 25.2096951M23.2134029 21.9028879L20.9088753 25.2096951M9.8534884 28.004976L20.9088753 30.5959362M9.8534884 28.004976L9.8534884 18.7714198M14.6283888 11.9187068L9.8534884 18.7714198M.130631797 17.7541636L9.8534884 20.033571M.130631797 8.52060741L14.6283888 11.9187068M.130631797 17.7541636L.130631797 8.52060741M5.57468159.704254286L.130631797 8.52060741M59.5248545 13.3504007L5.57468159.704254286M59.5248545 22.5839569L59.5248545 13.3504007M56.3838901 27.0935028L59.5248545 22.5839569M56.3838901 17.8599467L59.5248545 13.3504007M56.3838901 27.0935028L56.3838901 17.8599467M38.1582209 22.8216065L56.3838901 27.0935028M38.1582209 13.5880503L56.3838901 17.8599467M9.8534884 18.7714198L23.2134029 21.9028879"/>
    </g>
    <g stroke="#4DA6B2" transform="translate(601.92 100.841)">
      <path stroke-width=".33" d="M34.8575696.202871605L39.4556334 13.826622M34.8575696.202871605L31.7323518 4.70108837M36.3285836 18.3229945L31.7323518 4.70108837M39.4556334 13.826622L36.3285836 18.3229945M39.4556334 13.826622L54.3306444 17.3197022M51.2035946 21.8160747L36.3285836 18.3229945M54.3306444 17.3197022L51.2035946 21.8160747M40.5401169 26.1815028L41.9268636 25.6134623M44.8597322 24.4128312L51.2035946 21.8160747M43.5810675 26.0505584L44.0463695 27.4319296M44.8230942 29.7354444L45.3928145 31.4229673M45.8068234 32.6475741L46.8931389 35.8676998M43.767921 40.3640722L41.0750311 32.3856853M46.8931389 35.8676998L43.767921 40.3640722M31.7323518 29.7852402L43.767921 40.3640722M19.6986144 34.7113316L31.7323518 29.7852402M23.7489407 24.6120143L23.1187678 26.1796585M22.398832 27.9723058L19.6986144 34.7113316M12.259277 12.6702539L18.6196266 18.2602887M21.4975382 20.7906509L23.6078846 22.6441597M15.3863268 8.17388139L12.259277 12.6702539M15.3863268 8.17388139L29.0522852 11.3829413M27.134288 16.1633341L12.259277 12.6702539M23.1645653 26.0653127L20.1236148 25.4419436M20.1236148 25.4419436L19.436653 26.4304816M24.9213554 27.5536525L19.436653 26.4304816M25.5332093 26.6739275L24.9213554 27.5536525M24.9579933 28.4960834L24.9213554 27.5536525M25.5698472 27.6182026L24.9579933 28.4960834M18.2935488 27.1313107L24.9579933 28.4960834M17.9912856 19.1363252L18.2935488 27.1313107M18.6068033 18.249223L17.9912856 19.1363252M24.4487257 20.4586792L17.9912856 19.1363252M25.0587477 19.5807985L24.4487257 20.4586792M24.4835318 21.40111L24.4487257 20.4586792M25.0935538 20.5232293L24.4835318 21.40111M19.2058339 20.322202L24.4835318 21.40111M19.9862224 21.7791889L19.9367612 20.4715892M19.2992607 22.7658827L19.2058339 20.322202M19.9862224 21.7791889L19.2992607 22.7658827M23.4228629 22.4818624L19.9862224 21.7791889M24.2398894 23.7783964L19.2992607 22.7658827M24.8517433 22.8986713L24.2398894 23.7783964M24.2765273 24.7208272L24.2398894 23.7783964M24.8883812 23.8411022L24.2765273 24.7208272M19.3358987 23.7083135L24.2765273 24.7208272M20.1236148 25.4419436L20.0631621 23.8577007M19.436653 26.4304816L19.3358987 23.7083135M13.2063683 20.7556095L10.6673578 20.335112M10.6673578 20.335112L9.98222795 21.3218057M12.5194066 21.7441475L9.98222795 21.3218057M13.2063683 20.7556095L12.5194066 21.7441475M13.8200541 20.8312253L13.2063683 20.7556095M13.1349242 21.817919L12.5194066 21.7441475M13.8200541 20.8312253L13.1349242 21.817919M14.3091708 20.8275367L13.624041 21.8160747M14.4575545 20.8127824L13.7705928 21.8013204M14.5949469 20.7611423L14.4575545 20.8127824M14.2175759 21.6279574L13.7705928 21.8013204M14.5143434 21.2000827L14.2175759 21.6279574M14.4227485 21.4324629L14.2175759 21.6279574M14.5857874 21.015654L14.4227485 21.4324629M13.6587886 20.746388L13.6551833 21.015654M14.4648821 20.2594962L14.5949469 20.746388M14.1497957 19.8187115L14.4648821 20.2594962M14.0618646 19.73203L14.1497957 19.8187115M13.658847 19.4572312L14.0618646 19.73203M13.138588 19.2469825L13.658847 19.4572312M12.5743635 19.1197266L13.138588 19.2469825M9.75324071 18.6494334L12.5743635 19.1197266M10.6673578 20.335112L10.5354611 18.7803778M9.98222795 21.3218057L9.75324071 18.6494334M11.0538882 24.8407059L10.84322 22.3748937M10.3669265 25.8273996L10.0609996 22.2457936M11.0538882 24.8407059L10.3669265 25.8273996M9.18901616 25.6319051L10.3669265 25.8273996M8.50022254 17.5649924L9.18901616 25.6319051M9.18718426 16.5782987L8.50022254 17.5649924M13.1349242 17.234865L9.18718426 16.5782987M12.4479625 18.2215587L8.50022254 17.5649924M13.1349242 17.234865L12.4479625 18.2215587M13.7907437 17.3621208L13.1349242 17.234865M13.103782 18.3488145L12.4479625 18.2215587M13.7907437 17.3621208L13.103782 18.3488145M14.3494726 17.5096638L13.7907437 17.3621208M13.6643427 18.4963575L13.103782 18.3488145M14.3494726 17.5096638L13.6643427 18.4963575M14.8111108 17.6756497L14.3494726 17.5096638M14.1241491 18.6641877L13.6643427 18.4963575M14.8111108 17.6756497L14.1241491 18.6641877M14.9668222 17.7475769L14.8111108 17.6756497M14.2798604 18.7342706L14.1241491 18.6641877M14.9668222 17.7475769L14.2798604 18.7342706M15.4467794 18.0574171L14.9668222 17.7475769M14.7598177 19.0441108L14.2798604 18.7342706M15.4467794 18.0574171L14.7598177 19.0441108M15.8516288 18.4557832L15.4467794 18.0574171M15.1646671 19.4424769L14.7598177 19.0441108M15.8516288 18.4557832L15.1646671 19.4424769M16.0256591 18.6807862L15.8516288 18.4557832M15.3405293 19.6693242L15.1646671 19.4424769M16.0256591 18.6807862L15.3405293 19.6693242M16.2894524 19.1584567L16.0256591 18.6807862M15.6024907 20.1451504L15.3405293 19.6693242M16.2894524 19.1584567L15.6024907 20.1451504M16.4488276 19.6453485L16.2894524 19.1584567M15.7636977 20.6320422L15.6024907 20.1451504M16.4488276 19.6453485L15.7636977 20.6320422M16.4964569 19.9607216L16.4488276 19.6453485M15.8094952 20.9492596L15.7636977 20.6320422M16.4964569 19.9607216L15.8094952 20.9492596M16.4872974 20.4494578L15.8021676 21.4361515M16.3572327 20.8644224L16.4872974 20.4494578M15.670271 21.8529604L15.8021676 21.4361515M16.3572327 20.8644224L15.670271 21.8529604M15.4193009 22.1978422L15.670271 21.8529604M15.3222103 22.2937451L15.4193009 22.1978422M14.9924687 22.5095267L15.3222103 22.2937451M14.5711322 22.646004L14.9924687 22.5095267M14.0563689 22.723464L14.5711322 22.646004M14.0233947 23.0720344L13.4903124 22.7253083M14.2908518 22.6884226L14.0233947 23.0720344M14.2358949 23.2472416L14.0233947 23.0720344M14.6810461 22.6109625L14.2358949 23.2472416M15.3038914 22.6496926L15.0987188 22.4394438M14.6169297 23.6363863L14.2358949 23.2472416M15.3038914 22.6496926L14.6169297 23.6363863M15.6830942 23.0904772L15.3038914 22.6496926M14.9961325 24.0771709L14.6169297 23.6363863M15.6830942 23.0904772L14.9961325 24.0771709M15.9908531 23.4943761L15.6830942 23.0904772M15.3038914 24.4810699L14.9961325 24.0771709M15.9908531 23.4943761L15.3038914 24.4810699M17.7274923 25.9509669L15.9908531 23.4943761M17.0423625 26.9376606L15.3038914 24.4810699M17.7274923 25.9509669L17.0423625 26.9376606M15.562189 26.6923704L17.0423625 26.9376606M14.234063 24.8148859L15.562189 26.6923704M13.8457006 24.2726654L14.234063 24.8148859M13.5049676 23.8281922L13.8457006 24.2726654M13.2888037 23.5626148L13.5049676 23.8281922M12.8583077 23.0978544L13.2888037 23.5626148M12.6513032 22.9226471L12.8583077 23.0978544M12.1365399 22.6404711L12.6513032 22.9226471M11.5851386 22.498461L12.0907424 22.6220282M10.0609996 22.2457936L11.5851386 22.498461M5.04892689 19.3244425L4.36196517 20.3111362M4.80162067 20.287885L4.36196517 20.2871605M5.48675049 19.3262868L4.80162067 20.3129805M5.59849626 19.2894011L5.48675049 19.3262868M5.29073741 20.1543718L4.80162067 20.3129805M5.54720312 19.7855143L5.29073741 20.1543718M5.46476771 20.0049845L5.29073741 20.1543718M5.61315144 19.6047742L5.46476771 20.0049845M4.49569372 19.3281311L4.49785692 19.6047742M5.46659961 18.8301735L5.60765575 19.3281311M5.32187968 18.583039L5.46659961 18.8301735M4.91153454 18.2031158L5.32187968 18.583039M4.66789212 18.0777043L4.91153454 18.2031158M4.25754699 17.9486042L4.66789212 18.0777043M3.67500346 17.8250369L4.25754699 17.9486042M1.52618721 17.5096638L3.67500346 17.8250369M2.47877412 18.9703394L2.33222229 17.6276982M1.79364431 19.9570331L1.52618721 17.5096638M2.47877412 18.9703394L1.79364431 19.9570331M4.40226693 19.250671L2.47877412 18.9703394M3.71713711 20.239209L1.79364431 19.9570331M4.40226693 19.250671L3.71713711 20.239209M5.04892689 19.3244425L4.40226693 19.250671M4.36196517 20.3111362L3.71713711 20.239209M5.71573773 23.1070758L5.02877601 24.0937695M5.2156296 23.9779088L5.02877601 23.9757351M5.90259131 23.1107644L5.2156296 24.0993024M6.37338907 23.0462143L5.90259131 23.1107644M5.72672911 24.0273752L5.2156296 24.0993024M6.37522097 23.0923215L5.72672911 24.0273752M5.86961715 23.9757351L5.72672911 24.0273752M6.34591061 23.2896603L5.86961715 23.9757351M6.20485447 23.699092L5.86961715 23.9757351M6.267139 23.5884348L6.20485447 23.699092M6.37888477 23.1605601L6.267139 23.5884348M6.32759163 22.9337128L6.33263909 23.1605601M6.22683724 22.4357552L6.36606148 22.9337128M6.03082417 22.1074721L6.22683724 22.4357552M5.61681524 21.7275489L6.03082417 22.1074721M5.27608223 21.535743L5.61681524 21.7275489M4.82543534 21.3863557L5.27608223 21.535743M4.24105991 21.2554113L4.82543534 21.3863557M1.89806249 20.9123739L4.24105991 21.2554113M2.88911926 22.7087097L2.70409757 21.0304083M2.20398944 23.6972478L1.89806249 20.9123739M2.88911926 22.7087097L2.20398944 23.6972478M5.10205193 23.0333043L2.88911926 22.7087097M4.41509021 24.019998L2.20398944 23.6972478M5.10205193 23.0333043L4.41509021 24.019998M5.71573773 23.1070758L5.10205193 23.0333043M5.02877601 24.0937695L4.41509021 24.019998M4.93351732 25.0251346L5.4739272 25.0601761M4.51950839 24.9753389L4.93351732 25.0251346M1.13232916 24.4792256L4.51950839 24.9753389M.247522474 16.3828042L1.13232916 24.4792256M.932652291 15.3961105L.247522474 16.3828042M4.27037028 15.8848467L.932652291 15.3961105M3.58340856 16.8715404L.247522474 16.3828042M4.27037028 15.8848467L3.58340856 16.8715404M4.88771987 15.9973482L4.27037028 15.8848467M4.20259005 16.9840419L3.58340856 16.8715404M4.88771987 15.9973482L4.20259005 16.9840419M5.42446596 16.1485798L4.88771987 15.9973482M4.73750424 17.1371178L4.20259005 16.9840419M5.42446596 16.1485798L4.73750424 17.1371178M5.89159992 16.3403856L5.42446596 16.1485798M5.20463821 17.3289236L4.73750424 17.1371178M5.89159992 16.3403856L5.20463821 17.3289236M5.93006978 16.3643614L5.89159992 16.3403856M5.24310807 17.3510551L5.20463821 17.3289236M5.93006978 16.3643614L5.24310807 17.3510551M6.42285032 16.6834231L5.93006978 16.3643614M5.7358886 17.6719611L5.24310807 17.3510551M6.42285032 16.6834231L5.7358886 17.6719611M6.82953165 17.074412L6.42285032 16.6834231M6.14256994 18.06295L5.7358886 17.6719611M6.82953165 17.074412L6.14256994 18.06295M6.97974728 17.260685L6.82953165 17.074412M6.29278557 18.2473787L6.14256994 18.06295M6.97974728 17.260685L6.29278557 18.2473787M7.26185956 17.7457326L6.97974728 17.260685M6.57672974 18.7342706L6.29278557 18.2473787M7.26185956 17.7457326L6.57672974 18.7342706M7.42123468 18.2307801L7.26185956 17.7457326M6.73427296 19.2174739L6.57672974 18.7342706M7.42123468 18.2307801L6.73427296 19.2174739M7.44321745 18.3857003L7.42123468 18.2307801M6.75625574 19.372394L6.73427296 19.2174739M7.44321745 18.3857003L6.75625574 19.372394M7.42673037 18.8504607L6.74160055 19.8371544M7.26918715 19.2728025L7.42673037 18.8504607M6.58222544 20.2594962L6.74160055 19.8371544M7.26918715 19.2728025L6.58222544 20.2594962M6.54925127 20.3056034L6.58222544 20.2594962M6.26897089 20.6191322L6.54925127 20.3056034M5.86778525 20.8459796L6.26897089 20.6191322M5.70108254 20.906841L5.86778525 20.8459796M6.93028604 20.1894133L6.70679449 20.078756M6.24332432 21.176107L5.70108254 20.906841M6.93028604 20.1894133L6.24332432 21.176107M7.39192431 20.5176964L6.93028604 20.1894133M6.7049626 21.5043901L6.24332432 21.176107M7.39192431 20.5176964L6.7049626 21.5043901M7.71250644 20.8386024L7.39192431 20.5176964M7.02554473 21.8252961L6.7049626 21.5043901M7.71250644 20.8386024L7.02554473 21.8252961M8.0147696 21.2886085L7.71250644 20.8386024M7.32780788 22.2753022L7.02554473 21.8252961M8.0147696 21.2886085L7.32780788 22.2753022M8.20895078 21.7681232L8.0147696 21.2886085M7.52198906 22.7548169L7.32780788 22.2753022M8.20895078 21.7681232L7.52198906 22.7548169M8.2730672 22.125915L8.20895078 21.7681232M7.58793739 23.1126087L7.52198906 22.7548169M8.2730672 22.125915L7.58793739 23.1126087M8.16093167 22.6164954L8.15948953 22.125915M6.32831269 23.6031891L6.32759163 23.1126087M8.276731 22.6164954L7.58976928 23.6031891M8.17048092 23.0499029L8.276731 22.6164954M7.48351921 24.0365966L7.58976928 23.6031891M8.17048092 23.0499029L7.48351921 24.0365966M8.13017917 23.1458058L8.17048092 23.0499029M7.44504935 24.1324996L7.48351921 24.0365966M8.13017917 23.1458058L7.44504935 24.1324996M7.87737726 23.5367948L8.13017917 23.1458058M7.19224744 24.5234885L7.44504935 24.1324996M7.87737726 23.5367948L7.19224744 24.5234885M6.86800151 24.7909101L7.19224744 24.5234885M6.45216068 24.9605846L6.86800151 24.7909101M5.94289307 25.0491104L6.45216068 24.9605846M5.4739272 23.9800824L5.94289307 23.9757351M29.3508845 26.5761803L28.7390306 27.4559053M28.8416169 27.9501743L28.7390306 27.4559053M29.019311 27.6919741L28.8416169 27.9501743M28.8837506 28.1622673L28.8416169 27.9501743M29.0742679 27.5001682L28.8837506 28.1622673M29.2061646 27.0446292L29.0742679 27.5001682M29.2831043 26.8048719L29.2061646 27.0446292M28.3103665 25.8200225L28.3103665 25.8265433M30.9886012 21.8363618L29.2831043 26.7882733M31.5986232 20.9566368L30.9886012 21.8363618M32.4156497 22.1701779L30.9886012 21.8363618M33.0256717 21.2922971L32.4156497 22.1701779M33.6924826 26.478433L32.4156497 22.1701779M34.3025046 25.6005523L33.6924826 26.478433M33.8481939 27.0151206L33.6924826 26.478433M34.4600478 26.1353956L33.8481939 27.0151206M33.98925 27.5352097L33.8481939 27.0151206M34.599272 26.6554846L33.98925 27.5352097M34.1083234 28.0387001L33.98925 27.5352097M34.7183454 27.158975L34.1083234 28.0387001M34.2219011 28.5366577L34.1083234 28.0387001M34.833755 27.6569326L34.2219011 28.5366577M34.3153278 29.0106395L34.2219011 28.5366577M34.6157591 28.5790763L34.3153278 29.0106395M34.38494 29.4532685L34.3153278 29.0106395M34.4856943 29.045681L34.38494 29.4532685M34.6084315 28.615962L34.4856943 29.045681M34.7403282 28.1530459L34.6084315 28.615962M34.8355868 27.8339842L34.7403282 28.1530459M36.2351568 23.0683458L34.8355868 27.8339842M36.8470108 22.1886207L36.2351568 23.0683458M37.4240586 23.3468332L36.2351568 23.0683458M38.0359125 22.4689524L37.4240586 23.3468332M34.9729792 30.7000067L37.4240586 23.3468332M35.5848331 29.8202816L34.9729792 30.7000067M33.8372025 30.432585L34.9729792 30.7000067M31.9466839 23.9480708L33.8372025 30.432585M31.7579984 23.287816L31.9466839 23.9480708M31.6700673 22.954L31.7579984 23.287816M31.530843 23.4298261L31.6700673 22.954M31.7231923 23.1550273L31.530843 23.4298261M31.4044421 23.820815L31.530843 23.4298261M31.7634941 23.3044146L31.4044421 23.820815M29.5102596 29.4163827L31.4044421 23.820815M30.1202816 28.538502L29.5102596 29.4163827M28.3030389 29.1342068L29.5102596 29.4163827M25.9288992 20.6467965L28.3030389 29.1342068M26.5407531 19.7689158L25.9288992 20.6467965M27.1416156 20.9326611L25.9288992 20.6467965M27.7534695 20.052936L27.1416156 20.9326611M28.5045477 26.4489244L27.1416156 20.9326611M29.1164016 25.5691994L28.5045477 26.4489244M28.6272848 26.9524149L28.5045477 26.4489244M29.2373068 26.0745341L28.6272848 26.9524149M28.7390306 27.4559053L28.6272848 26.9524149M40.4631772 30.1209005L40.5199661 28.603052M39.7762155 31.1075942L39.8769699 28.4333776M40.4631772 30.1209005L39.7762155 31.1075942M45.9478796 31.5705103L40.4631772 30.1209005M45.2609178 32.557204L39.7762155 31.1075942M45.9478796 31.5705103L45.2609178 32.557204M45.9112416 32.4963425L45.9478796 31.5705103M45.2242799 33.4830363L45.2609178 32.557204M45.9112416 32.4963425L45.2242799 33.4830363M38.5616672 31.7217419L45.2242799 33.4830363M38.8584347 23.8669222L38.5616672 31.7217419M39.4702886 22.9890414L38.8584347 23.8669222M46.0010046 24.5880385L45.0502496 24.3353712M45.3140429 25.5747322L38.8584347 23.8669222M46.0010046 24.5880385L45.3140429 25.5747322M45.9661985 25.5138708L46.0010046 24.5880385M45.2810687 26.5005645L45.3140429 25.5747322M45.9661985 25.5138708L45.2810687 26.5005645M40.0033708 25.1062833L45.2810687 26.5005645M39.9117759 27.5075454L40.0033708 25.1062833M40.5987377 26.5208516L39.9117759 27.5075454M45.5393663 27.8266071L40.5987377 26.5208516M44.8542365 28.8151451L39.9117759 27.5075454M45.5393663 27.8266071L44.8542365 28.8151451M45.5063922 28.7524393L45.5393663 27.8266071M44.8194304 29.739133L44.8542365 28.8151451M45.5063922 28.7524393L44.8194304 29.739133M39.8769699 28.4333776L44.8194304 29.739133M51.6322588 29.6948701L49.1005758 28.949778M49.1005758 28.949778L48.415446 29.9364717M50.9471289 30.6815638L48.415446 29.9364717M51.6322588 29.6948701L50.9471289 30.6815638M52.2587678 29.8497902L51.6322588 29.6948701M51.5718061 30.8383282L50.9471289 30.6815638M52.2587678 29.8497902L51.5718061 30.8383282M52.7570441 29.912496L52.2587678 29.8497902M52.0719143 30.8991897L51.5718061 30.8383282M52.7570441 29.912496L52.0719143 30.8991897M52.9109235 29.9180289L52.2257937 30.9065669M53.2278418 29.8534788L52.9109235 29.9180289M52.7149104 30.8032868L52.2257937 30.9065669M53.2388332 30.0489733L52.7149104 30.8032868M52.9530571 30.6428338L52.7149104 30.8032868M53.1948677 30.272132L52.9530571 30.6428338M53.2461608 30.0157761L53.1948677 30.272132M53.1875401 29.5344171L53.2461608 30.0157761M52.938402 29.0733453L53.1875401 29.5344171M52.8614623 28.9774423L52.938402 29.0733453M52.4932508 28.6620692L52.8614623 28.9774423M51.9931426 28.390959L52.4932508 28.6620692M51.4344138 28.1936202L51.9931426 28.390959M48.6114591 27.3618467L51.4344138 28.1936202M49.1005758 28.949778L49.2086578 27.5388982M48.415446 29.9364717L48.6114591 27.3618467M47.4994971 26.1612156L46.9004665 33.9293538M48.1864588 25.1726776L47.4994971 26.1612156M52.1360307 26.3345786L48.1864588 25.1726776M51.4509009 27.3212723L47.4994971 26.1612156M52.1360307 26.3345786L51.4509009 27.3212723M52.7900182 26.5448274L52.1360307 26.3345786M52.1030565 27.5315211L51.4509009 27.3212723M52.7900182 26.5448274L52.1030565 27.5315211M53.3414195 26.7624533L52.7900182 26.5448274M52.6544578 27.749147L52.1030565 27.5315211M53.3414195 26.7624533L52.6544578 27.749147M53.7865707 26.9837678L53.3414195 26.7624533M53.1014409 27.9704615L52.6544578 27.749147M53.7865707 26.9837678L53.1014409 27.9704615M53.9349544 27.0722935L53.7865707 26.9837678M53.2479927 28.0589873L53.1014409 27.9704615M53.9349544 27.0722935L53.2479927 28.0589873M54.3764418 27.4319296L53.9349544 27.0722935M53.691312 28.4204676L53.2479927 28.0589873M54.3764418 27.4319296L53.691312 28.4204676M54.73183 27.8671814L54.3764418 27.4319296M54.0448683 28.8557194L53.691312 28.4204676M54.73183 27.8671814L54.0448683 28.8557194M54.8673905 28.1032502L54.73183 27.8671814M54.1822606 29.0899439L54.0448683 28.8557194M54.8673905 28.1032502L54.1822606 29.0899439M55.0634035 28.5919863L54.8673905 28.1032502M54.3764418 29.5805243L54.1822606 29.0899439M55.0634035 28.5919863L54.3764418 29.5805243M55.1531665 29.0807224L55.0634035 28.5919863M54.4662048 30.0674161L54.3764418 29.5805243M55.1531665 29.0807224L54.4662048 30.0674161M55.1476708 29.3868741L54.462541 30.3754121M55.0560759 29.847946L55.1476708 29.3868741M54.3709461 30.8346397L54.462541 30.3754121M55.0560759 29.847946L54.3709461 30.8346397M54.8527353 30.2260249L55.0560759 29.847946M54.1657736 31.2127186L54.3709461 30.8346397M54.8527353 30.2260249L54.1657736 31.2127186M53.8598466 31.5096488L54.1657736 31.2127186M53.744437 31.5889532L53.8598466 31.5096488M53.3652342 31.7457176L53.744437 31.5889532M52.9164192 31.8213334L53.3652342 31.7457176M51.7861382 31.7475619L52.3741774 31.825022M52.2770868 32.1514608L51.7861382 31.7475619M52.5042422 31.8231777L52.2770868 32.1514608M52.4694361 32.3469553L52.2770868 32.1514608M52.8339838 31.8213334L52.4694361 32.3469553M53.4898032 31.7826034L53.4366782 31.716209M52.8028415 32.7711414L52.4694361 32.3469553M53.4898032 31.7826034L52.8028415 32.7711414M53.8085535 32.2528966L53.4898032 31.7826034M53.1215918 33.2395903L52.8028415 32.7711414M53.8085535 32.2528966L53.1215918 33.2395903M54.0595235 32.6807713L53.8085535 32.2528966M53.3725618 33.667465L53.1215918 33.2395903M54.0595235 32.6807713L53.3725618 33.667465M55.4444383 35.2553964L54.0595235 32.6807713M54.7593085 36.2420901L53.3725618 33.667465M55.4444383 35.2553964L54.7593085 36.2420901M53.2718074 35.804994L54.7593085 36.2420901M52.2184661 33.8389837L53.2718074 35.804994M51.9015477 33.2690989L52.2184661 33.8389837M51.628595 32.80065L51.9015477 33.2690989M51.4509009 32.518474L51.628595 32.80065M51.0826894 32.0168278L51.4509009 32.518474M50.892172 31.8213334L51.0826894 32.0168278M50.4140466 31.4838288L50.892172 31.8213334M50.3645854 31.4598531L50.4140466 31.4838288M49.8644773 31.2717358L50.3645854 31.4598531M48.3458339 30.8254182L49.8644773 31.2717358M48.7671704 33.2893861L48.9430326 31.0006255M48.0802087 34.2760798L48.3458339 30.8254182M48.7671704 33.2893861L48.0802087 34.2760798M46.9004665 33.9293538L48.0802087 34.2760798M58.4945483 34.0344782L58.0585566 37.2693581M55.6660979 28.4813291L58.4945483 34.0344782M56.3530597 27.4927911L55.6660979 28.4813291M57.78194 27.9759943L56.3530597 27.4927911M57.0968102 28.9645323L55.6660979 28.4813291M57.78194 27.9759943L57.0968102 28.9645323M59.2236437 30.8678368L57.78194 27.9759943M58.536682 31.8563748L57.0968102 28.9645323M59.2236437 30.8678368L58.536682 31.8563748M59.4581266 31.3657944L59.2236437 30.8678368M58.7729968 32.3524881L58.536682 31.8563748M59.4581266 31.3657944L58.7729968 32.3524881M59.6871139 31.8582191L59.4581266 31.3657944M59.0001521 32.8467571L58.7729968 32.3524881M59.6871139 31.8582191L59.0001521 32.8467571M59.9032778 32.3487996L59.6871139 31.8582191M59.2163161 33.3373376L59.0001521 32.8467571M59.9032778 32.3487996L59.2163161 33.3373376M59.952739 32.4631454L59.9032778 32.3487996M59.2657773 33.4498391L59.2163161 33.3373376M59.952739 32.4631454L59.2657773 33.4498391M60.2476746 32.1772808L59.952739 32.4631454M59.5625448 33.1639746L59.2657773 33.4498391M60.2476746 32.1772808L59.5625448 33.1639746M60.58108 31.8858834L60.2476746 32.1772808M59.8959502 32.8725772L59.5625448 33.1639746M60.58108 31.8858834L59.8959502 32.8725772M60.9456277 31.568666L60.58108 31.8858834M60.258666 32.5553597L59.8959502 32.8725772M60.9456277 31.568666L60.258666 32.5553597M61.0995071 31.4395659L60.9456277 31.568666M60.4143773 32.4281039L60.258666 32.5553597M61.0995071 31.4395659L60.4143773 32.4281039M63.1219224 29.777863L61.0995071 31.4395659M62.4349607 30.7645568L60.4143773 32.4281039M63.1219224 29.777863L62.4349607 30.7645568M64.4885183 30.2389349L63.1219224 29.777863M63.8033884 31.2256286L62.4349607 30.7645568M64.4885183 30.2389349L63.8033884 31.2256286M59.6724587 34.4309999L63.8033884 31.2256286M59.9252606 36.6791862L60.2916402 33.9514852M59.2382989 37.6658799L59.6724587 34.4309999" stroke-linecap="round" stroke-linejoin="round"/>
      <path stroke-width=".3" d="M5.91349862,25.0589084 L5.54415466,25.0433648"/>
      <path stroke-width=".33" d="M59.9252606 36.6791862L59.2382989 37.6658799M58.0585566 37.2693581L59.2382989 37.6658799M31.7323518 4.70108837L27.134288 16.1633341" stroke-linecap="round" stroke-linejoin="round"/>
    </g>
    <g stroke="#F8F8F8" stroke-width=".25" transform="translate(343 201.295)" stroke-linecap="round" stroke-linejoin="round">
      <path d="M80.6224115 89.7112728L80.7233608 89.6156333M80.7233608 89.6156333L79.6186874 86.8609268M79.6186874 86.8609268L61.8256579 90.55319M61.5776111 90.7908396L61.8256579 90.55319M62.9288892 93.3078966L80.7233608 89.6156333M61.8256579 90.55319L62.9288892 93.3078966M62.6894952 93.5383007L61.5776111 90.7908396M62.6894952 93.5383007L62.9288892 93.3078966M80.6224115 89.7112728L62.6894952 93.5383007M60.5782134 91.5762425C59.7273553 90.3865454 58.2174426 89.9199408 57.2050657 90.535801 56.1926888 91.1502121 56.0614547 92.6152349 56.9123128 93.804932 57.7617288 94.994629 59.2716414 95.4612337 60.2840184 94.8453735 61.2963953 94.2295133 61.4276293 92.7673886 60.5782134 91.5762425"/>
      <path d="M60.3272823 94.8642116C59.47354 95.6858416 57.9535324 95.4989099 56.9296184 94.4439775 55.9057044 93.3875961 55.7672597 91.8675082 56.6195599 91.04298M57.4300383 83.717866C56.5806224 82.5281689 55.0707098 82.0615642 54.0583328 82.6774245 53.0459559 83.2932847 52.9147218 84.7568584 53.7641378 85.9465555 54.6149959 87.1362525 56.1249085 87.6028572 57.1358433 86.986997 58.1496624 86.3725858 58.2808965 84.9090121 57.4300383 83.717866"/>
      <path d="M57.1560332 87.0275713C56.3037329 87.8506504 54.7822833 87.6622696 53.7598114 86.6087863 52.7358974 85.5524049 52.5974527 84.0308679 53.4497529 83.2077888M77.5751858 81.7572568L76.4719545 79.0039993M77.4526045 81.8760816L77.5751858 81.7572568M58.4078041 82.9556484L58.6774829 82.6948134M76.4719545 79.0039993L58.6774829 82.6948134M58.6774829 82.6948134L59.7807142 85.44952M59.7807142 85.44952L77.5751858 81.7572568M59.5182461 85.7031095L58.4078041 82.9556484M59.5182461 85.7031095L59.7807142 85.44952M77.4526045 81.8760816L59.5182461 85.7031095M74.5149808 74.1176918L73.4117495 71.3644343M74.3707676 74.2582528L74.5149808 74.1176918M55.3259672 75.3378196L55.6187201 75.0552484M54.0756384 79.4097425C53.2233382 80.2313725 51.7018885 80.0444408 50.6779745 78.9895085 49.6555026 77.9345761 49.5156158 76.4130391 50.367916 75.5885109M51.1351304 68.002562C50.2857145 66.8128649 48.7758018 66.3462602 47.7634249 66.9621205 46.751048 67.5765316 46.6198139 69.0415544 47.470672 70.2312515 48.320088 71.4209485 49.8300006 71.8875532 50.8423776 71.271693 51.8547545 70.6558328 51.9859886 69.1937081 51.1351304 68.002562"/>
      <path d="M50.8164192 71.3557398C49.9641189 72.1788189 48.4426693 71.9904381 47.4201974 70.9355058 46.3977255 69.8805734 46.2578387 68.3575873 47.1101389 67.5345082M71.28172 66.0419528L70.1770466 63.2872463M71.1129905 66.2042501L71.28172 66.0419528M52.0681901 67.2838169L52.3840171 66.9795095M70.1770466 63.2872463L52.3840171 66.9795095M52.3840171 66.9795095L53.4872484 69.732767M53.4872484 69.732767L71.28172 66.0419528M53.178632 70.029829L52.0681901 67.2838169M53.178632 70.029829L53.4872484 69.732767M71.1129905 66.2042501L53.178632 70.029829M73.4117495 71.3644343L55.6187201 75.0552484M55.6187201 75.0552484L56.7219513 77.8085059M56.7219513 77.8085059L74.5149808 74.1176918M56.4378513 78.0838317L55.3259672 75.3378196M56.4378513 78.0838317L56.7219513 77.8085059M74.3707676 74.2582528L56.4378513 78.0838317M54.3712755 76.078301C53.5204174 74.8886039 52.0105048 74.4219992 50.99957 75.0378594 49.9871931 75.6537197 49.855959 77.1172934 50.705375 78.3069904 51.554791 79.4966875 53.0647036 79.9647413 54.0770805 79.348881 55.0894575 78.7330208 55.2206915 77.267998 54.3712755 76.078301M65.5016534 40.5815664L70.3573131 52.7045939M70.3573131 52.7045939L69.8626617 53.1827913M33.985292 47.1198284L33.2079826 47.8704534M33.985292 47.1198284L65.5016534 40.5815664M38.8409518 59.2428559L33.985292 47.1198284M70.3573131 52.7045939L38.8409518 59.2428559M38.0996957 59.9587029L33.2079826 47.8704534M38.8409518 59.2428559L38.0996957 59.9587029M69.8626617 53.1827913L38.0996957 59.9587029M41.6358044 11.5086163C41.631478 11.3347264 41.4858226 11.1680819 41.3113246 11.136202 41.294019 11.1333039 41.2767134 11.1318548 41.2594078 11.1304057M39.6961363 11.923054C39.6918099 11.7506132 39.5461545 11.5839686 39.3702144 11.5506397 39.3529088 11.5477416 39.3356032 11.5462925 39.3182976 11.5448434M37.7564682 12.3360427C37.7521418 12.1636018 37.6064865 11.9969573 37.4319884 11.9636284 37.4146828 11.9607302 37.3973773 11.9592811 37.3800717 11.957832M35.8168002 12.7504804C35.8124738 12.5780395 35.6668184 12.411395 35.4908782 12.3780661 35.4735726 12.3751679 35.4562671 12.3737188 35.4389615 12.3722697M33.8771321 13.163469C33.8728057 12.9910281 33.7271503 12.8243836 33.5526523 12.7910547 33.5353467 12.7881565 33.5180411 12.7867074 33.5007355 12.7852584M31.937464 13.5779067C31.9331376 13.4054658 31.7874822 13.2388213 31.6115421 13.2054924 31.5942365 13.2025942 31.5769309 13.2011452 31.5596253 13.2011452M29.9977959 13.9923444C29.9934695 13.8184545 29.8478142 13.6518099 29.6733162 13.6199301 29.6560106 13.6170319 29.638705 13.6141338 29.6213994 13.6141338M28.05957 14.4067821C28.0552436 14.2328922 27.9095882 14.0662476 27.7336481 14.0343678 27.7163425 14.0314697 27.6990369 14.0285715 27.6817313 14.0285715M29.028683 14.1995633C29.0243566 14.0271224 28.8787012 13.8604779 28.7042032 13.827149 28.6868976 13.8242508 28.669592 13.8228017 28.6522864 13.8213526M30.968351 13.7851256C30.9640246 13.6126847 30.8183693 13.4460402 30.6424291 13.4127113 30.6251235 13.4098131 30.6078179 13.408364 30.5905124 13.4069149M32.9080191 13.3721369C32.9036927 13.1996961 32.7580373 13.0330515 32.5835393 12.9997226 32.5662337 12.9968245 32.5489281 12.9953754 32.5316226 12.9939263M34.8476872 12.9576992C34.8433608 12.7838093 34.6977054 12.6171647 34.5217653 12.5852849 34.5044597 12.5823868 34.4871541 12.5794886 34.4698485 12.5794886M36.7873553 12.5432615C36.7830289 12.3693716 36.6373735 12.202727 36.4614333 12.1708472 36.4441277 12.1679491 36.4268222 12.1650509 36.4095166 12.1650509M38.7270233 12.1288238C38.7226969 11.9563829 38.5770416 11.7897384 38.4011014 11.7564095 38.3837958 11.7535113 38.3664902 11.7506132 38.3491846 11.7506132M40.6666914 11.7143861C40.662365 11.5419452 40.5167096 11.3753007 40.3407695 11.3419718 40.3234639 11.3390736 40.3061583 11.3376246 40.2888527 11.3361755"/>
      <path d="M27.7523958 14.2314431C27.6413516 14.0749421 27.6629836 13.8822141 27.798544 13.8039636 27.9355466 13.7242641 28.1345609 13.7880237 28.2456051 13.9445247 28.3566493 14.1024747 28.3350173 14.2937537 28.1994568 14.3720041 28.0624543 14.4517037 27.86344 14.387944 27.7523958 14.2314431M29.6920639 13.8170054C29.5824618 13.6605044 29.6026517 13.4677764 29.7396542 13.3895259 29.8752147 13.3098264 30.0756711 13.373586 30.1852732 13.530087 30.2963173 13.6865879 30.2746854 13.8793159 30.1391249 13.9575664 30.0035645 14.0358169 29.8031081 13.9749554 29.6920639 13.8170054M31.6317319 13.4040168C31.5206877 13.2475158 31.5423197 13.0547878 31.6778802 12.9765373 31.8134406 12.8982868 32.013897 12.9605974 32.1249412 13.1170983 32.2359854 13.2735993 32.2143534 13.4663273 32.0773509 13.5445778 31.9417904 13.6228283 31.7427761 13.5605177 31.6317319 13.4040168M33.5714 12.9895791C33.461798 12.8330781 33.4819878 12.6403501 33.6189904 12.5620996 33.7545508 12.4824 33.9550072 12.5461597 34.0646093 12.7026606 34.1756535 12.8591616 34.1540215 13.0518896 34.0184611 13.1301401 33.8829006 13.2083906 33.6810021 13.14608 33.5714 12.9895791M35.5110681 12.5751413C35.4000239 12.4186404 35.4216559 12.2259124 35.5572163 12.1476619 35.6927768 12.0694114 35.8932332 12.131722 36.0042774 12.2882229 36.1138794 12.4447239 36.0936896 12.6374519 35.956687 12.7157024 35.8211265 12.7954019 35.6206701 12.7330914 35.5110681 12.5751413M37.4507362 12.1621527C37.3411341 12.0056518 37.3613239 11.8129237 37.4983265 11.7346733 37.633887 11.6549737 37.8343434 11.7187334 37.9439454 11.8752343 38.0549896 12.0317353 38.0333576 12.2244633 37.8977972 12.3027138 37.7622368 12.3809642 37.5603382 12.3186537 37.4507362 12.1621527M39.3904042 11.7462659C39.27936 11.589765 39.300992 11.398486 39.4365525 11.3187865 39.5721129 11.2390869 39.7725693 11.3028466 39.8836135 11.4593475 39.9932156 11.6158485 39.9730257 11.8085765 39.8360231 11.886827 39.7004627 11.9679756 39.5000063 11.904216 39.3904042 11.7462659M41.3300723 11.3332773C41.2190281 11.1767764 41.2406601 10.9840483 41.3776627 10.9057979 41.5132231 10.8260983 41.7122374 10.8898579 41.8232816 11.047808 41.9343258 11.205758 41.9126938 11.397037 41.7771333 11.4752874 41.6415729 11.5535379 41.4396744 11.4897783 41.3300723 11.3332773M40.3595172 11.5404962C40.248473 11.3839952 40.270105 11.1912672 40.4056654 11.1130167 40.542668 11.0333171 40.7416823 11.0970768 40.8527265 11.2535777 40.9637707 11.4100787 40.9421387 11.6028067 40.8065782 11.6810572 40.6695757 11.7607568 40.4705614 11.6969971 40.3595172 11.5404962M38.4212913 11.9549339C38.3102471 11.7984329 38.331879 11.6057049 38.4674395 11.5274544 38.6029999 11.4477549 38.8034563 11.5115145 38.9130584 11.6680155 39.0241026 11.8245164 39.0024706 12.0172444 38.8669102 12.0954949 38.7313497 12.1737454 38.5308933 12.1114348 38.4212913 11.9549339M36.4801811 12.3679225C36.3691369 12.2114215 36.3907688 12.0186935 36.5263293 11.940443 36.6633319 11.8607435 36.8623461 11.9245031 36.9733903 12.0810041 37.0844345 12.237505 37.0628025 12.4302331 36.9272421 12.5084835 36.7902395 12.5881831 36.5912252 12.5258725 36.4801811 12.3679225M34.5419551 12.7823602C34.4309109 12.6258592 34.4525429 12.4331312 34.5881034 12.3548807 34.7236638 12.2766303 34.9241202 12.3389408 35.0337223 12.4968909 35.1447665 12.6533918 35.1231345 12.8446708 34.987574 12.9243703 34.8520136 13.0026208 34.6515572 12.9388612 34.5419551 12.7823602M32.6008449 13.1953488C32.4898007 13.0388479 32.5114327 12.8475689 32.6469931 12.7678694 32.7839957 12.6881698 32.98301 12.7519295 33.0940542 12.9098795 33.2050984 13.0678295 33.1834664 13.2591085 33.047906 13.3373589 32.9109034 13.4170585 32.7118891 13.3532989 32.6008449 13.1953488M30.662619 13.6112356C30.5515748 13.4532856 30.5732068 13.2620066 30.7087672 13.1837562 30.8443277 13.1040566 31.0447841 13.1678162 31.1558283 13.3243172 31.2654303 13.4808182 31.2452405 13.6735462 31.1082379 13.7517967 30.9726774 13.8300471 30.772221 13.7677366 30.662619 13.6112356M28.7229509 14.0242242C28.6119067 13.8677233 28.6335387 13.6749953 28.7705413 13.5967448 28.9061017 13.5170452 29.105116 13.5808049 29.2161602 13.7373058 29.3272044 13.8938068 29.3055724 14.0865348 29.1700119 14.1647853 29.0344515 14.2430358 28.832553 14.1821743 28.7229509 14.0242242M67.8206023 18.5149321L14.1920249 29.962687M68.7954838 17.5368012L67.8206023 18.5149321M13.9050405 29.2526364L68.7954838 17.5368012M54.9841818 130.800018L13.9050405 29.2526364M109.874625 119.084183L54.9841818 130.800018M108.612759 119.352263L67.8206023 18.5149321M68.7954838 17.5368012L109.874625 119.084183M84.4628101 142.862184L84.37484 142.950578M84.2666801 142.372394L84.4628101 142.862184M84.1513095 142.397029L84.37484 142.950578M84.37484 142.950578L87.021153 142.386885M89.265111 141.52613L88.6522047 142.144888M88.3882945 141.492801L88.6522047 142.144888M88.6522047 142.144888L82.4784359 143.462105M82.4784359 143.462105L83.0927843 142.843346M83.0927843 142.843346L84.0344968 142.421663M84.0344968 142.421663L88.8829459 141.387018M88.6031722 141.66814L89.265111 141.52613M88.6031722 141.66814L88.5224128 141.463819M87.021153 142.386885L87.109123 142.297042M86.9115509 141.807252L87.109123 142.297042M87.109123 142.297042L84.4628101 142.862184M88.6046143 141.666691L88.6031722 141.66814M88.5238549 141.463819L88.6046143 141.666691M88.8829459 141.387018L88.884388 141.385569M88.884388 141.385569L89.2665531 141.524681M89.2665531 141.524681L88.6046143 141.666691M107.658068 138.869961L61.4968517 148.723725M111.310989 135.196536L107.658068 138.869961M65.1483309 145.050299L111.310989 135.196536M61.4968517 148.723725L65.1483309 145.050299M97.8717571 139.703184C97.9294424 139.61334 98.1486465 139.493067 98.3591978 139.433654 98.5697492 139.372793 98.6923304 139.397427 98.6346451 139.485821 98.5755177 139.574215 98.3577557 139.695938 98.1457622 139.755351 97.9337688 139.814763 97.8126297 139.793027 97.8717571 139.703184M47.4749984 140.607411C47.4519243 140.549448 47.4894198 140.468299 47.5846005 140.374109M47.5846005 140.374109L1.51423901 26.4950316M1.51423901 26.4950316C1.42050041 26.589222 1.38300497 26.6703706 1.40607908 26.728334M61.3180273 148.82516C61.3829232 148.81067 61.4434928 148.777341 61.4968517 148.723725M61.4968517 148.723725C56.140772 149.865602 49.9122022 146.128417 47.5846005 140.374109M1.51423901 26.4950316C-.0519167662 22.620184.510514868 18.6395533 2.97656126 16.1587233M107.479243 138.971397C107.544139 138.956906 107.604709 138.923577 107.658068 138.869961M111.680175 136.716624C110.607228 137.79619 109.227108 138.535223 107.658068 138.869961M1.51423901 26.4950316L5.16571824 22.8216065M6.62804049 12.4852982C4.16199409 14.9661281 3.59956246 18.9467588 5.16571824 22.8216065M51.2346376 136.700684L47.5846005 140.374109M5.16571824 22.8216065L51.2346376 136.700684M5.8939951 22.4738266C5.62575847 22.5303408 5.29983655 22.6868418 5.16571824 22.8216065M51.2346376 136.700684C51.3687559 136.565919 51.6946778 136.409418 51.9629144 136.352904M51.9629144 136.352904L5.8939951 22.4738266M11.1029773 10.6087359C11.0135651 10.3855771 10.8664676 10.2537105 10.7381178 10.2812431M5.8939951 22.4738266C3.681764 17.0078859 6.01369209 11.695548 11.1029773 10.6087359M65.1483309 145.050299C65.2824492 144.914086 65.2968706 144.572102 65.1800578 144.285184M65.1800578 144.283735C60.0922147 145.369098 54.1737034 141.818845 51.9629144 136.351455M51.2346376 136.700684C53.5622393 142.456441 59.7922512 146.193626 65.1483309 145.050299M57.2656353.754972187C57.176223.531813422 57.0291255.399946878 56.9022179.427479453M11.1029773 10.6087359L57.2656353.754972187M111.310989 135.196536C111.445107 135.061771 111.460971 134.718338 111.342716 134.43142M111.342716 134.43142L65.1800578 144.283735M70.4827787 8.68725194C70.6471817 8.65247395 70.7582259 8.66116845 70.7784158 8.71188635M57.2656353.754972187C62.3534783-.331839982 68.2719897 3.21986219 70.4827787 8.68725194M116.847335 122.590964C116.825703 122.541695 116.714659 122.531551 116.551698 122.566329M116.551698 122.566329C118.762487 128.03227 116.430559 133.344608 111.342716 134.43142M111.310989 135.196536C112.880029 134.861798 114.26015 134.122765 115.331654 133.044648M70.4827787 8.68725194L116.551698 122.566329M56.6195599 91.04298L56.9051022 90.7676542M60.3272823 94.8642116L60.5839819 94.6149693M53.4497529 83.2077888L53.7569271 82.9092777M57.1560332 87.0275713L57.437249 86.7565928M50.367916 75.5885109L50.6981643 75.2697127M54.0756384 79.4097425L54.3770441 79.1170278M47.1101389 67.5345082L47.4634614 67.1939737M50.8164192 71.3557398L51.1423411 71.0398397M47.4749984 140.607411L1.40607908 26.728334"/>
      <path d="M47.4749984 140.607411C47.9119645 141.688427 48.5061231 142.72742 49.2257472 143.680916 49.9468134 144.632964 50.7933451 145.499515 51.729289 146.241446 52.6652329 146.983376 53.690589 147.599236 54.7620934 148.060045 55.8321557 148.520853 56.946924 148.826609 58.0559238 148.959925 59.1663658 149.091792 60.2710392 149.049768 61.3180273 148.82516M2.97656126 16.1572743C2.46893066 16.6673514 2.03196454 17.2455355 1.67431571 17.8773356 1.31666688 18.5091358 1.04121959 19.1902048.850858113 19.9060517.660496637 20.6218986.555220972 21.3681763.535031118 22.1303939.514841265 22.8926115.581179355 23.6678709.728276859 24.438783.875374364 25.2111442 1.10323128 25.9791581 1.40607908 26.728334M107.479243 138.971397L61.3180273 148.82516M107.479243 138.971397C107.800839 138.901841 108.116666 138.817794 108.425282 138.71346 108.73534 138.612024 109.036746 138.493199 109.329499 138.356986 109.62081 138.220772 109.90491 138.070067 110.178915 137.903423 110.451478 137.735329 110.715388 137.552745 110.966319 137.35422 111.21725 137.155696 111.455202 136.942681 111.680175 136.716624M6.62804049 12.4852982L2.97656126 16.1572743M6.62804049 12.4852982C6.84724461 12.2650376 7.07942792 12.0578188 7.3231483 11.8636416 7.56831081 11.6709136 7.82501037 11.4912273 8.09036273 11.327481 8.35715723 11.1637346 8.63548878 11.0159282 8.92103099 10.8826125 9.20801534 10.750746 9.50365248 10.6333703 9.80650028 10.5333835 10.1093481 10.4319477 10.4208487 10.3479009 10.7381178 10.2812431M56.9022179.427479453L10.7381178 10.2812431M56.9022179.427479453C57.9333426.207218854 59.027921.163746367 60.1340366.29561291 61.2415943.427479453 62.3578047.733235944 63.4321934 1.19694247 64.5080241 1.660649 65.5420331 2.28085647 66.4866298 3.03003233 67.4326686 3.77920818 68.2878531 4.65445425 69.01613 5.61519621 69.7429647 6.57738725 70.3400075 7.62507418 70.7798579 8.71188635M116.847335 122.590964C117.151625 123.344487 117.379482 124.11395 117.526579 124.884862 117.675119 125.655774 117.738573 126.426686 117.719825 127.183107 117.699635 127.93808 117.595802 128.675663 117.408325 129.379917 117.220847 130.084171 116.951169 130.750749 116.60073 131.36661 116.251734 131.983919 115.824863 132.547612 115.330212 133.044648M116.847335 122.590964L70.7784158 8.71188635M115.331654 133.043199L111.680175 136.716624"/>
    </g>
    <path fill="#FFBAB3" d="M9.31348672,31.790047 L5.65684876,23.7597444 L0.45629699,23.7597444 L8.62888284,41.8901836 L9.99199621,41.8901836 C13.1488937,30.7530888 18.4997739,20.2528659 25.7094451,11.1876463 L25.0106209,1.02014831 C17.7704777,10.1037392 12.4541324,20.5386418 9.31348672,31.790047 Z" transform="translate(453.411 124.725)"/>
  </g>
</svg>
