<svg xmlns="http://www.w3.org/2000/svg" viewBox="0 0 335 261">
  <g fill="none" fill-rule="evenodd" transform="translate(-651 -307)">
    <g stroke="#9B9B9B" stroke-width=".4" transform="translate(723 363)" stroke-linecap="round" stroke-linejoin="round">
      <path d="M1.45740828 60.8654019L62.4546509 41.5559439M62.4546509 41.6731963L1.50018935 60.969785M62.4546509 41.5559439C64.0760533 40.9711121 66.8197456 40.8781682 68.5466746 41.3500374M68.5466746 41.4672897C66.8197456 40.9939907 64.0746272 41.0869346 62.4546509 41.6731963M68.5466746 41.3514673C73.4579408 42.6398131 80.3228757 41.830486 83.9749527 39.5340561M83.9749527 39.6513084C80.3228757 41.9477383 73.4579408 42.7556355 68.5466746 41.4687196M83.9749527 39.5340561L90.2708994 35.8906542M90.2708994 36.0064766L83.9749527 39.6513084M90.2708994 35.8906542C95.839568 32.666215 104.869225 32.666215 110.437893 35.8906542M110.437893 36.0064766C104.869225 32.7834673 95.839568 32.7834673 90.2708994 36.0064766M110.437893 35.8906542L125.398432 44.5501682M125.322852 44.6245234L110.437893 36.0064766M125.398432 44.5501682L74.9638343 92.9968318M74.9638343 92.9968318C74.831213 94.6140561 72.9574024 96.8833178 70.8668343 97.9571776M70.8668343 97.9571776L61.7245207 103.249262M61.7245207 103.249262L5.42749112 70.6588318M83.1820769 95.2718131L102.336586 76.2368972M102.336586 76.3541495L83.1820769 95.3890654M102.336586 76.2368972C103.659947 74.7984112 106.92842 73.9132991 109.684947 74.2450374M109.684947 74.3622897C106.926994 74.0291215 103.659947 74.9156636 102.336586 76.3541495M109.684947 74.2450374L174.961722 80.6324299M174.961722 80.7496822L109.684947 74.3622897M174.961722 80.6324299C177.002379 80.8998224 179.797408 80.3821963 181.192071 79.4813551M181.193497 79.5971776C179.797408 80.4994486 177.003805 81.0156449 174.963148 80.7496822M181.193497 79.4813551L240.495183 45.1492991M240.495183 45.2665514L181.193497 79.5971776M240.495183 45.1492991L236.763249 42.9887103M236.763249 42.9887103L179.71042 76.0181215M179.71042 76.0181215C178.314331 76.9189626 175.520728 77.4351589 173.480071 77.1691963M173.480071 77.1691963L118.018698 71.7427009M118.018698 71.7427009C117.335627 71.6940841 116.197651 71.4552897 115.617254 71.2393738 112.214734 70.0911589 111.063923 67.564514 113.046112 65.5955327M113.046112 65.712785C112.487107 66.2046729 112.036479 67.1441215 112.077834 67.7318131M113.046112 65.5955327L133.994574 44.7789533M133.994574 44.8947757L113.046112 65.712785M133.994574 44.7789533L133.504018 25.7511869M133.504018 25.7511869C133.254462 23.7936449 135.145385 21.0939813 137.67945 19.7913364M137.67945 19.9071589C135.226669 21.1683364 133.332893 23.790785 133.502592 25.6868411M137.67945 19.7899065L199.247107 4.10097196M199.247107 4.2182243L137.67945 19.9071589M199.247107 4.10097196L193.172195.584831776M193.172195.584831776L129.037675 17.7608692M129.037675 17.7608692C126.503609 19.0649439 124.61126 21.7646075 124.860817 23.7207196M124.862243 23.8394019C124.862243 23.8079439 124.860817 23.7478879 124.860817 23.7164299M124.862243 23.7221495L125.275793 39.795729M125.272941 39.7928692L124.862243 23.8394019M125.275793 39.795729L114.484982 33.5470374M114.484982 33.5470374C106.681716 29.0285327 94.028503 29.0285327 86.2252367 33.5470374M86.2252367 33.5470374L79.9292899 37.1918692M79.9292899 37.1918692C77.6604675 38.6117664 73.4394024 39.0679065 70.4375976 38.2171121M70.4375976 38.2171121C68.6607574 37.6909065 65.8272249 37.760972 64.1330947 38.3701121M64.1330947 38.3701121L24.1969704 51.0133458M24.1969704 51.0133458L21.1794793 49.266M21.1794793 49.266C18.394432 47.6544953 18.394432 45.0406262 21.1794793 43.4276916M21.1794793 43.5449439C19.9659231 44.1683832 19.0190355 45.4667383 19.0917633 46.404757M21.1794793 43.4291215L29.1838166 38.7933645M29.1838166 38.9106168L21.1794793 43.5449439M29.1838166 38.7933645L25.9952012 36.948785M25.9952012 36.948785L16.3537751 42.5311402M16.3537751 42.5311402C13.5687278 44.1426449 13.5687278 46.756514 16.3537751 48.3694486M16.3537751 48.485271C15.1145503 47.8489626 14.1676627 46.5248692 14.2660592 45.5668318M16.3537751 48.3680187L22.0793077 51.683972M21.9495385 51.7240093L16.3537751 48.485271M22.0793077 51.683972L.504816568 58.5132056M6.43142012 73.1354299L60.087432 104.19729M59.9861834 104.255916L6.49416568 73.287M60.087432 104.19729L26.829432 123.450981M29.1381834 129.146299L44.506568 120.249421M44.506568 120.366673L29.1766864 129.242103M44.506568 120.249421L97.3967988 150.868009M97.3967988 150.985262L44.506568 120.366673M97.3967988 150.868009L99.0353136 149.921411M99.0353136 150.037234L97.3967988 150.985262M99.0353136 149.921411L46.1450828 119.301393M46.1450828 119.301393L79.0850769 100.232159M79.0850769 100.347981L46.2449053 119.360019M79.0850769 100.232159C81.1742189 99.1582991 83.0494556 96.8876075 83.1820769 95.2718131M83.1820769 95.3890654C83.0494556 97.0048598 81.175645 99.2741215 79.0850769 100.347981M1.50018935 60.969785L1.44172189 60.9883738M125.398432 44.6674206L125.322852 44.6245234M74.9638343 93.1140841L125.398432 44.6674206M70.8668343 98.0744299C72.9559763 96.9991402 74.831213 94.7298785 74.9638343 93.1140841M61.7245207 103.366514L70.8668343 98.0744299M5.49023669 70.8104019L61.7245207 103.366514M236.763249 43.1059626L240.495183 45.2665514M179.71042 76.1353738L236.763249 43.1059626M173.480071 77.2864486C175.520728 77.5538411 178.315757 77.036215 179.71042 76.1353738M118.018698 71.8599533L173.480071 77.2864486M112.077834 67.7318131C111.966604 69.7265327 114.611899 71.5639626 118.018698 71.8599533M133.504018 25.8670093L133.994574 44.8947757M133.502592 25.6868411C133.502592 25.7325981 133.502592 25.8226822 133.504018 25.8670093M193.172195.702084112L199.247107 4.2182243M129.037675 17.8781215L193.172195.702084112M124.860817 23.715C124.66545 21.8003551 126.559225 19.1521682 129.039101 17.8766916M114.484982 33.6642897L125.275793 39.9115514M86.2252367 33.6642897C94.028503 29.147215 106.681716 29.147215 114.484982 33.6642897M79.9292899 37.3091215L86.2252367 33.6642897M70.4375976 38.3343645C73.4379763 39.1851589 77.6590414 38.7290187 79.9292899 37.3091215M64.1330947 38.4873645C65.8272249 37.8767944 68.6607574 37.8081589 70.4375976 38.3343645M24.1969704 51.1305981L64.1330947 38.4873645M21.1794793 49.3832523L24.1969704 51.1305981M19.0917633 46.4061869C18.9676982 47.384243 19.9131598 48.7326449 21.1794793 49.3832523M25.9952012 37.0646075L29.1838166 38.9106168M16.3537751 42.6469626L25.9952012 37.0646075M14.2646331 45.5668318C14.1662367 44.6087944 15.1131243 43.2847009 16.3523491 42.6469626M22.0793077 51.7997944L21.9495385 51.7240093M.546171598 58.6175888L22.0793077 51.7997944M60.087432 104.314542L59.9861834 104.255916M26.8679349 123.545355L60.087432 104.314542M46.1450828 119.418645L99.0353136 150.037234M46.2449053 119.360019L46.1450828 119.418645"/>
    </g>
    <g fill-rule="nonzero" stroke="#D9766C" stroke-width=".5" transform="translate(782.118 468.462)" stroke-linecap="round" stroke-linejoin="round">
      <path fill="#D9766C" d="M30.486053 22.5450551L31.8465223 21.7474287M26.082387 19.9584205L30.486053 22.5450551M30.486053 20.9481877L30.486053 22.5450551M31.9973328 21.833004L25.6093184 18.0822224M17.3353793 13.2238058L13.6143291 11.0392137M13.6143291 11.0392137L31.9973328.242194246M31.9973328.242194246L50.3819239 11.0392137M50.3819239 11.0392137L31.9973328 21.833004M31.9973328 7.29811995L31.9973328.242194246M31.9973328 7.29811995L13.6143291 11.0392137M31.9973328 7.29811995L50.3819239 11.0392137M31.8465223 21.7474287L22.4819853 27.2452381M24.0377144.3536036L27.9254498 2.6350734M.360469266 14.2555533L24.0377144.3536036M22.4819853 27.2452381L.360469266 14.2555533M22.4819853 30.4373582L46.1592305 16.5337939M.360469266 17.4476735L22.4819853 30.4373582M46.1592305 13.5192828L46.1592305 16.5337939M.360469266 14.2555533L.360469266 17.4476735M22.4819853 27.2452381L22.4819853 30.4373582"/>
      <path d="M26.1268364 20.1376443C26.2935217 20.7996419 24.9457523 21.7215946 23.1185643 22.19791 21.2913762 22.6742253 19.6737354 22.5208356 19.5070502 21.858838M18.1830929 13.6000142C19.443551 13.8276768 21.5469603 13.3755809 22.8804424 12.5941008 24.2139246 11.8110061 24.2742488 10.9907749 23.0137907 10.7631123 21.7533326 10.5354497 19.6499232 10.9875456 18.3164411 11.7706404 16.982959 12.5537351 16.9242223 13.3723517 18.1830929 13.6000142"/>
      <path fill="#D9766C" d="M19.5070502 21.858838L17.2893424 13.0429675M26.1268364 20.1376443L23.9091287 11.3217737M31.9973328 7.29811995L31.9973328 21.833004"/>
    </g>
    <g stroke="#4DA6B2" stroke-width=".4" transform="translate(816.043 474.92)" stroke-linecap="round" stroke-linejoin="round">
      <path d="M11.7916986 11.0520231L11.7916986 19.2788773M11.7916986 19.2788773L13.4422095 20.2450709M13.4422095 12.0182167L13.4422095 20.2450709M11.7916986 11.0520231L13.4422095 12.0182167M13.4001881 10.1118789L11.7916986 11.0520231M15.050699 11.0780725L13.4422095 12.0182167M13.4001881 10.1118789L15.050699 11.0780725M15.050699 19.293086L15.050699 11.0780725M15.0740443 20.2805927L15.050699 19.293086M15.1510837 21.0739134L15.0740443 20.2805927M15.2818172 21.6635757L15.1510837 21.0739134M15.3518531 21.8411848L15.2818172 21.6635757M15.6810215 22.3408584L15.3518531 21.8411848M16.1829449 22.5871431L15.6810215 22.3408584M15.6319964 22.2650785L16.1829449 22.5871431M16.360369 22.6108243L16.1829449 22.5871431M15.5456189 22.1348318L16.360369 22.6108243M15.2934899 21.5996364L15.2678101 21.5996364M16.9440009 22.56583L16.360369 22.6108243M15.2934899 21.5996364L16.9440009 22.56583M15.9775065 21.3509836L15.2934899 21.5996364M17.6280174 22.3171772L16.9440009 22.56583M15.9775065 21.3509836L17.6280174 22.3171772M16.4560846 21.0975946L15.9775065 21.3509836M18.1065956 22.0637882L17.6280174 22.3171772M16.4560846 21.0975946L18.1065956 22.0637882M17.2778383 20.5647673L16.4560846 21.0975946M18.9283493 21.5309609L18.1065956 22.0637882M17.2778383 20.5647673L18.9283493 21.5309609M17.9688584 19.9774731L17.2778383 20.5647673M19.6193694 20.9436667L18.9283493 21.5309609M17.9688584 19.9774731L19.6193694 20.9436667M18.5314796 19.3593934L17.9688584 19.9774731M20.1819905 20.325587L19.6193694 20.9436667M18.5314796 19.3593934L20.1819905 20.325587M18.9843779 18.6868469L18.5314796 19.3593934M20.6348889 19.6530405L20.1819905 20.325587M18.9843779 18.6868469L20.6348889 19.6530405M19.2621867 18.0403497L18.9843779 18.6868469M20.9126977 19.0065433L20.6348889 19.6530405M19.2621867 18.0403497L20.9126977 19.0065433M19.4863013 17.2872871L19.2621867 18.0403497M21.1368123 18.2534807L20.9126977 19.0065433M19.4863013 17.2872871L21.1368123 18.2534807M19.631042 16.427659L19.4863013 17.2872871M21.281553 17.3938526L21.1368123 18.2534807M19.631042 16.427659L21.281553 17.3938526M19.715085 15.4401523L19.631042 16.427659M21.3679305 16.4063459L21.281553 17.3938526M19.715085 15.4401523L21.3679305 16.4063459M19.7384303 14.616046L19.715085 15.4401523M21.3912758 15.5822396L21.3679305 16.4063459M19.7384303 14.616046L21.3912758 15.5822396M19.7384303 6.39629622L19.7384303 14.616046M21.3912758 7.3624898L21.3912758 15.5822396M19.7384303 6.39629622L21.3912758 7.3624898M21.3399162 5.46088822L19.7384303 6.39629622M22.9904272 6.4270818L21.3912758 7.3624898M21.3399162 5.46088822L22.9904272 6.4270818M22.9904272 14.653936L22.9904272 6.4270818M22.9670819 15.6248658L22.9904272 14.653936M22.9063842 16.524752L22.9670819 15.6248658M22.7896578 17.3488583L22.9063842 16.524752M22.6285754 18.1090253L22.7896578 17.3488583M22.5842194 18.3008431L22.6285754 18.1090253M22.2830653 19.1699437L22.5842194 18.3008431M21.8675194 20.0343081L22.2830653 19.1699437M21.3445853 20.8702549L21.8675194 20.0343081M21.0901218 21.2183688L21.3445853 20.8702549M20.5508459 21.8672341L21.0901218 21.2183688M19.9368652 22.4616326L20.5508459 21.8672341M19.2505141 23.015773L19.9368652 22.4616326M18.4987962 23.5320235L19.2505141 23.015773M18.2513363 23.6835833L18.4987962 23.5320235M17.466935 24.0980046L18.2513363 23.6835833M16.7595732 24.3963879L17.466935 24.0980046M16.1199126 24.5716289L16.7595732 24.3963879M15.5502879 24.6332L16.1199126 24.5716289M15.4592413 24.6237276L15.5502879 24.6332M14.882613 24.5124258L15.4592413 24.6237276M14.4063694 24.2306194L14.882613 24.5124258M12.7558585 23.2644258L14.4063694 24.2306194M12.3846686 22.8263233L12.7558585 23.2644258M14.0351795 23.7925169L14.4063694 24.2306194M12.3846686 22.8263233L14.0351795 23.7925169M12.2632731 22.5610937L12.3846686 22.8263233M13.9137841 23.5320235L14.0351795 23.7925169M12.2632731 22.5610937L13.9137841 23.5320235M12.0788455 22.040107L12.2632731 22.5610937M13.7293564 23.0086687L13.9137841 23.5320235M12.0788455 22.040107L13.7293564 23.0086687M11.9387738 21.4007142L12.0788455 22.040107M13.5892848 22.3669077L13.7293564 23.0086687M11.9387738 21.4007142L13.5892848 22.3669077M11.8453927 20.6358109L11.9387738 21.4007142M13.4959037 21.6020045L13.5892848 22.3669077M11.8453927 20.6358109L13.4959037 21.6020045M11.8010367 19.7430291L11.8453927 20.6358109M13.4515477 20.7092227L13.4959037 21.6020045M11.8010367 19.7430291L13.4515477 20.7092227M11.7916986 19.2788773L11.8010367 19.7430291M13.4422095 20.2450709L13.4515477 20.7092227M5.19899282 21.6801525L3.71189878 22.5492531M6.85183832 22.6463461L3.71189878 24.4863765M5.19899282 21.6801525L6.85183832 22.6463461M6.03942273 21.1354846L5.19899282 21.6801525M7.6899337 22.1016781L6.85183832 22.6463461M6.03942273 21.1354846L7.6899337 22.1016781M6.71643572 20.5671354L6.03942273 21.1354846M8.36694669 21.5356971L7.6899337 22.1016781M6.71643572 20.5671354L8.36694669 21.5356971M7.23936989 19.9632644L6.71643572 20.5671354M8.88988085 20.929458L8.36694669 21.5356971M7.23936989 19.9632644L8.88988085 20.929458M7.41445945 19.7051392L7.23936989 19.9632644M9.06497042 20.6713327L8.88988085 20.929458M7.41445945 19.7051392L9.06497042 20.6713327M7.80666008 18.8928735L7.41445945 19.7051392M9.45717105 19.8590671L9.06497042 20.6713327M7.80666008 18.8928735L9.45717105 19.8590671M8.02377114 18.0356135L7.80666008 18.8928735M9.67428211 19.0018071L9.45717105 19.8590671M8.02377114 18.0356135L9.67428211 19.0018071M8.07046169 17.4151657L8.02377114 18.0356135M9.72097266 18.3813592L9.67428211 19.0018071M8.07046169 17.4151657L9.72097266 18.3813592M8.01443303 16.9557501L8.07046169 17.4151657M9.62759156 17.6069835L9.72097266 18.3813592M8.31091803 16.8326078L9.62759156 17.6069835M9.33577561 17.0646837L9.62759156 17.6069835M8.85019389 16.7994541L9.33577561 17.0646837M8.32025614 16.8302396L8.85019389 16.7994541M7.79732197 17.0457387L8.32025614 16.8302396M6.98957544 17.4838412L7.79732197 17.0457387M3.71189878 19.4020196L6.98957544 17.4838412M3.71189878 24.4863765L3.71189878 19.4020196M.459901924 17.6898677L.459901924 31.9246462M.459901924 31.9246462L2.11041289 32.8932079M2.11041289 18.6560613L2.11041289 32.8932079M.459901924 17.6898677L2.11041289 18.6560613M5.03791042 15.0067861L.459901924 17.6898677M6.68842139 15.9729796L2.11041289 18.6560613M5.03791042 15.0067861L6.68842139 15.9729796M5.86199864 14.5544749L5.03791042 15.0067861M7.51250961 15.5206684L6.68842139 15.9729796M5.86199864 14.5544749L7.51250961 15.5206684M6.53200804 14.2158335L5.86199864 14.5544749M8.18251901 15.1820271L7.51250961 15.5206684M6.53200804 14.2158335L8.18251901 15.1820271M6.8845217 14.0690099L6.53200804 14.2158335M8.53503267 15.0375716L8.18251901 15.1820271M6.8845217 14.0690099L8.53503267 15.0375716M7.59188354 13.855879L6.8845217 14.0690099M9.24239451 14.8220726L8.53503267 15.0375716M7.59188354 13.855879L9.24239451 14.8220726M8.1988607 13.8227253L7.59188354 13.855879M9.8517062 14.7889189L9.24239451 14.8220726M8.1988607 13.8227253L9.8517062 14.7889189M8.38328838 13.8511428L8.1988607 13.8227253M10.0361339 14.8173363L9.8517062 14.7889189M8.38328838 13.8511428L10.0361339 14.8173363M8.87587369 14.0737462L8.38328838 13.8511428M10.5263847 15.0423079L10.0361339 14.8173363M8.87587369 14.0737462L10.5263847 15.0423079M10.9279234 15.4827785L10.5263847 15.0423079M11.0119664 15.6248658L10.9279234 15.4827785M11.2430846 16.2287368L11.0119664 15.6248658M11.3574765 16.9604863L11.2430846 16.2287368M11.3738182 17.3488583L11.3574765 16.9604863M11.320124 18.2084864L11.3738182 17.3488583M11.152038 19.0752188L11.320124 18.2084864M10.8742293 19.9395832L11.152038 19.0752188M10.4890322 20.8039475L10.8742293 19.9395832M10.3886475 20.9981335L10.4890322 20.8039475M9.98944332 21.6375263L10.3886475 20.9981335M9.48985443 22.2532379L9.98944332 21.6375263M8.89688444 22.8523727L9.48985443 22.2532379M8.19652618 23.4349306L8.89688444 22.8523727M7.39811776 23.9938072L8.19652618 23.4349306M6.82615851 24.3442892L7.39811776 23.9938072M3.71189878 26.1701109L6.82615851 24.3442892M3.71189878 31.9554318L3.71189878 26.1701109M2.11041289 32.8932079L3.71189878 31.9554318M28.1870855 7.43590157L27.2065839 8.00898698M29.8375964 8.40209515L27.2065839 9.94137414M28.1870855 7.43590157L29.8375964 8.40209515M29.0251808 6.90781047L28.1870855 7.43590157M30.6756918 7.87400405L29.8375964 8.40209515M29.0251808 6.90781047L30.6756918 7.87400405M29.6158163 6.46260363L29.0251808 6.90781047M31.2663273 7.42879721L30.6756918 7.87400405M29.6158163 6.46260363L31.2663273 7.42879721M29.716201 6.37498313L29.6158163 6.46260363M31.366712 7.34354483L31.2663273 7.42879721M29.716201 6.37498313L31.366712 7.34354483M30.348858 5.63612922L29.716201 6.37498313M31.9993689 6.6023228L31.366712 7.34354483M30.348858 5.63612922L31.9993689 6.6023228M30.6406739 5.12224685L30.348858 5.63612922M32.2911849 6.08844043L31.9993689 6.6023228M30.6406739 5.12224685L32.2911849 6.08844043M30.902141 4.27682746L30.6406739 5.12224685M32.552652 5.24302104L32.2911849 6.08844043M30.902141 4.27682746L32.552652 5.24302104M30.9488315 3.69900581L30.902141 4.27682746M32.5993425 4.66756751L32.552652 5.24302104M30.9488315 3.69900581L32.5993425 4.66756751M30.9254863 3.53323731L30.9488315 3.69900581M32.4919542 3.92634548L32.5993425 4.66756751M31.4741002 3.32957886L32.4919542 3.92634548M32.3075266 3.58533598L32.4919542 3.92634548M31.835952 3.30826576L32.3075266 3.58533598M31.4834383 3.32721073L31.835952 3.30826576M30.9745113 3.50718797L31.4834383 3.32721073M30.2531423 3.86951056L30.9745113 3.50718797M29.6368271 4.21999255L30.2531423 3.86951056M27.2065839 5.64323358L29.6368271 4.21999255M27.2065839 9.94137414L27.2065839 5.64323358M28.5792861 13.7729948L27.2065839 14.575788M30.2297971 14.7415565L27.2065839 16.5105432M28.5792861 13.7729948L30.2297971 14.7415565M29.380029 13.2756892L28.5792861 13.7729948M31.03054 14.2442509L30.2297971 14.7415565M29.380029 13.2756892L31.03054 14.2442509M29.671845 13.0720308L29.380029 13.2756892M31.3223559 14.0382244L31.03054 14.2442509M29.671845 13.0720308L31.3223559 14.0382244M30.3651997 12.4207974L29.671845 13.0720308M32.0157106 13.3869909L31.3223559 14.0382244M30.3651997 12.4207974L32.0157106 13.3869909M30.6009869 12.1366228L30.3651997 12.4207974M32.2514979 13.1028164L32.0157106 13.3869909M30.6009869 12.1366228L32.2514979 13.1028164M31.0772305 11.3077803L30.6009869 12.1366228M32.730076 12.276342L32.2514979 13.1028164M31.0772305 11.3077803L32.730076 12.276342M31.2173022 10.9762432L31.0772305 11.3077803M32.8678132 11.9424368L32.730076 12.276342M31.2173022 10.9762432L32.8678132 11.9424368M31.4250752 10.114247L31.2173022 10.9762432M33.0755861 11.0828087L32.8678132 11.9424368M31.4250752 10.114247L33.0755861 11.0828087M31.455424 9.64535895L31.4250752 10.114247M33.105935 10.6115525L33.0755861 11.0828087M31.455424 9.64535895L33.105935 10.6115525M31.4040644 9.29250884L31.455424 9.64535895M32.9985467 9.86559425L33.105935 10.6115525M31.7985996 9.16226216L32.9985467 9.86559425M32.7604249 9.42749177L32.9985467 9.86559425M32.2841813 9.15752591L32.7604249 9.42749177M31.7985996 9.16226216L32.2841813 9.15752591M31.2383129 9.34697564L31.7985996 9.16226216M30.521613 9.6950895L31.2383129 9.34697564M30.012686 9.97215972L30.521613 9.6950895M27.2065839 11.6180042L30.012686 9.97215972M27.2065839 16.5105432L27.2065839 11.6180042M25.600429 19.13679L30.2297971 16.4252909M23.9475835 18.1705964L25.600429 19.13679M23.9475835 3.93344984L23.9475835 18.1705964M25.600429 4.89964342L25.600429 19.13679M23.9475835 3.93344984L25.600429 4.89964342M28.5092503 1.26220877L23.9475835 3.93344984M30.1620958 2.22840235L25.600429 4.89964342M28.5092503 1.26220877L30.1620958 2.22840235M29.3006551.840683139L28.5092503 1.26220877M30.9511661 1.80924484L30.1620958 2.22840235M29.3006551.840683139L30.9511661 1.80924484M29.9940098.554140436L29.3006551.840683139M31.6445207 1.52270214L30.9511661 1.80924484M29.9940098.554140436L31.6445207 1.52270214M30.5846452.40494878L29.9940098.554140436M32.2374907 1.37114236L31.6445207 1.52270214M30.5846452.40494878L32.2374907 1.37114236M30.7410586.388371929L30.5846452.40494878M32.3915696 1.35456551L32.2374907 1.37114236M30.7410586.388371929L32.3915696 1.35456551M31.3386976.442838724L30.7410586.388371929M32.9915431 1.4090323L32.3915696 1.35456551M31.3386976.442838724L32.9915431 1.4090323M31.8242794.708068334L31.3386976.442838724M33.4771249 1.67426191L32.9915431 1.4090323M31.8242794.708068334L33.4771249 1.67426191M33.7059086 1.90870594L33.4771249 1.67426191M34.0140662 2.47705511L33.7059086 1.90870594M34.168145 3.15196974L34.0140662 2.47705511M34.1821522 3.51192421L34.168145 3.15196974M34.0981092 4.35497547L34.1821522 3.51192421M33.8459802 5.25249353L34.0981092 4.35497547M33.7619372 5.4798332L33.8459802 5.25249353M33.3533949 6.31578009L33.7619372 5.4798332M32.8047809 7.13041389L33.3533949 6.31578009M32.4849507 7.52825831L32.8047809 7.13041389M33.1619636 7.44774218L32.4849507 7.52825831M32.7464177 7.20382566L33.1619636 7.44774218M33.7222502 7.54009892L33.1619636 7.44774218M32.8678132 7.04042528L33.7222502 7.54009892M34.1821522 7.82900974L33.7222502 7.54009892M34.5229932 8.30737029L34.1821522 7.82900974M34.7144244 8.93965874L34.5229932 8.30737029M34.7681186 9.63825458L34.7144244 8.93965874M34.7074209 10.4955146L34.7681186 9.63825458M34.5136551 11.3740877L34.7074209 10.4955146M34.4156049 11.7032565L34.5136551 11.3740877M34.0304079 12.6505052L34.4156049 11.7032565M33.575175 13.465139L34.0304079 12.6505052M33.5214809 13.5503913L33.575175 13.465139M32.9611943 14.265564L33.5214809 13.5503913M32.2841813 14.9499512L32.9611943 14.265564M32.1908002 15.0328354L32.2841813 14.9499512M31.583823 15.5254047L32.1908002 15.0328354M30.8904683 16.0108696L31.583823 15.5254047M30.2297971 16.4252909L30.8904683 16.0108696"/>
    </g>
    <g fill-rule="nonzero" stroke="#D9766C" stroke-width=".5" transform="translate(739.869 371.893)" stroke-linecap="round" stroke-linejoin="round">
      <path fill="#D9766C" d="M19.7323144 13.574587L20.2810119 15.752629M24.4210387 11.1007812L24.2626682 10.4771057M24.2626682 10.4771057L23.8915376 10.5092539M20.162634 10.8243065L18.0302323 11.005944M14.3029285 11.3209966L11.7290093 11.5396045M8.00010575 11.8562645L.0495907375 12.5297697M20.901696 28.1377318L27.0701439 27.6137157M.0495907375 12.5297697L1.26856306 17.3648624M1.26856306 17.3648624L20.2810119 15.752629"/>
      <path d="M11.7674021 12.9669855L11.7674021 13.0023486C11.7498054 13.6115574 10.8859667 14.0969956 9.83656273 14.0873511 8.78715874 14.0777066 7.95051501 13.5761944 7.96811172 12.9669855M18.0702249 12.4317176L18.0702249 12.4670807C18.0542278 13.0746821 17.1887895 13.5601203 16.1393855 13.5504758 15.0899815 13.5408313 14.2533378 13.0393191 14.2709345 12.4301102"/>
      <path fill="#D9766C" d="M20.2810119 15.752629L20.2810119 25.6719631M1.26856306 27.2841964L1.26856306 17.3648624M20.2810119 25.6719631L1.26856306 27.2841964M.0495907375 22.4491038L.0495907375 12.5297697M1.26856306 27.2841964L.0495907375 22.4491038M20.2810119 25.6719631L20.901696 28.1377318M19.7323144 11.4978118L19.7323144 13.574587M19.7323144 11.4978118L25.9007623 10.9754032M25.9007623 10.9754032L27.0701439 15.6176065M20.901696 16.1416225L19.7323144 11.4978118M27.0701439 15.6176065L20.901696 16.1416225M20.901696 16.1416225L20.901696 28.1377318M10.9995455 2.85476216C11.6250287 2.49148724 11.6250287 1.90478218 10.9995455 1.54311468 10.3740623 1.18144718 9.36305118 1.17983977 8.737568 1.54311468 8.11208483 1.90638959 8.11208483 2.49309466 8.737568 2.85476216 9.36305118 3.21642966 10.3740623 3.21803707 10.9995455 2.85476216M23.1620738 1.82441163C23.787557 1.46113671 23.787557.874431652 23.1620738.512764149 22.5381903.149489235 21.5255795.149489235 20.9000963.512764149 20.2746131.876039063 20.2746131 1.46274412 20.9000963 1.82441163 21.5255795 2.18607913 22.5381903 2.18607913 23.1620738 1.82441163M17.3023683 2.32110167C17.9262517 1.95782675 17.9262517 1.37112169 17.3023683 1.00945419 16.6768851.646179272 15.6642742.646179272 15.0387911 1.00945419 14.4149076 1.3727291 14.4149076 1.95943416 15.0387911 2.32110167 15.6642742 2.68276917 16.6784848 2.68276917 17.3023683 2.32110167M11.468258 2.18447172L11.7674021 12.9669855M8.26885555 2.18447172L7.96811172 12.9669855M23.6307863 1.15251378L23.9091343 11.1441813M20.4313838 1.15251378L20.1450373 11.4624487M17.7710807 1.64920381L18.0702249 12.4317176M14.5716783 1.64920381L14.2725342 12.4317176M27.0701439 15.6176065L27.0701439 27.6137157"/>
    </g>
    <g stroke="#4DA6B2" stroke-width=".4" transform="translate(700 370.249)" stroke-linecap="round" stroke-linejoin="round">
      <path d="M42.4011702 4.33873432L42.0200733 4.53103359M25.6329075 8.72915144L32.4500442 8.12228491M42.0200733 4.53103359L42.3632972 5.95704507M42.7443941 5.7647458L42.3632972 5.95704507M42.4011702 4.33873432L42.7443941 5.7647458M42.7183564 4.09898458L42.4011702 4.33873432M43.0592133 5.52499606L42.7443941 5.7647458M42.7183564 4.09898458L43.0592133 5.52499606M42.971632 3.80928698L42.7183564 4.09898458M43.3124889 5.23779585L43.0592133 5.52499606M42.971632 3.80928698L43.3124889 5.23779585M42.9787332 3.79680001L42.971632 3.80928698M43.31959 5.22281149L43.3124889 5.23779585M42.9787332 3.79680001L43.31959 5.22281149M43.1704652 3.46464672L42.9787332 3.79680001M43.511322 4.8906582L43.31959 5.22281149M43.1704652 3.46464672L43.511322 4.8906582M43.241477 3.23238916L43.1704652 3.46464672M43.6202068 4.54352056L43.511322 4.8906582M43.3243242 3.31480314L43.6202068 4.54352056M43.6509786 4.23883859L43.6202068 4.54352056M43.4852843 3.5470607L43.6509786 4.23883859M43.6107386 3.87921398L43.6509786 4.23883859M43.4947526 3.56204506L43.6107386 3.87921398M43.3030206 3.28483442L43.4947526 3.56204506M43.0308085 3.04758207L43.3030206 3.28483442M42.7514953 2.89773848L43.0308085 3.04758207M42.4272079 2.79284797L42.7514953 2.89773848M42.0555793 2.72541836L42.4272079 2.79284797M41.6271412 2.70294182L42.0555793 2.72541836M41.1466277 2.71792618L41.6271412 2.70294182M37.1107881 3.07755079L41.1466277 2.71792618M37.1107881 6.62884382L37.1107881 3.07755079M40.270815 4.8906582L37.1107881 5.17036623M40.6140389 6.31666968L37.1107881 6.62884382M40.270815 4.8906582L40.6140389 6.31666968M40.7655308 4.83321816L40.270815 4.8906582M41.1087547 6.25922964L40.6140389 6.31666968M40.7655308 4.83321816L41.1087547 6.25922964M41.2058042 4.76329115L40.7655308 4.83321816M41.5490281 6.18930263L41.1087547 6.25922964M41.2058042 4.76329115L41.5490281 6.18930263M41.5916352 4.673385L41.2058042 4.76329115M41.9324921 6.09939648L41.5490281 6.18930263M41.5916352 4.673385L41.9324921 6.09939648M41.927758 4.56599709L41.5916352 4.673385M42.2709819 5.99200857L41.9324921 6.09939648M41.927758 4.56599709L42.2709819 5.99200857M42.0200733 4.53103359L41.927758 4.56599709M42.3632972 5.95704507L42.2709819 5.99200857M45.9967364 10.3774309L43.8521788 7.64528283M43.8521788 7.64528283L44.1954027 9.0712943M46.3399603 11.8059398L44.1954027 9.0712943M45.9967364 10.3774309L46.3399603 11.8059398M44.2877181 11.9882495L46.3399603 11.8059398M42.6591799 9.90042882L44.2877181 11.9882495M42.3822337 9.55578857L42.6591799 9.90042882M42.124224 9.24361443L42.3822337 9.55578857M41.889885 8.97139858L42.124224 9.24361443M41.6768494 8.72915144L41.889885 8.97139858M41.4803834 8.52436521L41.6768494 8.72915144M41.1679313 8.22967282L41.4803834 8.52436521M40.8815168 8.00740483L41.1679313 8.22967282M40.656646 7.88003778L40.8815168 8.00740483M40.2826503 7.74018376L40.656646 7.88003778M39.9086546 7.66026718L40.2826503 7.74018376M39.5867343 7.652775L39.9086546 7.66026718M39.1156891 7.68024633L39.5867343 7.652775M37.1107881 7.85756124L39.1156891 7.68024633M37.1107881 12.6275821L37.1107881 7.85756124M35.4775157 12.7724309L37.1107881 12.6275821M35.1366589 11.3464194L35.4775157 12.7724309M35.1366589.607628982L35.1366589 11.3464194M35.4775157 2.03364046L35.4775157 12.7724309M35.1366589.607628982L35.4775157 2.03364046M40.6022036.120637321L35.1366589.607628982M40.9454275 1.5466488L35.4775157 2.03364046M40.6022036.120637321L40.9454275 1.5466488M41.1134888.0831764242L40.6022036.120637321M41.4567127 1.5116853L40.9454275 1.5466488M41.1134888.0831764242L41.4567127 1.5116853M41.5845341.0631972792L41.1134888.0831764242M41.9253909 1.48920876L41.4567127 1.5116853M41.5845341.0631972792L41.9253909 1.48920876M42.0153392.060699886L41.5845341.0631972792M42.3561961 1.48920876L41.9253909 1.48920876M42.0153392.060699886L42.3561961 1.48920876M42.4011702.0806790311L42.0153392.060699886M42.7443941 1.50669051L42.3561961 1.48920876M42.4011702.0806790311L42.7443941 1.50669051M42.7514953.118139928L42.4011702.0806790311M43.0923521 1.54415141L42.7443941 1.50669051M42.7514953.118139928L43.0923521 1.54415141M43.0568462.170585184L42.7514953.118139928M43.3977031 1.59659666L43.0923521 1.54415141M43.0568462.170585184L43.3977031 1.59659666M43.1065545.185569543L43.0568462.170585184M43.4474113 1.61158102L43.3977031 1.59659666M43.1065545.185569543L43.4474113 1.61158102M43.4687149.300449627L43.1065545.185569543M43.8119388 1.7264611L43.4474113 1.61158102M43.4687149.300449627L43.8119388 1.7264611M43.7953694.467774966L43.4687149.300449627M44.1385933 1.89378644L43.8119388 1.7264611M43.7953694.467774966L44.1385933 1.89378644M44.091252.677555989L43.7953694.467774966M44.4321089 2.10356747L44.1385933 1.89378644M44.091252.677555989L44.4321089 2.10356747M44.3516288.932290089L44.091252.677555989M44.6924856 2.35830157L44.4321089 2.10356747M44.3516288.932290089L44.6924856 2.35830157M44.474716 1.08712846L44.3516288.932290089M44.8179399 2.51313994L44.6924856 2.35830157M44.474716 1.08712846L44.8179399 2.51313994M44.668815 1.38431825L44.474716 1.08712846M45.0096719 2.81032972L44.8179399 2.51313994M44.668815 1.38431825L45.0096719 2.81032972M44.8179399 1.69649239L44.668815 1.38431825M45.1587967 3.12250386L45.0096719 2.81032972M44.8179399 1.69649239L45.1587967 3.12250386M44.9173565 2.02864567L44.8179399 1.69649239M45.2582133 3.45465715L45.1587967 3.12250386M44.9173565 2.02864567L45.2582133 3.45465715M45.3197569 3.8017948L45.2582133 3.45465715M45.3292251 4.08899501L45.3197569 3.8017948M45.3079216 4.45860919L45.3292251 4.08899501M45.2369097 4.81573641L45.3079216 4.45860919M45.1209237 5.15538187L45.2369097 4.81573641M44.9575965 5.48004298L45.1209237 5.15538187M44.746928 5.78971973L44.9575965 5.48004298M44.4723489 6.09939648L44.746928 5.78971973M44.2285416 6.31916707L44.4723489 6.09939648M43.9373931 6.5289481L44.2285416 6.31916707M43.6107386 6.72124737L43.9373931 6.5289481M43.2533123 6.89356749L43.6107386 6.72124737M42.8532789 7.04590847L43.2533123 6.89356749M42.4201067 7.1832651L42.8532789 7.04590847M41.9514286 7.30064257L42.4201067 7.1832651M41.8591132 7.31812433L41.9514286 7.30064257M42.278083 7.4729627L41.8591132 7.31812433M42.2212736 7.23321296L42.278083 7.4729627M42.6189399 7.63029847L42.278083 7.4729627M42.5053209 7.15579377L42.6189399 7.63029847M42.8438107 7.7651577L42.6189399 7.63029847M42.6852176 7.10085112L42.8438107 7.7651577M43.1183898 7.97244133L42.8438107 7.7651577M42.8911519 7.03092412L43.1183898 7.97244133M43.3835007 8.20220149L43.1183898 7.97244133M43.085251 6.95849971L43.3835007 8.20220149M43.3053877 7.02592933L43.1894017 6.91854142M43.6462445 8.45194081L43.3835007 8.20220149M43.3053877 7.02592933L43.6462445 8.45194081M43.5610303 7.30064257L43.3053877 7.02592933M43.9042542 8.72665405L43.6462445 8.45194081M43.5610303 7.30064257L43.9042542 8.72665405M43.8095717 7.59533496L43.5610303 7.30064257M44.1527956 9.02134644L43.9042542 8.72665405M43.8095717 7.59533496L44.1527956 9.02134644M43.8521788 7.64528283L43.8095717 7.59533496M44.1954027 9.0712943L44.1527956 9.02134644M23.6611454 1.62656538L23.6611454 12.3653558M23.6611454 12.3653558L24.0043693 13.7938647M24.0043693 3.05507425L24.0043693 13.7938647M23.6611454 1.62656538L24.0043693 3.05507425M32.5707644.834891757L23.6611454 1.62656538M32.9139883 2.26090323L24.0043693 3.05507425M32.5707644.834891757L32.9139883 2.26090323M32.9139883 3.53207634L32.9139883 2.26090323M25.6329075 4.17890116L32.9139883 3.53207634M25.6329075 7.46796791L25.6329075 4.17890116M32.1091874 5.43259251L25.6329075 6.00949032M32.4500442 6.86110138L25.6329075 7.46796791M32.1091874 5.43259251L32.4500442 6.86110138M32.4500442 8.12228491L32.4500442 6.86110138M25.6329075 12.3828376L25.6329075 8.72915144M32.8595459 10.2800326L25.6329075 10.92436M33.2004027 11.7085414L25.6329075 12.3828376M32.8595459 10.2800326L33.2004027 11.7085414M33.2004027 12.9747198L33.2004027 11.7085414M24.0043693 13.7938647L33.2004027 12.9747198M12.5193876 14.8152985L21.717788 13.9961536M12.1785307 13.389287L12.5193876 14.8152985M12.1785307 2.65049656L12.1785307 13.389287M12.5193876 4.07650804L12.5193876 14.8152985M12.1785307 2.65049656L12.5193876 4.07650804M21.0881497 1.85632555L12.1785307 2.65049656M21.4290065 3.28233703L12.5193876 4.07650804M21.0881497 1.85632555L21.4290065 3.28233703M21.4290065 4.55351013L21.4290065 3.28233703M14.1502928 5.20283234L21.4290065 4.55351013M14.1502928 8.4894017L14.1502928 5.20283234M20.6242057 6.4565237L14.1502928 7.03342151M20.9674296 7.88253517L14.1502928 8.4894017M20.6242057 6.4565237L20.9674296 7.88253517M20.9674296 9.1437187L20.9674296 7.88253517M14.1502928 9.75058524L20.9674296 9.1437187M14.1502928 13.4042714L14.1502928 9.75058524M21.3745641 11.3039638L14.1502928 11.9457938M21.717788 12.7299752L14.1502928 13.4042714M21.3745641 11.3039638L21.717788 12.7299752M21.717788 13.9961536L21.717788 12.7299752M4.89034878 7.81260817L2.56352746 8.0198918M5.23120562 9.24111704L2.56352746 9.47836938M4.89034878 7.81260817L5.23120562 9.24111704M5.4158364 7.75766552L4.89034878 7.81260817M5.7590603 9.18367699L5.23120562 9.24111704M5.4158364 7.75766552L5.7590603 9.18367699M5.86084394 7.6902359L5.4158364 7.75766552M6.20406784 9.11624738L5.7590603 9.18367699M5.86084394 7.6902359L6.20406784 9.11624738M6.21590314 7.61531411L5.86084394 7.6902359M6.55912704 9.04132559L6.20406784 9.11624738M6.21590314 7.61531411L6.55912704 9.04132559M6.4455081 7.55038189L6.21590314 7.61531411M6.78636493 8.97639336L6.55912704 9.04132559M6.4455081 7.55038189L6.78636493 8.97639336M6.84554147 7.37306697L6.4455081 7.55038189M7.18876536 8.79907845L6.78636493 8.97639336M6.84554147 7.37306697L7.18876536 8.79907845M7.174563 7.14830159L6.84554147 7.37306697M7.51541983 8.57681046L7.18876536 8.79907845M7.174563 7.14830159L7.51541983 8.57681046M7.38759852 6.93102839L7.174563 7.14830159M7.72845536 8.35953726L7.51541983 8.57681046M7.38759852 6.93102839L7.72845536 8.35953726M7.56749518 6.62384903L7.38759852 6.93102839M7.91071908 8.05235791L7.72845536 8.35953726M7.56749518 6.62384903L7.91071908 8.05235791M7.64087409 6.37660711L7.56749518 6.62384903M8.01486978 7.70272287L7.91071908 8.05235791M7.71188593 6.44403673L8.01486978 7.70272287M8.03854039 7.39304612L8.01486978 7.70272287M7.86337785 6.66380732L8.03854039 7.39304612M7.99830035 7.02842672L8.03854039 7.39304612M7.88941553 6.70376561L7.99830035 7.02842672M7.74265772 6.47400545L7.88941553 6.70376561M7.4870151 6.22926092L7.74265772 6.47400545M7.16036063 6.06193558L7.4870151 6.22926092M6.904718 5.99200857L7.16036063 6.06193558M6.62540476 5.96203986L6.904718 5.99200857M6.27744674 5.94955289L6.62540476 5.96203986M5.85610982 5.95454768L6.27744674 5.94955289M5.35429281 5.98451639L5.85610982 5.95454768M2.56352746 6.23425571L5.35429281 5.98451639M2.56352746 9.47836938L2.56352746 6.23425571M5.29274921 12.73497L2.56352746 12.9772172M5.63360605 14.1609815L2.56352746 14.4356947M5.29274921 12.73497L5.63360605 14.1609815M5.81586977 12.6825248L5.29274921 12.73497M6.15672661 14.1085362L5.63360605 14.1609815M5.81586977 12.6825248L6.15672661 14.1085362M6.2064349 12.6275821L5.81586977 12.6825248M6.5496588 14.0535936L6.15672661 14.1085362M6.2064349 12.6275821L6.5496588 14.0535936M6.40290099 12.5851264L6.2064349 12.6275821M6.74375783 14.0111379L6.5496588 14.0535936M6.40290099 12.5851264L6.74375783 14.0111379M6.8313391 12.455262L6.40290099 12.5851264M7.174563 13.8837709L6.74375783 14.0111379M6.8313391 12.455262L7.174563 13.8837709M7.19823361 12.2929314L6.8313391 12.455262M7.54145751 13.7189429L7.174563 13.8837709M7.19823361 12.2929314L7.54145751 13.7189429M7.34499141 12.2080201L7.19823361 12.2929314M7.68584825 13.6365289L7.54145751 13.7189429M7.34499141 12.2080201L7.68584825 13.6365289M7.64560821 11.9657729L7.34499141 12.2080201M7.98883211 13.3917844L7.68584825 13.6365289M7.64560821 11.9657729L7.98883211 13.3917844M7.89888377 11.6585936L7.64560821 11.9657729M8.23974061 13.0846051L7.98883211 13.3917844M7.89888377 11.6585936L8.23974061 13.0846051M7.96752855 11.5537031L7.89888377 11.6585936M8.30838539 12.9797146L8.23974061 13.0846051M7.96752855 11.5537031L8.30838539 12.9797146M8.11665342 11.2240472L7.96752855 11.5537031M8.45751026 12.6500587L8.30838539 12.9797146M8.11665342 11.2240472L8.45751026 12.6500587M8.16399465 11.0092714L8.11665342 11.2240472M8.53562328 12.2929314L8.45751026 12.6500587M8.25394298 11.1166593L8.53562328 12.2929314M8.54982565 12.0581765L8.53562328 12.2929314M8.36992899 11.3014664L8.54982565 12.0581765M8.51431973 11.6910597L8.54982565 12.0581765M8.40780197 11.3639012L8.51431973 11.6910597M8.21843706 11.0592192L8.40780197 11.3639012M7.93675676 10.8019877L8.21843706 11.0592192M7.61483641 10.6221754L7.93675676 10.8019877M7.23137247 10.5072954L7.61483641 10.6221754M6.91181918 10.4623423L7.23137247 10.5072954M6.54492467 10.4423631L6.91181918 10.4623423M6.11648657 10.4473579L6.54492467 10.4423631M5.64070723 10.4698345L6.11648657 10.4473579M2.56352746 10.7445477L5.64070723 10.4698345M2.56352746 14.4356947L2.56352746 10.7445477M.9373563 15.8467219L5.63360605 15.4296572M.594132403 14.4207104L.9373563 15.8467219M.594132403 3.68191993L.594132403 14.4207104M.9373563 5.1079314L.9373563 15.8467219M.594132403 3.68191993L.9373563 5.1079314M5.21700325 3.26985006L.594132403 3.68191993M5.56022715 4.69586154L.9373563 5.1079314M5.21700325 3.26985006L5.56022715 4.69586154M5.70225083 3.23988134L5.21700325 3.26985006M6.04310766 4.66589282L5.56022715 4.69586154M5.70225083 3.23988134L6.04310766 4.66589282M6.14962543 3.23238916L5.70225083 3.23988134M6.49048226 4.65840064L6.04310766 4.66589282M6.14962543 3.23238916L6.49048226 4.65840064M6.5614941 3.24237874L6.14962543 3.23238916M6.904718 4.67088761L6.49048226 4.65840064M6.5614941 3.24237874L6.904718 4.67088761M6.94259098 3.28233703L6.5614941 3.24237874M7.28581488 4.7083485L6.904718 4.67088761M6.94259098 3.28233703L7.28581488 4.7083485M7.28344782 3.33977707L6.94259098 3.28233703M7.62667172 4.76578855L7.28581488 4.7083485M7.28344782 3.33977707L7.62667172 4.76578855M7.4870151 3.38972493L7.28344782 3.33977707M7.83023899 4.81573641L7.62667172 4.76578855M7.4870151 3.38972493L7.83023899 4.81573641M7.85154255 3.52708155L7.4870151 3.38972493M8.19476644 4.95309303L7.83023899 4.81573641M7.85154255 3.52708155L8.19476644 4.95309303M8.18293114 3.69940168L7.85154255 3.52708155M8.52615504 5.12541316L8.19476644 4.95309303M8.18293114 3.69940168L8.52615504 5.12541316M8.47644675 3.91417749L8.18293114 3.69940168M8.81730358 5.34268636L8.52615504 5.12541316M8.47644675 3.91417749L8.81730358 5.34268636M8.72972231 4.16641419L8.47644675 3.91417749M9.07294621 5.59242567L8.81730358 5.34268636M8.72972231 4.16641419L9.07294621 5.59242567M8.82440477 4.27629949L8.72972231 4.16641419M9.16762867 5.70480836L9.07294621 5.59242567M8.82440477 4.27629949L9.16762867 5.70480836M9.02323792 4.58347885L8.82440477 4.27629949M9.36646182 6.01198772L9.16762867 5.70480836M9.02323792 4.58347885L9.36646182 6.01198772M9.16999573 4.90314517L9.02323792 4.58347885M9.51085256 6.32915665L9.36646182 6.01198772M9.16999573 4.90314517L9.51085256 6.32915665M9.26231112 5.23529845L9.16999573 4.90314517M9.60316796 6.66380732L9.51085256 6.32915665M9.26231112 5.23529845L9.60316796 6.66380732M9.643408 7.00595018L9.60316796 6.66380732M9.64577506 7.08087198L9.643408 7.00595018M9.61500326 7.4355018L9.64577506 7.08087198M9.52742199 7.78763423L9.61500326 7.4355018M9.38303125 8.12977709L9.52742199 7.78763423M9.21733695 8.41447991L9.38303125 8.12977709M8.99246612 8.70667491L9.21733695 8.41447991M8.71788701 8.97889076L8.99246612 8.70667491M8.3935996 9.22863007L8.71788701 8.97889076M8.02907215 9.45589285L8.3935996 9.22863007M7.92255439 9.51333289L8.02907215 9.45589285M8.33679013 9.60323904L7.92255439 9.51333289M8.71551994 9.7281087L8.33679013 9.60323904M9.05164266 9.88294707L8.71551994 9.7281087M9.35225945 10.0727489L9.05164266 9.88294707M9.61026914 10.3000117L9.35225945 10.0727489M9.64577506 10.3349752L9.61026914 10.3000117M10.029239 10.8993861L9.86354471 10.6071911M10.1523262 11.2215498L10.029239 10.8993861M10.220971 11.56619L10.1523262 11.2215498M10.2399075 11.9058355L10.220971 11.56619M10.2186039 12.2754497L10.2399075 11.9058355M10.1546933 12.6325769L10.2186039 12.2754497M10.0458084 12.9797146L10.1546933 12.6325769M9.88721532 13.31936L10.0458084 12.9797146M9.88011414 13.3368418L9.88721532 13.31936M9.66471155 13.693969L9.88011414 13.3368418M9.41853717 14.0086405L9.66471155 13.693969M9.14869217 14.2758616L9.41853717 14.0086405M8.97116257 14.4232078L9.14869217 14.2758616M8.65397635 14.6304914L8.97116257 14.4232078M8.29418302 14.8177959L8.65397635 14.6304914M7.89178259 14.9801265L8.29418302 14.8177959M7.62667172 15.0675352L7.89178259 14.9801265M7.2787137 15.1674309L7.62667172 15.0675352M6.89761682 15.2548397L7.2787137 15.1674309M6.48338108 15.3247667L6.89761682 15.2548397M6.04310766 15.3872015L6.48338108 15.3247667M5.63360605 15.4296572L6.04310766 15.3872015"/>
    </g>
    <g fill="#D9766C" fill-rule="nonzero" stroke="#D9766C" stroke-width=".5" transform="translate(914.361 342.374)" stroke-linecap="round" stroke-linejoin="round">
      <path d="M28.7800339 36.2879338L38.1582209 22.8216065M38.1582209 22.8216065L38.1582209 13.5880503M28.7800339 27.0543776L38.1582209 13.5880503M28.7800339 36.2879338L28.7800339 27.0543776M20.9088753 34.4432513L28.7800339 36.2879338M20.9088753 25.2096951L28.7800339 27.0543776M20.9088753 34.4432513L20.9088753 25.2096951M23.2134029 21.9028879L20.9088753 25.2096951M9.8534884 28.004976L20.9088753 30.5959362M9.8534884 28.004976L9.8534884 18.7714198M14.6283888 11.9187068L9.8534884 18.7714198M.130631797 17.7541636L9.8534884 20.033571M.130631797 8.52060741L14.6283888 11.9187068M.130631797 17.7541636L.130631797 8.52060741M5.57468159.704254286L.130631797 8.52060741M59.5248545 13.3504007L5.57468159.704254286M59.5248545 22.5839569L59.5248545 13.3504007M56.3838901 27.0935028L59.5248545 22.5839569M56.3838901 17.8599467L59.5248545 13.3504007M56.3838901 27.0935028L56.3838901 17.8599467M38.1582209 22.8216065L56.3838901 27.0935028M38.1582209 13.5880503L56.3838901 17.8599467M9.8534884 18.7714198L23.2134029 21.9028879"/>
    </g>
    <g stroke="#4DA6B2" stroke-width=".4" transform="translate(909.92 309)">
      <path d="M39.8236974.231774547L45.0768433 15.7964889M39.8236974.231774547L36.2532325 5.37084836M41.5042855 20.9334557L36.2532325 5.37084836M45.0768433 15.7964889L41.5042855 20.9334557M45.0768433 15.7964889L62.0710842 19.7872252M58.4985264 24.924192L41.5042855 20.9334557M62.0710842 19.7872252L58.4985264 24.924192M46.3158323 29.9115588L47.9001476 29.2625901M51.2508594 27.8909062L58.4985264 24.924192M49.7900244 29.7619589L50.3216177 31.3401328M51.2090017 33.9718275L51.8598895 35.8997703M52.3328819 37.2988457L53.5739638 40.9777399M50.0034989 46.1147067L46.9269552 36.9996459M53.5739638 40.9777399L50.0034989 46.1147067M36.2532325 34.0287176L50.0034989 46.1147067M22.505059 39.656625L36.2532325 34.0287176M27.1324317 28.1184666L26.4124787 29.9094518M25.5899742 31.9574959L22.505059 39.656625M14.0058456 14.475374L21.2723487 20.8618163M24.5602738 23.752677L26.9712795 25.8702535M17.5784034 9.3384072L14.0058456 14.475374M17.5784034 9.3384072L33.1913391 13.0046591M31.0000866 18.4661103L14.0058456 14.475374M26.4648008 29.7788152L22.9906087 29.0666352M22.9906087 29.0666352L22.2057762 30.1960094M28.4718793 31.4791976L22.2057762 30.1960094M29.1709035 30.4741388L28.4718793 31.4791976M28.513737 32.5558957L28.4718793 31.4791976M29.2127612 31.552944L28.513737 32.5558957M20.8998148 30.9966851L28.513737 32.5558957M20.5544885 21.8626609L20.8998148 30.9966851M21.2576984 20.849174L20.5544885 21.8626609M27.9319145 23.3734095L20.5544885 21.8626609M28.6288458 22.3704579L27.9319145 23.3734095M27.9716794 24.4501077L27.9319145 23.3734095M28.6686107 23.447156L27.9716794 24.4501077M21.9420724 23.2174885L27.9716794 24.4501077M22.8336422 24.8820511L22.7771343 23.3881588M22.0488097 26.0093182L21.9420724 23.2174885M22.8336422 24.8820511L22.0488097 26.0093182M26.7598979 25.6848339L22.8336422 24.8820511M27.6933254 27.1660839L22.0488097 26.0093182M28.3923496 26.1610252L27.6933254 27.1660839M27.7351831 28.2427821L27.6933254 27.1660839M28.4342073 27.2377233L27.7351831 28.2427821M22.0906674 27.0860164L27.7351831 28.2427821M22.9906087 29.0666352L22.9215435 27.2566867M22.2057762 30.1960094L22.0906674 27.0860164M15.0878681 23.7126432L12.187127 23.2322378M12.187127 23.2322378L11.4043873 24.3595049M14.3030356 24.8420173L11.4043873 24.3595049M15.0878681 23.7126432L14.3030356 24.8420173M15.7889852 23.7990319L15.0878681 23.7126432M15.0062455 24.926299L14.3030356 24.8420173M15.7889852 23.7990319L15.0062455 24.926299M16.347786 23.7948178L15.5650463 24.924192M16.5173098 23.7779615L15.7324773 24.9073356M16.6742763 23.7189643L16.5173098 23.7779615M16.2431416 24.7092737L15.7324773 24.9073356M16.5821893 24.2204402L16.2431416 24.7092737M16.477545 24.4859274L16.2431416 24.7092737M16.6638119 24.009736L16.477545 24.4859274M14.8545987 23.702108L14.8520987 24.009736M16.5256814 23.1458491L16.6742763 23.702108M16.1657048 22.6422662L16.5256814 23.1458491M16.0652463 22.5432352L16.1657048 22.6422662M15.6048112 22.2292861L16.0652463 22.5432352M15.0104313 21.9890834L15.6048112 22.2292861M14.3658222 21.8436975L15.0104313 21.9890834M11.1427765 21.306402L14.3658222 21.8436975M12.187127 23.2322378L12.0364391 21.4560019M11.4043873 24.3595049L11.1427765 21.306402M12.6287261 28.3797397L12.3880441 25.5626255M11.8438936 29.5070069L11.4943815 25.4151326M12.6287261 28.3797397L11.8438936 29.5070069M10.4981673 29.2836605L11.8438936 29.5070069M9.71124189 20.0674617L10.4981673 29.2836605M10.4960744 18.9401946L9.71124189 20.0674617M15.0062455 19.6903013L10.4960744 18.9401946M14.221413 20.8175684L9.71124189 20.0674617M15.0062455 19.6903013L14.221413 20.8175684M15.755499 19.8356871L15.0062455 19.6903013M14.9706665 20.9629542L14.221413 20.8175684M15.755499 19.8356871L14.9706665 20.9629542M16.3938295 20.0042504L15.755499 19.8356871M15.6110898 21.1315176L14.9706665 20.9629542M16.3938295 20.0042504L15.6110898 21.1315176M16.921237 20.1938842L16.3938295 20.0042504M16.1364044 21.3232583L15.6110898 21.1315176M16.921237 20.1938842L16.1364044 21.3232583M17.0991323 20.2760588L16.921237 20.1938842M16.3142998 21.4033259L16.1364044 21.3232583M17.0991323 20.2760588L16.3142998 21.4033259M17.6474687 20.6300417L17.0991323 20.2760588M16.8626361 21.7573088L16.3142998 21.4033259M17.6474687 20.6300417L16.8626361 21.7573088M18.1099967 21.0851626L17.6474687 20.6300417M17.3251641 22.2124298L16.8626361 21.7573088M18.1099967 21.0851626L17.3251641 22.2124298M18.3088209 21.3422217L18.1099967 21.0851626M17.5260813 22.4715958L17.3251641 22.2124298M18.3088209 21.3422217L17.5260813 22.4715958M18.6101966 21.8879454L18.3088209 21.3422217M17.8253641 23.0152125L17.5260813 22.4715958M18.6101966 21.8879454L17.8253641 23.0152125M18.7922778 22.4442043L18.6101966 21.8879454M18.0095381 23.5714714L17.8253641 23.0152125M18.7922778 22.4442043L18.0095381 23.5714714M18.8466928 22.8045084L18.7922778 22.4442043M18.0618603 23.9338825L18.0095381 23.5714714M18.8466928 22.8045084L18.0618603 23.9338825M18.8362284 23.3628743L18.0534887 24.4901414M18.6876334 23.8369586L18.8362284 23.3628743M17.9028009 24.9663328L18.0534887 24.4901414M18.6876334 23.8369586L17.9028009 24.9663328M17.6160754 25.3603495L17.9028009 24.9663328M17.5051524 25.4699157L17.6160754 25.3603495M17.1284328 25.7164395L17.5051524 25.4699157M16.6470688 25.8723606L17.1284328 25.7164395M16.0589676 25.9608563L16.6470688 25.8723606M16.0212956 26.3590871L15.4122656 25.9629633M16.3268571 25.9208225L16.0212956 26.3590871M16.2640705 26.559256L16.0212956 26.3590871M16.772642 25.8323268L16.2640705 26.559256M17.4842235 25.8765746L17.2498202 25.6363719M16.699391 27.0038418L16.2640705 26.559256M17.4842235 25.8765746L16.699391 27.0038418M17.9174511 26.3801575L17.4842235 25.8765746M17.1326185 27.5074246L16.699391 27.0038418M17.9174511 26.3801575L17.1326185 27.5074246M18.2690561 26.8415996L17.9174511 26.3801575M17.4842235 27.9688667L17.1326185 27.5074246M18.2690561 26.8415996L17.4842235 27.9688667M20.2531128 29.6481786L18.2690561 26.8415996M19.4703731 30.7754457L17.4842235 27.9688667M20.2531128 29.6481786L19.4703731 30.7754457M17.7793206 30.4952092L19.4703731 30.7754457M16.2619776 28.3502412L17.7793206 30.4952092M15.8182856 27.730771L16.2619776 28.3502412M15.4290087 27.2229741L15.8182856 27.730771M15.182048 26.9195601L15.4290087 27.2229741M14.6902196 26.3885857L15.182048 26.9195601M14.4537234 26.1884168L14.6902196 26.3885857M13.8656222 25.8660394L14.4537234 26.1884168M13.2356633 25.7037973L13.8133 25.844969M11.4943815 25.4151326L13.2356633 25.7037973M5.76824313 22.0775791L4.98341057 23.2048462M5.48570341 22.8498827L4.98341057 22.8493827M6.26844308 22.0796862L5.48570341 23.2069533M6.39610917 22.0375453L6.26844308 22.0796862M6.04450419 23.0257477L5.48570341 23.2069533M6.33750834 22.6043394L6.04450419 23.0257477M6.24332844 22.8550774L6.04450419 23.0257477M6.41285227 22.3978494L6.24332844 22.8550774M4.56987654 22.0817932L4.57137654 22.3978494M6.24542132 21.512892L6.40657361 22.0817932M6.08008326 21.2305485L6.24542132 21.512892M5.61127662 20.796498L6.08008326 21.2305485M5.33292267 20.6532192L5.61127662 20.796498M4.86411603 20.5057263L5.33292267 20.6532192M4.19857802 20.3645545L4.86411603 20.5057263M1.74362178 20.0042504L4.19857802 20.3645545M2.83192293 21.6730272L2.66449198 20.1391011M2.04918326 22.8002943L1.74362178 20.0042504M2.83192293 21.6730272L2.04918326 22.8002943M5.02945408 21.9932975L2.83192293 21.6730272M4.24671441 23.1226716L2.04918326 22.8002943M5.02945408 21.9932975L4.24671441 23.1226716M5.76824313 22.0775791L5.02945408 21.9932975M4.98341057 23.2048462L4.24671441 23.1226716M6.53005393 26.3991209L5.74522137 27.526388M5.95869583 26.2782901L5.74522137 26.2767901M6.74352839 26.403335L5.95869583 27.5327091M7.2814003 26.3295885L6.74352839 26.403335M6.54261125 27.4505345L5.95869583 27.5327091M7.28349318 26.3822646L6.54261125 27.4505345M6.70585642 27.3915374L6.54261125 27.4505345M7.25000699 26.607718L6.70585642 27.3915374M7.08885471 27.0754812L6.70585642 27.3915374M7.16001286 26.9490587L7.08885471 27.0754812M7.28767896 26.4602251L7.16001286 26.9490587M6.8548148 26.201059L6.8583148 26.4602251M7.11396935 25.6321578L7.27302875 26.201059M6.89003046 25.2571045L7.11396935 25.6321578M6.41703804 24.823054L6.89003046 25.2571045M6.02776109 24.6039217L6.41703804 24.823054M5.51291094 24.4332513L6.02776109 24.6039217M4.84528004 24.2836514L5.51291094 24.4332513M2.16847781 23.8917417L4.84528004 24.2836514M3.30072957 25.944L3.08934801 24.0265923M2.51798991 27.0733741L2.16847781 23.8917417M3.30072957 25.944L2.51798991 27.0733741M5.82893685 26.3148392L3.30072957 25.944M5.04410429 27.4421064L2.51798991 27.0733741M5.82893685 26.3148392L5.04410429 27.4421064M6.53005393 26.3991209L5.82893685 26.3148392M5.74522137 27.526388L5.04410429 27.4421064M5.63639126 28.5904439L6.25379287 28.6304777M5.16339884 28.5335538L5.63639126 28.5904439M1.29365112 27.9667596L5.16339884 28.5335538M.282786787 18.7168482L1.29365112 27.9667596M1.06552646 17.5895811L.282786787 18.7168482M4.87876623 18.147947L1.06552646 17.5895811M4.09393368 19.2752141L.282786787 18.7168482M4.87876623 18.147947L4.09393368 19.2752141M5.58406909 18.2764765L4.87876623 18.147947M4.80132942 19.4037437L4.09393368 19.2752141M5.58406909 18.2764765L4.80132942 19.4037437M6.19728493 18.4492539L5.58406909 18.2764765M5.41245237 19.5786281L4.80132942 19.4037437M6.19728493 18.4492539L5.41245237 19.5786281M6.73097106 18.6683862L6.19728493 18.4492539M5.94613851 19.7977604L5.41245237 19.5786281M6.73097106 18.6683862L5.94613851 19.7977604M6.77492169 18.6957778L6.73097106 18.6683862M5.99008913 19.8230449L5.94613851 19.7977604M6.77492169 18.6957778L5.99008913 19.8230449M7.33790824 19.0602959L6.77492169 18.6957778M6.55307569 20.1896701L5.99008913 19.8230449M7.33790824 19.0602959L6.55307569 20.1896701M7.80252911 19.5069887L7.33790824 19.0602959M7.01769656 20.6363628L6.55307569 20.1896701M7.80252911 19.5069887L7.01769656 20.6363628M7.97414583 19.7197999L7.80252911 19.5069887M7.18931328 20.847067L7.01769656 20.6363628M7.97414583 19.7197999L7.18931328 20.847067M8.2964504 20.2739517L7.97414583 19.7197999M7.51371073 21.4033259L7.18931328 20.847067M8.2964504 20.2739517L7.51371073 21.4033259M8.47853156 20.8281036L8.2964504 20.2739517M7.693699 21.9553707L7.51371073 21.4033259M8.47853156 20.8281036L7.693699 21.9553707M8.5036462 21.0050951L8.47853156 20.8281036M7.71881364 22.1323622L7.693699 21.9553707M8.5036462 21.0050951L7.71881364 22.1323622M8.48481022 21.5360695L7.70207055 22.6633366M8.30482195 22.018582L8.48481022 21.5360695M7.51998939 23.1458491L7.70207055 22.6633366M8.30482195 22.018582L7.51998939 23.1458491M7.48231743 23.1985251L7.51998939 23.1458491M7.16210575 23.5567221L7.48231743 23.1985251M6.70376354 23.8158882L7.16210575 23.5567221M6.51331084 23.8854206L6.70376354 23.8158882M7.91763789 23.0657815L7.6623057 22.939359M7.13280533 24.1930486L6.51331084 23.8854206M7.91763789 23.0657815L7.13280533 24.1930486M8.44504537 23.4408349L7.91763789 23.0657815M7.66021281 24.568102L7.13280533 24.1930486M8.44504537 23.4408349L7.66021281 24.568102M8.81130056 23.80746L8.44504537 23.4408349M8.026468 24.9347272L7.66021281 24.568102M8.81130056 23.80746L8.026468 24.9347272M9.15662688 24.3215781L8.81130056 23.80746M8.37179433 25.4488452L8.026468 24.9347272M9.15662688 24.3215781L8.37179433 25.4488452M9.37847289 24.8694089L9.15662688 24.3215781M8.59364033 25.996676L8.37179433 25.4488452M9.37847289 24.8694089L8.59364033 25.996676M9.45172392 25.2781749L9.37847289 24.8694089M8.66898426 26.405442L8.59364033 25.996676M9.45172392 25.2781749L8.66898426 26.405442M9.14075307 25.8386479L9.13975307 25.2781749M6.8553148 26.965915L6.8548148 26.405442M9.4559097 25.8386479L8.67107714 26.965915M9.33452226 26.3338026L9.4559097 25.8386479M8.54968971 27.4610697L8.67107714 26.965915M9.33452226 26.3338026L8.54968971 27.4610697M9.28847875 26.4433688L9.33452226 26.3338026M8.50573908 27.5706359L8.54968971 27.4610697M9.28847875 26.4433688L8.50573908 27.5706359M8.99966037 26.8900615L9.28847875 26.4433688M8.2169207 28.0173286L8.50573908 27.5706359M8.99966037 26.8900615L8.2169207 28.0173286M7.84647974 28.3228496L8.2169207 28.0173286M7.37139443 28.5166974L7.84647974 28.3228496M6.7895719 28.6178354L7.37139443 28.5166974M6.25379287 26.2797901L6.7895719 26.2767901M33.5324796 30.3624656L32.8334554 31.3675244M32.9506571 31.9322114L32.8334554 31.3675244M33.1536671 31.6372257L32.9506571 31.9322114M32.9987935 32.1745212L32.9506571 31.9322114M33.2164537 31.4180934L32.9987935 32.1745212M33.3671416 30.8976541L33.2164537 31.4180934M33.4550428 30.6237388L33.3671416 30.8976541M31.9891358 28.5617284L31.9891358 28.5662284M35.4035204 24.9473694L33.4550428 30.6047754M36.1004517 23.9423107L35.4035204 24.9473694M37.0338793 25.3287439L35.4035204 24.9473694M37.7308106 24.3257922L37.0338793 25.3287439M38.4926214 30.2507925L37.0338793 25.3287439M39.1895527 29.2478408L38.4926214 30.2507925M38.6705168 30.8639415L38.4926214 30.2507925M39.3695409 29.8588828L38.6705168 30.8639415M38.831669 31.4581271L38.6705168 30.8639415M39.5286003 30.4530684L38.831669 31.4581271M38.9677067 32.0333494L38.831669 31.4581271M39.664638 31.0282907L38.9677067 32.0333494M39.0974657 32.6022506L38.9677067 32.0333494M39.7964899 31.5971919L39.0974657 32.6022506M39.2042029 33.1437602L39.0974657 32.6022506M39.5474363 32.6507125L39.2042029 33.1437602M39.2837326 33.6494501L39.2042029 33.1437602M39.3988414 33.183794L39.2837326 33.6494501M39.5390648 32.6928534L39.3988414 33.183794M39.6897526 32.163986L39.5390648 32.6928534M39.7985827 31.7994678L39.6897526 32.163986M41.3975483 26.354873L39.7985827 31.7994678M42.0965725 25.3498143L41.3975483 26.354873M42.7558318 26.6730363L41.3975483 26.354873M43.454856 25.6700846L42.7558318 26.6730363M39.9555493 35.0738101L42.7558318 26.6730363M40.6545735 34.0687514L39.9555493 35.0738101M38.6579594 34.7682891L39.9555493 35.0738101M36.4981002 27.3599317L38.6579594 34.7682891M36.2825329 26.6056109L36.4981002 27.3599317M36.1820743 26.2242365L36.2825329 26.6056109M36.0230149 26.7678531L36.1820743 26.2242365M36.242768 26.453904L36.0230149 26.7678531M35.8786057 27.2145459L36.0230149 26.7678531M36.2888116 26.6245743L35.8786057 27.2145459M33.7145608 33.6073093L35.8786057 27.2145459M34.4114921 32.6043576L33.7145608 33.6073093M32.3353484 33.284932L33.7145608 33.6073093M29.622967 23.5883278L32.3353484 33.284932M30.3219912 22.5853761L29.622967 23.5883278M31.0084581 23.9149192L29.622967 23.5883278M31.7074823 22.9098604L31.0084581 23.9149192M32.5655659 30.2170798L31.0084581 23.9149192M33.2645901 29.2120211L32.5655659 30.2170798M32.7057893 30.7923021L32.5655659 30.2170798M33.4027206 29.7893504L32.7057893 30.7923021M32.8334554 31.3675244L32.7057893 30.7923021M46.227931 34.4121991L46.2928105 32.6781041M45.4430985 35.5394662L45.5582073 32.4842563M46.227931 34.4121991L45.4430985 35.5394662M52.4940342 36.0683336L46.227931 34.4121991M51.7092016 37.1956007L45.4430985 35.5394662M52.4940342 36.0683336L51.7092016 37.1956007M52.4521764 37.1260683L52.4940342 36.0683336M51.6673439 38.2533354L51.7092016 37.1956007M52.4521764 37.1260683L51.6673439 38.2533354M44.0555145 36.241111L51.6673439 38.2533354M44.3945622 27.2672219L44.0555145 36.241111M45.0935864 26.2642702L44.3945622 27.2672219M52.5547279 28.0910751L51.4685196 27.8024104M51.7698953 29.2183422L44.3945622 27.2672219M52.5547279 28.0910751L51.7698953 29.2183422M52.514963 29.1488098L52.5547279 28.0910751M51.7322234 30.2760769L51.7698953 29.2183422M52.514963 29.1488098L51.7322234 30.2760769M45.7026164 28.6831537L51.7322234 30.2760769M45.5979721 31.4265215L45.7026164 28.6831537M46.3828047 30.2992544L45.5979721 31.4265215M52.0273204 31.7910397L46.3828047 30.2992544M51.2445807 32.9204138L45.5979721 31.4265215M52.0273204 31.7910397L51.2445807 32.9204138M51.9896484 32.8487744L52.0273204 31.7910397M51.2048159 33.9760415L51.2445807 32.9204138M51.9896484 32.8487744L51.2048159 33.9760415M45.5582073 32.4842563L51.2048159 33.9760415M58.988262 33.9254725L56.0958924 33.0742278M56.0958924 33.0742278L55.3131527 34.201495M58.2055223 35.0527397L55.3131527 34.201495M58.988262 33.9254725L58.2055223 35.0527397M59.7040292 34.102464L58.988262 33.9254725M58.9191967 35.2318382L58.2055223 35.0527397M59.7040292 34.102464L58.9191967 35.2318382M60.2732945 34.1741034L59.7040292 34.102464M59.4905548 35.3013705L58.9191967 35.2318382M60.2732945 34.1741034L59.4905548 35.3013705M60.4490969 34.1804245L59.6663573 35.3097987M60.8111664 34.1066781L60.4490969 34.1804245M60.2251581 35.1918044L59.6663573 35.3097987M60.8237237 34.3300245L60.2251581 35.1918044M60.4972333 35.0084918L60.2251581 35.1918044M60.7734944 34.5849765L60.4972333 35.0084918M60.8320952 34.2920977L60.7734944 34.5849765M60.7651229 33.7421599L60.8320952 34.2920977M60.4804903 33.2153996L60.7651229 33.7421599M60.392589 33.1058335L60.4804903 33.2153996M59.9719188 32.7455294L60.392589 33.1058335M59.4005607 32.4357943L59.9719188 32.7455294M58.7622302 32.2103409L59.4005607 32.4357943M55.5370916 31.2600653L58.7622302 32.2103409M56.0958924 33.0742278L56.2193727 31.4623412M55.3131527 34.201495L55.5370916 31.2600653M54.2667093 29.8883813L53.5823353 38.7632394M55.0515419 28.7590072L54.2667093 29.8883813M59.5638058 30.0864432L55.0515419 28.7590072M58.7810662 31.2137103L54.2667093 29.8883813M59.5638058 30.0864432L58.7810662 31.2137103M60.3109664 30.3266459L59.5638058 30.0864432M59.5261339 31.4539131L58.7810662 31.2137103M60.3109664 30.3266459L59.5261339 31.4539131M60.9409254 30.5752768L60.3109664 30.3266459M60.1560928 31.7025439L59.5261339 31.4539131M60.9409254 30.5752768L60.1560928 31.7025439M61.4494968 30.8281218L60.9409254 30.5752768M60.6667572 31.9553889L60.1560928 31.7025439M61.4494968 30.8281218L60.6667572 31.9553889M61.6190207 30.9292598L61.4494968 30.8281218M60.8341881 32.0565269L60.6667572 31.9553889M61.6190207 30.9292598L60.8341881 32.0565269M62.1234064 31.3401328L61.6190207 30.9292598M61.3406667 32.469507L60.8341881 32.0565269M62.1234064 31.3401328L61.3406667 32.469507M62.5294264 31.8373946L62.1234064 31.3401328M61.7445939 32.9667687L61.3406667 32.469507M62.5294264 31.8373946L61.7445939 32.9667687M62.6843001 32.1070959L62.5294264 31.8373946M61.9015604 33.234363L61.7445939 32.9667687M62.6843001 32.1070959L61.9015604 33.234363M62.908239 32.6654618L62.6843001 32.1070959M62.1234064 33.794836L61.9015604 33.234363M62.908239 32.6654618L62.1234064 33.794836M63.0107904 33.2238278L62.908239 32.6654618M62.2259579 34.3510949L62.1234064 33.794836M63.0107904 33.2238278L62.2259579 34.3510949M63.0045118 33.5735966L62.2217721 34.7029708M62.8998674 34.100357L63.0045118 33.5735966M62.1171277 35.2276241L62.2217721 34.7029708M62.8998674 34.100357L62.1171277 35.2276241M62.667557 34.5323004L62.8998674 34.100357M61.8827244 35.6595676L62.1171277 35.2276241M62.667557 34.5323004L61.8827244 35.6595676M61.5332123 35.9988012L61.8827244 35.6595676M61.4013605 36.089404L61.5332123 35.9988012M60.9681329 36.2685025L61.4013605 36.089404M60.4553756 36.3548912L60.9681329 36.2685025M59.1640644 36.2706095L59.8358811 36.3591053M59.7249581 36.7320516L59.1640644 36.2706095M59.9844761 36.3569982L59.7249581 36.7320516M59.9447112 36.955398L59.7249581 36.7320516M60.3611957 36.3548912L59.9447112 36.955398M61.1104492 36.3106433L61.0497555 36.2347898M60.3256166 37.4400175L59.9447112 36.955398M61.1104492 36.3106433L60.3256166 37.4400175M61.4746115 36.8479389L61.1104492 36.3106433M60.6897789 37.975206L60.3256166 37.4400175M61.4746115 36.8479389L60.6897789 37.975206M61.761337 37.3367725L61.4746115 36.8479389M60.9765044 38.4640396L60.6897789 37.975206M61.761337 37.3367725L60.9765044 38.4640396M63.3435594 40.2782022L61.761337 37.3367725M62.5608197 41.4054693L60.9765044 38.4640396M63.3435594 40.2782022L62.5608197 41.4054693M60.8613957 40.9061005L62.5608197 41.4054693M59.6579857 38.6599944L60.8613957 40.9061005M59.2959163 38.0089187L59.6579857 38.6599944M58.9840762 37.4737302L59.2959163 38.0089187M58.7810662 37.1513528L58.9840762 37.4737302M58.3603959 36.5782376L58.7810662 37.1513528M58.1427357 36.3548912L58.3603959 36.5782376M57.5964922 35.9693026L58.1427357 36.3548912M57.5399843 35.9419111L57.5964922 35.9693026M56.9686262 35.7269929L57.5399843 35.9419111M55.233623 35.2170889L56.9686262 35.7269929M55.714987 38.0320961L55.9159041 35.4172578M54.9301544 39.1593632L55.233623 35.2170889M55.714987 38.0320961L54.9301544 39.1593632M53.5823353 38.7632394L54.9301544 39.1593632M66.828216 38.8833408L66.3301089 42.5790913M63.5967987 32.5390393L66.828216 38.8833408M64.3816313 31.4096652L63.5967987 32.5390393M66.014083 31.96171L64.3816313 31.4096652M65.2313433 33.0910842L63.5967987 32.5390393M66.014083 31.96171L65.2313433 33.0910842M67.6611849 35.2655508L66.014083 31.96171M66.8763524 36.394925L65.2313433 33.0910842M67.6611849 35.2655508L66.8763524 36.394925M67.9290744 35.834452L67.6611849 35.2655508M67.1463348 36.9617191L66.8763524 36.394925M67.9290744 35.834452L67.1463348 36.9617191M68.1906853 36.397032L67.9290744 35.834452M67.4058527 37.5264062L67.1463348 36.9617191M68.1906853 36.397032L67.4058527 37.5264062M68.4376459 36.957505L68.1906853 36.397032M67.6528134 38.0868792L67.4058527 37.5264062M68.4376459 36.957505L67.6528134 38.0868792M68.4941539 37.0881416L68.4376459 36.957505M67.7093213 38.2154087L67.6528134 38.0868792M68.4941539 37.0881416L67.7093213 38.2154087M68.8311086 36.7615502L68.4941539 37.0881416M68.048369 37.8888173L67.7093213 38.2154087M68.8311086 36.7615502L68.048369 37.8888173M69.212014 36.4286376L68.8311086 36.7615502M68.4292744 37.5559048L68.048369 37.8888173M69.212014 36.4286376L68.4292744 37.5559048M69.6284985 36.0662265L69.212014 36.4286376M68.843666 37.1934937L68.4292744 37.5559048M69.6284985 36.0662265L68.843666 37.1934937M69.804301 35.9187336L69.6284985 36.0662265M69.0215613 37.0481078L68.843666 37.1934937M69.804301 35.9187336L69.0215613 37.0481078M72.1148481 34.0202894L69.804301 35.9187336M71.3300155 35.1475565L69.0215613 37.0481078M72.1148481 34.0202894L71.3300155 35.1475565M73.6761416 34.5470497L72.1148481 34.0202894M72.893402 35.6743169L71.3300155 35.1475565M73.6761416 34.5470497L72.893402 35.6743169M68.1739422 39.3363547L72.893402 35.6743169M68.4627606 41.9048381L68.8813379 38.7885239M67.677928 43.0321052L68.1739422 39.3363547" stroke-linecap="round" stroke-linejoin="round"/>
      <path d="M6.75598965,27.6711872 L6.33402558,27.6673312"/>
      <path d="M68.4627606 41.9048381L67.677928 43.0321052M66.3301089 42.5790913L67.677928 43.0321052M36.2532325 5.37084836L31.0000866 18.4661103" stroke-linecap="round" stroke-linejoin="round"/>
    </g>
    <g stroke="#F8F8F8" stroke-width=".5" transform="translate(654 415.295)" stroke-linecap="round" stroke-linejoin="round">
      <path d="M80.6224115 89.7112728L80.7233608 89.6156333M80.7233608 89.6156333L79.6186874 86.8609268M79.6186874 86.8609268L61.8256579 90.55319M61.5776111 90.7908396L61.8256579 90.55319M62.9288892 93.3078966L80.7233608 89.6156333M61.8256579 90.55319L62.9288892 93.3078966M62.6894952 93.5383007L61.5776111 90.7908396M62.6894952 93.5383007L62.9288892 93.3078966M80.6224115 89.7112728L62.6894952 93.5383007M60.5782134 91.5762425C59.7273553 90.3865454 58.2174426 89.9199408 57.2050657 90.535801 56.1926888 91.1502121 56.0614547 92.6152349 56.9123128 93.804932 57.7617288 94.994629 59.2716414 95.4612337 60.2840184 94.8453735 61.2963953 94.2295133 61.4276293 92.7673886 60.5782134 91.5762425"/>
      <path d="M60.3272823 94.8642116C59.47354 95.6858416 57.9535324 95.4989099 56.9296184 94.4439775 55.9057044 93.3875961 55.7672597 91.8675082 56.6195599 91.04298M57.4300383 83.717866C56.5806224 82.5281689 55.0707098 82.0615642 54.0583328 82.6774245 53.0459559 83.2932847 52.9147218 84.7568584 53.7641378 85.9465555 54.6149959 87.1362525 56.1249085 87.6028572 57.1358433 86.986997 58.1496624 86.3725858 58.2808965 84.9090121 57.4300383 83.717866"/>
      <path d="M57.1560332 87.0275713C56.3037329 87.8506504 54.7822833 87.6622696 53.7598114 86.6087863 52.7358974 85.5524049 52.5974527 84.0308679 53.4497529 83.2077888M77.5751858 81.7572568L76.4719545 79.0039993M77.4526045 81.8760816L77.5751858 81.7572568M58.4078041 82.9556484L58.6774829 82.6948134M76.4719545 79.0039993L58.6774829 82.6948134M58.6774829 82.6948134L59.7807142 85.44952M59.7807142 85.44952L77.5751858 81.7572568M59.5182461 85.7031095L58.4078041 82.9556484M59.5182461 85.7031095L59.7807142 85.44952M77.4526045 81.8760816L59.5182461 85.7031095M74.5149808 74.1176918L73.4117495 71.3644343M74.3707676 74.2582528L74.5149808 74.1176918M55.3259672 75.3378196L55.6187201 75.0552484M54.0756384 79.4097425C53.2233382 80.2313725 51.7018885 80.0444408 50.6779745 78.9895085 49.6555026 77.9345761 49.5156158 76.4130391 50.367916 75.5885109M51.1351304 68.002562C50.2857145 66.8128649 48.7758018 66.3462602 47.7634249 66.9621205 46.751048 67.5765316 46.6198139 69.0415544 47.470672 70.2312515 48.320088 71.4209485 49.8300006 71.8875532 50.8423776 71.271693 51.8547545 70.6558328 51.9859886 69.1937081 51.1351304 68.002562"/>
      <path d="M50.8164192 71.3557398C49.9641189 72.1788189 48.4426693 71.9904381 47.4201974 70.9355058 46.3977255 69.8805734 46.2578387 68.3575873 47.1101389 67.5345082M71.28172 66.0419528L70.1770466 63.2872463M71.1129905 66.2042501L71.28172 66.0419528M52.0681901 67.2838169L52.3840171 66.9795095M70.1770466 63.2872463L52.3840171 66.9795095M52.3840171 66.9795095L53.4872484 69.732767M53.4872484 69.732767L71.28172 66.0419528M53.178632 70.029829L52.0681901 67.2838169M53.178632 70.029829L53.4872484 69.732767M71.1129905 66.2042501L53.178632 70.029829M73.4117495 71.3644343L55.6187201 75.0552484M55.6187201 75.0552484L56.7219513 77.8085059M56.7219513 77.8085059L74.5149808 74.1176918M56.4378513 78.0838317L55.3259672 75.3378196M56.4378513 78.0838317L56.7219513 77.8085059M74.3707676 74.2582528L56.4378513 78.0838317M54.3712755 76.078301C53.5204174 74.8886039 52.0105048 74.4219992 50.99957 75.0378594 49.9871931 75.6537197 49.855959 77.1172934 50.705375 78.3069904 51.554791 79.4966875 53.0647036 79.9647413 54.0770805 79.348881 55.0894575 78.7330208 55.2206915 77.267998 54.3712755 76.078301M65.5016534 40.5815664L70.3573131 52.7045939M70.3573131 52.7045939L69.8626617 53.1827913M33.985292 47.1198284L33.2079826 47.8704534M33.985292 47.1198284L65.5016534 40.5815664M38.8409518 59.2428559L33.985292 47.1198284M70.3573131 52.7045939L38.8409518 59.2428559M38.0996957 59.9587029L33.2079826 47.8704534M38.8409518 59.2428559L38.0996957 59.9587029M69.8626617 53.1827913L38.0996957 59.9587029M41.6358044 11.5086163C41.631478 11.3347264 41.4858226 11.1680819 41.3113246 11.136202 41.294019 11.1333039 41.2767134 11.1318548 41.2594078 11.1304057M39.6961363 11.923054C39.6918099 11.7506132 39.5461545 11.5839686 39.3702144 11.5506397 39.3529088 11.5477416 39.3356032 11.5462925 39.3182976 11.5448434M37.7564682 12.3360427C37.7521418 12.1636018 37.6064865 11.9969573 37.4319884 11.9636284 37.4146828 11.9607302 37.3973773 11.9592811 37.3800717 11.957832M35.8168002 12.7504804C35.8124738 12.5780395 35.6668184 12.411395 35.4908782 12.3780661 35.4735726 12.3751679 35.4562671 12.3737188 35.4389615 12.3722697M33.8771321 13.163469C33.8728057 12.9910281 33.7271503 12.8243836 33.5526523 12.7910547 33.5353467 12.7881565 33.5180411 12.7867074 33.5007355 12.7852584M31.937464 13.5779067C31.9331376 13.4054658 31.7874822 13.2388213 31.6115421 13.2054924 31.5942365 13.2025942 31.5769309 13.2011452 31.5596253 13.2011452M29.9977959 13.9923444C29.9934695 13.8184545 29.8478142 13.6518099 29.6733162 13.6199301 29.6560106 13.6170319 29.638705 13.6141338 29.6213994 13.6141338M28.05957 14.4067821C28.0552436 14.2328922 27.9095882 14.0662476 27.7336481 14.0343678 27.7163425 14.0314697 27.6990369 14.0285715 27.6817313 14.0285715M29.028683 14.1995633C29.0243566 14.0271224 28.8787012 13.8604779 28.7042032 13.827149 28.6868976 13.8242508 28.669592 13.8228017 28.6522864 13.8213526M30.968351 13.7851256C30.9640246 13.6126847 30.8183693 13.4460402 30.6424291 13.4127113 30.6251235 13.4098131 30.6078179 13.408364 30.5905124 13.4069149M32.9080191 13.3721369C32.9036927 13.1996961 32.7580373 13.0330515 32.5835393 12.9997226 32.5662337 12.9968245 32.5489281 12.9953754 32.5316226 12.9939263M34.8476872 12.9576992C34.8433608 12.7838093 34.6977054 12.6171647 34.5217653 12.5852849 34.5044597 12.5823868 34.4871541 12.5794886 34.4698485 12.5794886M36.7873553 12.5432615C36.7830289 12.3693716 36.6373735 12.202727 36.4614333 12.1708472 36.4441277 12.1679491 36.4268222 12.1650509 36.4095166 12.1650509M38.7270233 12.1288238C38.7226969 11.9563829 38.5770416 11.7897384 38.4011014 11.7564095 38.3837958 11.7535113 38.3664902 11.7506132 38.3491846 11.7506132M40.6666914 11.7143861C40.662365 11.5419452 40.5167096 11.3753007 40.3407695 11.3419718 40.3234639 11.3390736 40.3061583 11.3376246 40.2888527 11.3361755"/>
      <path d="M27.7523958 14.2314431C27.6413516 14.0749421 27.6629836 13.8822141 27.798544 13.8039636 27.9355466 13.7242641 28.1345609 13.7880237 28.2456051 13.9445247 28.3566493 14.1024747 28.3350173 14.2937537 28.1994568 14.3720041 28.0624543 14.4517037 27.86344 14.387944 27.7523958 14.2314431M29.6920639 13.8170054C29.5824618 13.6605044 29.6026517 13.4677764 29.7396542 13.3895259 29.8752147 13.3098264 30.0756711 13.373586 30.1852732 13.530087 30.2963173 13.6865879 30.2746854 13.8793159 30.1391249 13.9575664 30.0035645 14.0358169 29.8031081 13.9749554 29.6920639 13.8170054M31.6317319 13.4040168C31.5206877 13.2475158 31.5423197 13.0547878 31.6778802 12.9765373 31.8134406 12.8982868 32.013897 12.9605974 32.1249412 13.1170983 32.2359854 13.2735993 32.2143534 13.4663273 32.0773509 13.5445778 31.9417904 13.6228283 31.7427761 13.5605177 31.6317319 13.4040168M33.5714 12.9895791C33.461798 12.8330781 33.4819878 12.6403501 33.6189904 12.5620996 33.7545508 12.4824 33.9550072 12.5461597 34.0646093 12.7026606 34.1756535 12.8591616 34.1540215 13.0518896 34.0184611 13.1301401 33.8829006 13.2083906 33.6810021 13.14608 33.5714 12.9895791M35.5110681 12.5751413C35.4000239 12.4186404 35.4216559 12.2259124 35.5572163 12.1476619 35.6927768 12.0694114 35.8932332 12.131722 36.0042774 12.2882229 36.1138794 12.4447239 36.0936896 12.6374519 35.956687 12.7157024 35.8211265 12.7954019 35.6206701 12.7330914 35.5110681 12.5751413M37.4507362 12.1621527C37.3411341 12.0056518 37.3613239 11.8129237 37.4983265 11.7346733 37.633887 11.6549737 37.8343434 11.7187334 37.9439454 11.8752343 38.0549896 12.0317353 38.0333576 12.2244633 37.8977972 12.3027138 37.7622368 12.3809642 37.5603382 12.3186537 37.4507362 12.1621527M39.3904042 11.7462659C39.27936 11.589765 39.300992 11.398486 39.4365525 11.3187865 39.5721129 11.2390869 39.7725693 11.3028466 39.8836135 11.4593475 39.9932156 11.6158485 39.9730257 11.8085765 39.8360231 11.886827 39.7004627 11.9679756 39.5000063 11.904216 39.3904042 11.7462659M41.3300723 11.3332773C41.2190281 11.1767764 41.2406601 10.9840483 41.3776627 10.9057979 41.5132231 10.8260983 41.7122374 10.8898579 41.8232816 11.047808 41.9343258 11.205758 41.9126938 11.397037 41.7771333 11.4752874 41.6415729 11.5535379 41.4396744 11.4897783 41.3300723 11.3332773M40.3595172 11.5404962C40.248473 11.3839952 40.270105 11.1912672 40.4056654 11.1130167 40.542668 11.0333171 40.7416823 11.0970768 40.8527265 11.2535777 40.9637707 11.4100787 40.9421387 11.6028067 40.8065782 11.6810572 40.6695757 11.7607568 40.4705614 11.6969971 40.3595172 11.5404962M38.4212913 11.9549339C38.3102471 11.7984329 38.331879 11.6057049 38.4674395 11.5274544 38.6029999 11.4477549 38.8034563 11.5115145 38.9130584 11.6680155 39.0241026 11.8245164 39.0024706 12.0172444 38.8669102 12.0954949 38.7313497 12.1737454 38.5308933 12.1114348 38.4212913 11.9549339M36.4801811 12.3679225C36.3691369 12.2114215 36.3907688 12.0186935 36.5263293 11.940443 36.6633319 11.8607435 36.8623461 11.9245031 36.9733903 12.0810041 37.0844345 12.237505 37.0628025 12.4302331 36.9272421 12.5084835 36.7902395 12.5881831 36.5912252 12.5258725 36.4801811 12.3679225M34.5419551 12.7823602C34.4309109 12.6258592 34.4525429 12.4331312 34.5881034 12.3548807 34.7236638 12.2766303 34.9241202 12.3389408 35.0337223 12.4968909 35.1447665 12.6533918 35.1231345 12.8446708 34.987574 12.9243703 34.8520136 13.0026208 34.6515572 12.9388612 34.5419551 12.7823602M32.6008449 13.1953488C32.4898007 13.0388479 32.5114327 12.8475689 32.6469931 12.7678694 32.7839957 12.6881698 32.98301 12.7519295 33.0940542 12.9098795 33.2050984 13.0678295 33.1834664 13.2591085 33.047906 13.3373589 32.9109034 13.4170585 32.7118891 13.3532989 32.6008449 13.1953488M30.662619 13.6112356C30.5515748 13.4532856 30.5732068 13.2620066 30.7087672 13.1837562 30.8443277 13.1040566 31.0447841 13.1678162 31.1558283 13.3243172 31.2654303 13.4808182 31.2452405 13.6735462 31.1082379 13.7517967 30.9726774 13.8300471 30.772221 13.7677366 30.662619 13.6112356M28.7229509 14.0242242C28.6119067 13.8677233 28.6335387 13.6749953 28.7705413 13.5967448 28.9061017 13.5170452 29.105116 13.5808049 29.2161602 13.7373058 29.3272044 13.8938068 29.3055724 14.0865348 29.1700119 14.1647853 29.0344515 14.2430358 28.832553 14.1821743 28.7229509 14.0242242M67.8206023 18.5149321L14.1920249 29.962687M68.7954838 17.5368012L67.8206023 18.5149321M13.9050405 29.2526364L68.7954838 17.5368012M54.9841818 130.800018L13.9050405 29.2526364M109.874625 119.084183L54.9841818 130.800018M108.612759 119.352263L67.8206023 18.5149321M68.7954838 17.5368012L109.874625 119.084183M84.4628101 142.862184L84.37484 142.950578M84.2666801 142.372394L84.4628101 142.862184M84.1513095 142.397029L84.37484 142.950578M84.37484 142.950578L87.021153 142.386885M89.265111 141.52613L88.6522047 142.144888M88.3882945 141.492801L88.6522047 142.144888M88.6522047 142.144888L82.4784359 143.462105M82.4784359 143.462105L83.0927843 142.843346M83.0927843 142.843346L84.0344968 142.421663M84.0344968 142.421663L88.8829459 141.387018M88.6031722 141.66814L89.265111 141.52613M88.6031722 141.66814L88.5224128 141.463819M87.021153 142.386885L87.109123 142.297042M86.9115509 141.807252L87.109123 142.297042M87.109123 142.297042L84.4628101 142.862184M88.6046143 141.666691L88.6031722 141.66814M88.5238549 141.463819L88.6046143 141.666691M88.8829459 141.387018L88.884388 141.385569M88.884388 141.385569L89.2665531 141.524681M89.2665531 141.524681L88.6046143 141.666691M107.658068 138.869961L61.4968517 148.723725M111.310989 135.196536L107.658068 138.869961M65.1483309 145.050299L111.310989 135.196536M61.4968517 148.723725L65.1483309 145.050299M97.8717571 139.703184C97.9294424 139.61334 98.1486465 139.493067 98.3591978 139.433654 98.5697492 139.372793 98.6923304 139.397427 98.6346451 139.485821 98.5755177 139.574215 98.3577557 139.695938 98.1457622 139.755351 97.9337688 139.814763 97.8126297 139.793027 97.8717571 139.703184M47.4749984 140.607411C47.4519243 140.549448 47.4894198 140.468299 47.5846005 140.374109M47.5846005 140.374109L1.51423901 26.4950316M1.51423901 26.4950316C1.42050041 26.589222 1.38300497 26.6703706 1.40607908 26.728334M61.3180273 148.82516C61.3829232 148.81067 61.4434928 148.777341 61.4968517 148.723725M61.4968517 148.723725C56.140772 149.865602 49.9122022 146.128417 47.5846005 140.374109M1.51423901 26.4950316C-.0519167662 22.620184.510514868 18.6395533 2.97656126 16.1587233M107.479243 138.971397C107.544139 138.956906 107.604709 138.923577 107.658068 138.869961M111.680175 136.716624C110.607228 137.79619 109.227108 138.535223 107.658068 138.869961M1.51423901 26.4950316L5.16571824 22.8216065M6.62804049 12.4852982C4.16199409 14.9661281 3.59956246 18.9467588 5.16571824 22.8216065M51.2346376 136.700684L47.5846005 140.374109M5.16571824 22.8216065L51.2346376 136.700684M5.8939951 22.4738266C5.62575847 22.5303408 5.29983655 22.6868418 5.16571824 22.8216065M51.2346376 136.700684C51.3687559 136.565919 51.6946778 136.409418 51.9629144 136.352904M51.9629144 136.352904L5.8939951 22.4738266M11.1029773 10.6087359C11.0135651 10.3855771 10.8664676 10.2537105 10.7381178 10.2812431M5.8939951 22.4738266C3.681764 17.0078859 6.01369209 11.695548 11.1029773 10.6087359M65.1483309 145.050299C65.2824492 144.914086 65.2968706 144.572102 65.1800578 144.285184M65.1800578 144.283735C60.0922147 145.369098 54.1737034 141.818845 51.9629144 136.351455M51.2346376 136.700684C53.5622393 142.456441 59.7922512 146.193626 65.1483309 145.050299M57.2656353.754972187C57.176223.531813422 57.0291255.399946878 56.9022179.427479453M11.1029773 10.6087359L57.2656353.754972187M111.310989 135.196536C111.445107 135.061771 111.460971 134.718338 111.342716 134.43142M111.342716 134.43142L65.1800578 144.283735M70.4827787 8.68725194C70.6471817 8.65247395 70.7582259 8.66116845 70.7784158 8.71188635M57.2656353.754972187C62.3534783-.331839982 68.2719897 3.21986219 70.4827787 8.68725194M116.847335 122.590964C116.825703 122.541695 116.714659 122.531551 116.551698 122.566329M116.551698 122.566329C118.762487 128.03227 116.430559 133.344608 111.342716 134.43142M111.310989 135.196536C112.880029 134.861798 114.26015 134.122765 115.331654 133.044648M70.4827787 8.68725194L116.551698 122.566329M56.6195599 91.04298L56.9051022 90.7676542M60.3272823 94.8642116L60.5839819 94.6149693M53.4497529 83.2077888L53.7569271 82.9092777M57.1560332 87.0275713L57.437249 86.7565928M50.367916 75.5885109L50.6981643 75.2697127M54.0756384 79.4097425L54.3770441 79.1170278M47.1101389 67.5345082L47.4634614 67.1939737M50.8164192 71.3557398L51.1423411 71.0398397M47.4749984 140.607411L1.40607908 26.728334"/>
      <path d="M47.4749984 140.607411C47.9119645 141.688427 48.5061231 142.72742 49.2257472 143.680916 49.9468134 144.632964 50.7933451 145.499515 51.729289 146.241446 52.6652329 146.983376 53.690589 147.599236 54.7620934 148.060045 55.8321557 148.520853 56.946924 148.826609 58.0559238 148.959925 59.1663658 149.091792 60.2710392 149.049768 61.3180273 148.82516M2.97656126 16.1572743C2.46893066 16.6673514 2.03196454 17.2455355 1.67431571 17.8773356 1.31666688 18.5091358 1.04121959 19.1902048.850858113 19.9060517.660496637 20.6218986.555220972 21.3681763.535031118 22.1303939.514841265 22.8926115.581179355 23.6678709.728276859 24.438783.875374364 25.2111442 1.10323128 25.9791581 1.40607908 26.728334M107.479243 138.971397L61.3180273 148.82516M107.479243 138.971397C107.800839 138.901841 108.116666 138.817794 108.425282 138.71346 108.73534 138.612024 109.036746 138.493199 109.329499 138.356986 109.62081 138.220772 109.90491 138.070067 110.178915 137.903423 110.451478 137.735329 110.715388 137.552745 110.966319 137.35422 111.21725 137.155696 111.455202 136.942681 111.680175 136.716624M6.62804049 12.4852982L2.97656126 16.1572743M6.62804049 12.4852982C6.84724461 12.2650376 7.07942792 12.0578188 7.3231483 11.8636416 7.56831081 11.6709136 7.82501037 11.4912273 8.09036273 11.327481 8.35715723 11.1637346 8.63548878 11.0159282 8.92103099 10.8826125 9.20801534 10.750746 9.50365248 10.6333703 9.80650028 10.5333835 10.1093481 10.4319477 10.4208487 10.3479009 10.7381178 10.2812431M56.9022179.427479453L10.7381178 10.2812431M56.9022179.427479453C57.9333426.207218854 59.027921.163746367 60.1340366.29561291 61.2415943.427479453 62.3578047.733235944 63.4321934 1.19694247 64.5080241 1.660649 65.5420331 2.28085647 66.4866298 3.03003233 67.4326686 3.77920818 68.2878531 4.65445425 69.01613 5.61519621 69.7429647 6.57738725 70.3400075 7.62507418 70.7798579 8.71188635M116.847335 122.590964C117.151625 123.344487 117.379482 124.11395 117.526579 124.884862 117.675119 125.655774 117.738573 126.426686 117.719825 127.183107 117.699635 127.93808 117.595802 128.675663 117.408325 129.379917 117.220847 130.084171 116.951169 130.750749 116.60073 131.36661 116.251734 131.983919 115.824863 132.547612 115.330212 133.044648M116.847335 122.590964L70.7784158 8.71188635M115.331654 133.043199L111.680175 136.716624"/>
    </g>
    <path fill="#FFBAB3" d="M8.14791003,27.8115437 L4.94889789,20.7862281 L0.399191724,20.7862281 L7.54898387,36.6476549 L8.74150451,36.6476549 C11.5033183,26.9043601 16.1845394,17.7182332 22.491925,9.78751982 L21.8805583,0.892477424 C15.5465142,8.83926294 10.895506,17.9682444 8.14791003,27.8115437 Z" transform="translate(764.411 344)"/>
  </g>
</svg>
